  0
SECTION
  2
HEADER
  9
$ANGBASE
  50
0.0
  9
$ANGDIR
  70
1
  9
$MEASUREMENT
  70
1
  0
ENDSEC
  0
SECTION
  2
TABLES
  0
TABLE
  2
LTYPE
  70
4
  0
LTYPE
  5
40F
  2
CONTINUOUS
  70
0
  3
Solid line
  72
65
  73
0
  40
0.0
  0
LTYPE
  5
410
  2
DASHDOT
 70
0
  3
Dash Dot ____ _ ____ _
 72
65
 73
4
 40
2.0
 49
1.25
 49
-0.25
 49
0.25
 49
-0.25
  0
LTYPE
  5
411
  2
DASHED
 70
0
  3
Dashed __ __ __ __ __
 72
65
 73
2
 40
0.75
 49
0.5
 49
-0.25
  0
LTYPE
  5
43B
  2
DOTTED
 70
0
  3
Dotted .  .  .  .
 72
65
 73
2
 40
0.2
 49
0.0
 49
-0.2
  0
ENDTAB
  0
TABLE
  2
STYLE
  70
4
  0
STYLE
  2
KICAD
  70
0
  40
0
  41
1
  42
1
  50
0
  71
0
  3
isocp.shx
  0
STYLE
  2
KICADB
  70
0
  40
0
  41
1
  42
1
  50
0
  71
0
  3
isocp.shx
  0
STYLE
  2
KICADI
  70
0
  40
0
  41
1
  42
1
  50
15
  71
0
  3
isocp.shx
  0
STYLE
  2
KICADBI
  70
0
  40
0
  41
1
  42
1
  50
15
  71
0
  3
isocp.shx
  0
ENDTAB
  0
TABLE
  2
LAYER
  70
1
  0
LAYER
  2
BLACK
  70
0
  62
7
  6
CONTINUOUS
  0
ENDTAB
  0
ENDSEC
  0
SECTION
  2
ENTITIES
0
LINE
8
BLACK
6
CONTINUOUS
10
148.1471209999999985
20
-103.647365999999991
11
148.1605129999999804
21
-103.6534339999999901
0
LINE
8
BLACK
6
CONTINUOUS
10
148.1605129999999804
20
-103.6534339999999901
11
160.111662999999993
21
-110.5534329999999983
0
LINE
8
BLACK
6
CONTINUOUS
10
160.111662999999993
20
-110.5534329999999983
11
160.1236140000000034
21
-110.561996999999991
0
LINE
8
BLACK
6
CONTINUOUS
10
160.1236140000000034
20
-110.561996999999991
11
160.141428999999988
21
-110.5852139999999935
0
LINE
8
BLACK
6
CONTINUOUS
10
160.141428999999988
20
-110.5852139999999935
11
160.1490019999999959
21
-110.6134789999999981
0
LINE
8
BLACK
6
CONTINUOUS
10
160.1490019999999959
20
-110.6134789999999981
11
160.1490019999999959
21
-110.6134799999999956
0
LINE
8
BLACK
6
CONTINUOUS
10
160.1490019999999959
20
-110.6134799999999956
11
160.1451830000000029
21
-110.6424930000000018
0
LINE
8
BLACK
6
CONTINUOUS
10
160.1451830000000029
20
-110.6424930000000018
11
160.1391150000000039
21
-110.6558849999999978
0
LINE
8
BLACK
6
CONTINUOUS
10
160.1391150000000039
20
-110.6558849999999978
11
153.2391149999999982
21
-122.6070359999999937
0
LINE
8
BLACK
6
CONTINUOUS
10
153.2391149999999982
20
-122.6070359999999937
11
153.2305509999999913
21
-122.61898699999999
0
LINE
8
BLACK
6
CONTINUOUS
10
153.2305509999999913
20
-122.61898699999999
11
153.2073350000000005
21
-122.6368019999999888
0
LINE
8
BLACK
6
CONTINUOUS
10
153.2073350000000005
20
-122.6368019999999888
11
153.1790689999999984
21
-122.6443759999999941
0
LINE
8
BLACK
6
CONTINUOUS
10
153.1790689999999984
20
-122.6443759999999941
11
153.153429999999986
21
-122.6409999999999911
0
LINE
8
BLACK
6
CONTINUOUS
10
153.153429999999986
20
-122.6409999999999911
11
153.1500549999999805
21
-122.6405559999999895
0
LINE
8
BLACK
6
CONTINUOUS
10
153.1500549999999805
20
-122.6405559999999895
11
153.1500509999999906
21
-122.640552999999997
0
LINE
8
BLACK
6
CONTINUOUS
10
153.1500509999999906
20
-122.640552999999997
11
153.1366629999999986
21
-122.6344879999999904
0
LINE
8
BLACK
6
CONTINUOUS
10
153.1366629999999986
20
-122.6344879999999904
11
141.1855129999999861
21
-115.7344879999999989
0
LINE
8
BLACK
6
CONTINUOUS
10
141.1855129999999861
20
-115.7344879999999989
11
141.173562000000004
21
-115.725923999999992
0
LINE
8
BLACK
6
CONTINUOUS
10
141.173562000000004
20
-115.725923999999992
11
141.155746999999991
21
-115.7027069999999895
0
LINE
8
BLACK
6
CONTINUOUS
10
141.155746999999991
20
-115.7027069999999895
11
141.1481739999999832
21
-115.6744419999999991
0
LINE
8
BLACK
6
CONTINUOUS
10
141.1481739999999832
20
-115.6744419999999991
11
141.1519930000000045
21
-115.6454279999999954
0
LINE
8
BLACK
6
CONTINUOUS
10
141.1519930000000045
20
-115.6454279999999954
11
141.1580610000000036
21
-115.6320359999999994
0
LINE
8
BLACK
6
CONTINUOUS
10
141.1580610000000036
20
-115.6320359999999994
11
148.0580609999999808
21
-103.680886000000001
0
LINE
8
BLACK
6
CONTINUOUS
10
148.0580609999999808
20
-103.680886000000001
11
148.0666249999999877
21
-103.668933999999993
0
LINE
8
BLACK
6
CONTINUOUS
10
148.0666249999999877
20
-103.668933999999993
11
148.0898420000000044
21
-103.6511199999999917
0
LINE
8
BLACK
6
CONTINUOUS
10
148.0898420000000044
20
-103.6511199999999917
11
148.1181080000000065
21
-103.6435460000000006
0
LINE
8
BLACK
6
CONTINUOUS
10
148.1181080000000065
20
-103.6435460000000006
11
148.1471209999999985
21
-103.647365999999991
0
LINE
8
BLACK
6
CONTINUOUS
10
141.3254649999999799
20
-115.642083999999997
11
153.1467109999999821
21
-122.4670829999999881
0
LINE
8
BLACK
6
CONTINUOUS
10
153.1467109999999821
20
-122.4670829999999881
11
159.9717100000000016
21
-110.6458359999999885
0
LINE
8
BLACK
6
CONTINUOUS
10
159.9717100000000016
20
-110.6458359999999885
11
148.1504639999999995
21
-103.8208379999999948
0
LINE
8
BLACK
6
CONTINUOUS
10
148.1504639999999995
20
-103.8208379999999948
11
141.3254649999999799
21
-115.642083999999997
0
LINE
8
BLACK
6
CONTINUOUS
10
125.5126969999999886
20
-96.4763779999999969
11
138.8424739999999815
21
-100.0480809999999963
0
LINE
8
BLACK
6
CONTINUOUS
10
138.8424739999999815
20
-100.0480809999999963
11
138.8562239999999974
21
-100.0532559999999904
0
LINE
8
BLACK
6
CONTINUOUS
10
138.8562239999999974
20
-100.0532559999999904
11
138.8562340000000006
21
-100.0532589999999971
0
LINE
8
BLACK
6
CONTINUOUS
10
138.8562340000000006
20
-100.0532589999999971
11
138.8794499999999914
21
-100.0710739999999959
0
LINE
8
BLACK
6
CONTINUOUS
10
138.8794499999999914
20
-100.0710739999999959
11
138.8940819999999974
21
-100.0964159999999907
0
LINE
8
BLACK
6
CONTINUOUS
10
138.8940819999999974
20
-100.0964159999999907
11
138.8979019999999878
21
-100.1254299999999944
0
LINE
8
BLACK
6
CONTINUOUS
10
138.8979019999999878
20
-100.1254299999999944
11
138.8955069999999807
21
-100.1399359999999916
0
LINE
8
BLACK
6
CONTINUOUS
10
138.8955069999999807
20
-100.1399359999999916
11
135.3238029999999981
21
-113.4697120000000012
0
LINE
8
BLACK
6
CONTINUOUS
10
135.3238029999999981
20
-113.4697120000000012
11
135.3186269999999922
21
-113.4834630000000004
0
LINE
8
BLACK
6
CONTINUOUS
10
135.3186269999999922
20
-113.4834630000000004
11
135.3186249999999973
21
-113.4834729999999894
0
LINE
8
BLACK
6
CONTINUOUS
10
135.3186249999999973
20
-113.4834729999999894
11
135.3008099999999843
21
-113.5066889999999944
0
LINE
8
BLACK
6
CONTINUOUS
10
135.3008099999999843
20
-113.5066889999999944
11
135.2754679999999894
21
-113.5213210000000004
0
LINE
8
BLACK
6
CONTINUOUS
10
135.2754679999999894
20
-113.5213210000000004
11
135.246454
21
-113.5251409999999908
0
LINE
8
BLACK
6
CONTINUOUS
10
135.246454
20
-113.5251409999999908
11
135.2319479999999885
21
-113.5227459999999979
0
LINE
8
BLACK
6
CONTINUOUS
10
135.2319479999999885
20
-113.5227459999999979
11
121.9021719999999931
21
-109.9510420000000011
0
LINE
8
BLACK
6
CONTINUOUS
10
121.9021719999999931
20
-109.9510420000000011
11
121.8884109999999907
21
-109.9458629999999886
0
LINE
8
BLACK
6
CONTINUOUS
10
121.8884109999999907
20
-109.9458629999999886
11
121.8651949999999999
21
-109.9280490000000015
0
LINE
8
BLACK
6
CONTINUOUS
10
121.8651949999999999
20
-109.9280490000000015
11
121.850562999999994
21
-109.9027059999999949
0
LINE
8
BLACK
6
CONTINUOUS
10
121.850562999999994
20
-109.9027059999999949
11
121.8467429999999894
21
-109.8736929999999887
0
LINE
8
BLACK
6
CONTINUOUS
10
121.8467429999999894
20
-109.8736929999999887
11
121.8491389999999939
21
-109.8591869999999915
0
LINE
8
BLACK
6
CONTINUOUS
10
121.8491389999999939
20
-109.8591869999999915
11
125.4208419999999933
21
-96.5294099999999986
0
LINE
8
BLACK
6
CONTINUOUS
10
125.4208419999999933
20
-96.5294099999999986
11
125.4260209999999915
21
-96.5156499999999937
0
LINE
8
BLACK
6
CONTINUOUS
10
125.4260209999999915
20
-96.5156499999999937
11
125.4438349999999929
21
-96.4924339999999887
0
LINE
8
BLACK
6
CONTINUOUS
10
125.4438349999999929
20
-96.4924339999999887
11
125.4691779999999994
21
-96.477801999999997
0
LINE
8
BLACK
6
CONTINUOUS
10
125.4691779999999994
20
-96.477801999999997
11
125.4981909999999914
21
-96.4739819999999924
0
LINE
8
BLACK
6
CONTINUOUS
10
125.4981909999999914
20
-96.4739819999999924
11
125.5126969999999886
21
-96.4763779999999969
0
LINE
8
BLACK
6
CONTINUOUS
10
122.0134379999999936
20
-109.8255649999999974
11
135.1983259999999802
21
-113.358444999999989
0
LINE
8
BLACK
6
CONTINUOUS
10
135.1983259999999802
20
-113.358444999999989
11
138.731205999999986
21
-100.1735579999999999
0
LINE
8
BLACK
6
CONTINUOUS
10
138.731205999999986
20
-100.1735579999999999
11
125.5463189999999969
21
-96.6406769999999966
0
LINE
8
BLACK
6
CONTINUOUS
10
125.5463189999999969
20
-96.6406769999999966
11
122.0134379999999936
21
-109.8255649999999974
0
LINE
8
BLACK
6
CONTINUOUS
10
115.5936599999999999
20
-95.407000999999994
11
115.6206959999999953
21
-95.4181999999999988
0
LINE
8
BLACK
6
CONTINUOUS
10
115.6206959999999953
20
-95.4181999999999988
11
115.6413879999999921
21
-95.4388919999999956
0
LINE
8
BLACK
6
CONTINUOUS
10
115.6413879999999921
20
-95.4388919999999956
11
115.6525869999999969
21
-95.465927999999991
0
LINE
8
BLACK
6
CONTINUOUS
10
115.6525869999999969
20
-95.465927999999991
11
115.6540279999999967
21
-95.480559999999997
0
LINE
8
BLACK
6
CONTINUOUS
10
115.6540279999999967
20
-95.480559999999997
11
115.6540279999999967
21
-109.2805599999999941
0
LINE
8
BLACK
6
CONTINUOUS
10
115.6540279999999967
20
-109.2805599999999941
11
115.6525869999999969
21
-109.2951920000000001
0
LINE
8
BLACK
6
CONTINUOUS
10
115.6525869999999969
20
-109.2951920000000001
11
115.6413879999999921
21
-109.3222279999999955
0
LINE
8
BLACK
6
CONTINUOUS
10
115.6413879999999921
20
-109.3222279999999955
11
115.6206959999999953
21
-109.3429199999999923
0
LINE
8
BLACK
6
CONTINUOUS
10
115.6206959999999953
20
-109.3429199999999923
11
115.5936599999999999
21
-109.3541189999999972
0
LINE
8
BLACK
6
CONTINUOUS
10
115.5936599999999999
20
-109.3541189999999972
11
115.5790279999999939
21
-109.355559999999997
0
LINE
8
BLACK
6
CONTINUOUS
10
115.5790279999999939
20
-109.355559999999997
11
101.7790279999999967
21
-109.355559999999997
0
LINE
8
BLACK
6
CONTINUOUS
10
101.7790279999999967
20
-109.355559999999997
11
101.7643959999999907
21
-109.3541189999999972
0
LINE
8
BLACK
6
CONTINUOUS
10
101.7643959999999907
20
-109.3541189999999972
11
101.7373599999999954
21
-109.3429199999999923
0
LINE
8
BLACK
6
CONTINUOUS
10
101.7373599999999954
20
-109.3429199999999923
11
101.7166679999999985
21
-109.3222279999999955
0
LINE
8
BLACK
6
CONTINUOUS
10
101.7166679999999985
20
-109.3222279999999955
11
101.7054689999999937
21
-109.2951920000000001
0
LINE
8
BLACK
6
CONTINUOUS
10
101.7054689999999937
20
-109.2951920000000001
11
101.7040279999999939
21
-109.2805599999999941
0
LINE
8
BLACK
6
CONTINUOUS
10
101.7040279999999939
20
-109.2805599999999941
11
101.7040279999999939
21
-95.480559999999997
0
LINE
8
BLACK
6
CONTINUOUS
10
101.7040279999999939
20
-95.480559999999997
11
101.7054689999999937
21
-95.465927999999991
0
LINE
8
BLACK
6
CONTINUOUS
10
101.7054689999999937
20
-95.465927999999991
11
101.7166679999999985
21
-95.4388919999999956
0
LINE
8
BLACK
6
CONTINUOUS
10
101.7166679999999985
20
-95.4388919999999956
11
101.7373599999999954
21
-95.4181999999999988
0
LINE
8
BLACK
6
CONTINUOUS
10
101.7373599999999954
20
-95.4181999999999988
11
101.7643959999999907
21
-95.407000999999994
0
LINE
8
BLACK
6
CONTINUOUS
10
101.7643959999999907
20
-95.407000999999994
11
101.7790279999999967
21
-95.4055599999999941
0
LINE
8
BLACK
6
CONTINUOUS
10
101.7790279999999967
20
-95.4055599999999941
11
115.5790279999999939
21
-95.4055599999999941
0
LINE
8
BLACK
6
CONTINUOUS
10
115.5790279999999939
20
-95.4055599999999941
11
115.5936599999999999
21
-95.407000999999994
0
LINE
8
BLACK
6
CONTINUOUS
10
101.8540279999999996
20
-95.5555599999999998
11
101.8540279999999996
21
-109.2055599999999913
0
LINE
8
BLACK
6
CONTINUOUS
10
101.8540279999999996
20
-109.2055599999999913
11
115.504027999999991
21
-109.2055599999999913
0
LINE
8
BLACK
6
CONTINUOUS
10
115.504027999999991
20
-109.2055599999999913
11
115.504027999999991
21
-95.5555599999999998
0
LINE
8
BLACK
6
CONTINUOUS
10
115.504027999999991
20
-95.5555599999999998
11
101.8540279999999996
21
-95.5555599999999998
0
LINE
8
BLACK
6
CONTINUOUS
10
55.9051389999999984
20
-86.5293039999999962
11
55.9285089999999983
21
-86.5469149999999985
0
LINE
8
BLACK
6
CONTINUOUS
10
55.9285089999999983
20
-86.5469149999999985
11
55.9433620000000005
21
-86.5721289999999897
0
LINE
8
BLACK
6
CONTINUOUS
10
55.9433620000000005
20
-86.5721289999999897
11
55.9468249999999969
21
-86.5864179999999948
0
LINE
8
BLACK
6
CONTINUOUS
10
55.9468249999999969
20
-86.5864179999999948
11
57.8674139999999966
21
-100.2521169999999984
0
LINE
8
BLACK
6
CONTINUOUS
10
57.8674139999999966
20
-100.2521169999999984
11
57.8680239999999984
21
-100.266807
0
LINE
8
BLACK
6
CONTINUOUS
10
57.8680239999999984
20
-100.266807
11
57.8606959999999972
21
-100.2951389999999918
0
LINE
8
BLACK
6
CONTINUOUS
10
57.8606959999999972
20
-100.2951389999999918
11
57.8430859999999996
21
-100.3185089999999917
0
LINE
8
BLACK
6
CONTINUOUS
10
57.8430859999999996
20
-100.3185089999999917
11
57.8178709999999967
21
-100.3333619999999939
0
LINE
8
BLACK
6
CONTINUOUS
10
57.8178709999999967
20
-100.3333619999999939
11
57.8035819999999987
21
-100.3368249999999904
0
LINE
8
BLACK
6
CONTINUOUS
10
57.8035819999999987
20
-100.3368249999999904
11
44.1378829999999951
21
-102.2574139999999971
0
LINE
8
BLACK
6
CONTINUOUS
10
44.1378829999999951
20
-102.2574139999999971
11
44.1231930000000006
21
-102.2580239999999918
0
LINE
8
BLACK
6
CONTINUOUS
10
44.1231930000000006
20
-102.2580239999999918
11
44.0948609999999945
21
-102.2506959999999907
0
LINE
8
BLACK
6
CONTINUOUS
10
44.0948609999999945
20
-102.2506959999999907
11
44.0929369999999992
21
-102.2492459999999994
0
LINE
8
BLACK
6
CONTINUOUS
10
44.0929369999999992
20
-102.2492459999999994
11
44.0714909999999946
21
-102.2330860000000001
0
LINE
8
BLACK
6
CONTINUOUS
10
44.0714909999999946
20
-102.2330860000000001
11
44.0566379999999995
21
-102.2078709999999973
0
LINE
8
BLACK
6
CONTINUOUS
10
44.0566379999999995
20
-102.2078709999999973
11
44.053174999999996
21
-102.1935819999999921
0
LINE
8
BLACK
6
CONTINUOUS
10
44.053174999999996
20
-102.1935819999999921
11
42.1325859999999963
21
-88.5278830000000028
0
LINE
8
BLACK
6
CONTINUOUS
10
42.1325859999999963
20
-88.5278830000000028
11
42.1319759999999945
21
-88.5131930000000011
0
LINE
8
BLACK
6
CONTINUOUS
10
42.1319759999999945
20
-88.5131930000000011
11
42.1393039999999957
21
-88.4848609999999951
0
LINE
8
BLACK
6
CONTINUOUS
10
42.1393039999999957
20
-88.4848609999999951
11
42.1569149999999979
21
-88.4614909999999952
0
LINE
8
BLACK
6
CONTINUOUS
10
42.1569149999999979
20
-88.4614909999999952
11
42.1821289999999962
21
-88.446637999999993
0
LINE
8
BLACK
6
CONTINUOUS
10
42.1821289999999962
20
-88.446637999999993
11
42.1964180000000013
21
-88.4431749999999965
0
LINE
8
BLACK
6
CONTINUOUS
10
42.1964180000000013
20
-88.4431749999999965
11
55.8621169999999978
21
-86.5225859999999898
0
LINE
8
BLACK
6
CONTINUOUS
10
55.8621169999999978
20
-86.5225859999999898
11
55.8768069999999994
21
-86.5219759999999951
0
LINE
8
BLACK
6
CONTINUOUS
10
55.8768069999999994
20
-86.5219759999999951
11
55.9051389999999984
21
-86.5293039999999962
0
LINE
8
BLACK
6
CONTINUOUS
10
42.2915629999999965
20
-88.581277
11
44.1912769999999995
21
-102.0984359999999924
0
LINE
8
BLACK
6
CONTINUOUS
10
44.1912769999999995
20
-102.0984359999999924
11
57.708435999999999
21
-100.1987219999999894
0
LINE
8
BLACK
6
CONTINUOUS
10
57.708435999999999
20
-100.1987219999999894
11
55.8087219999999959
21
-86.681562999999997
0
LINE
8
BLACK
6
CONTINUOUS
10
55.8087219999999959
20
-86.681562999999997
11
42.2915629999999965
21
-88.581277
0
LINE
8
BLACK
6
CONTINUOUS
10
127.6536599999999879
20
-76.7070009999999911
11
127.6806959999999975
21
-76.718199999999996
0
LINE
8
BLACK
6
CONTINUOUS
10
127.6806959999999975
20
-76.718199999999996
11
127.7013879999999943
21
-76.7388919999999928
0
LINE
8
BLACK
6
CONTINUOUS
10
127.7013879999999943
20
-76.7388919999999928
11
127.7125869999999992
21
-76.7659280000000024
0
LINE
8
BLACK
6
CONTINUOUS
10
127.7125869999999992
20
-76.7659280000000024
11
127.714027999999999
21
-76.7805599999999941
0
LINE
8
BLACK
6
CONTINUOUS
10
127.714027999999999
20
-76.7805599999999941
11
127.714027999999999
21
-90.5805599999999913
0
LINE
8
BLACK
6
CONTINUOUS
10
127.714027999999999
20
-90.5805599999999913
11
127.7125869999999992
21
-90.5951919999999973
0
LINE
8
BLACK
6
CONTINUOUS
10
127.7125869999999992
20
-90.5951919999999973
11
127.7013879999999943
21
-90.6222279999999927
0
LINE
8
BLACK
6
CONTINUOUS
10
127.7013879999999943
20
-90.6222279999999927
11
127.6806959999999975
21
-90.6429199999999895
0
LINE
8
BLACK
6
CONTINUOUS
10
127.6806959999999975
20
-90.6429199999999895
11
127.6536599999999879
21
-90.6541189999999943
0
LINE
8
BLACK
6
CONTINUOUS
10
127.6536599999999879
20
-90.6541189999999943
11
127.6390279999999962
21
-90.6555599999999941
0
LINE
8
BLACK
6
CONTINUOUS
10
127.6390279999999962
20
-90.6555599999999941
11
113.839027999999999
21
-90.6555599999999941
0
LINE
8
BLACK
6
CONTINUOUS
10
113.839027999999999
20
-90.6555599999999941
11
113.824395999999993
21
-90.6541189999999943
0
LINE
8
BLACK
6
CONTINUOUS
10
113.824395999999993
20
-90.6541189999999943
11
113.7973599999999976
21
-90.6429199999999895
0
LINE
8
BLACK
6
CONTINUOUS
10
113.7973599999999976
20
-90.6429199999999895
11
113.7766680000000008
21
-90.6222279999999927
0
LINE
8
BLACK
6
CONTINUOUS
10
113.7766680000000008
20
-90.6222279999999927
11
113.765468999999996
21
-90.5951919999999973
0
LINE
8
BLACK
6
CONTINUOUS
10
113.765468999999996
20
-90.5951919999999973
11
113.7640279999999962
21
-90.5805599999999913
0
LINE
8
BLACK
6
CONTINUOUS
10
113.7640279999999962
20
-90.5805599999999913
11
113.7640279999999962
21
-76.7805599999999941
0
LINE
8
BLACK
6
CONTINUOUS
10
113.7640279999999962
20
-76.7805599999999941
11
113.765468999999996
21
-76.7659280000000024
0
LINE
8
BLACK
6
CONTINUOUS
10
113.765468999999996
20
-76.7659280000000024
11
113.7766680000000008
21
-76.7388919999999928
0
LINE
8
BLACK
6
CONTINUOUS
10
113.7766680000000008
20
-76.7388919999999928
11
113.7973599999999976
21
-76.718199999999996
0
LINE
8
BLACK
6
CONTINUOUS
10
113.7973599999999976
20
-76.718199999999996
11
113.824395999999993
21
-76.7070009999999911
0
LINE
8
BLACK
6
CONTINUOUS
10
113.824395999999993
20
-76.7070009999999911
11
113.839027999999999
21
-76.7055599999999913
0
LINE
8
BLACK
6
CONTINUOUS
10
113.839027999999999
20
-76.7055599999999913
11
127.6390279999999962
21
-76.7055599999999913
0
LINE
8
BLACK
6
CONTINUOUS
10
127.6390279999999962
20
-76.7055599999999913
11
127.6536599999999879
21
-76.7070009999999911
0
LINE
8
BLACK
6
CONTINUOUS
10
113.9140280000000018
20
-76.855559999999997
11
113.9140280000000018
21
-90.5055600000000027
0
LINE
8
BLACK
6
CONTINUOUS
10
113.9140280000000018
20
-90.5055600000000027
11
127.5640279999999933
21
-90.5055600000000027
0
LINE
8
BLACK
6
CONTINUOUS
10
127.5640279999999933
20
-90.5055600000000027
11
127.5640279999999933
21
-76.855559999999997
0
LINE
8
BLACK
6
CONTINUOUS
10
127.5640279999999933
20
-76.855559999999997
11
113.9140280000000018
21
-76.855559999999997
0
LINE
8
BLACK
6
CONTINUOUS
10
73.1697739999999897
20
-73.2655779999999908
11
73.1975249999999988
21
-73.2748629999999963
0
LINE
8
BLACK
6
CONTINUOUS
10
73.1975249999999988
20
-73.2748629999999963
11
73.219610000000003
21
-73.2940609999999992
0
LINE
8
BLACK
6
CONTINUOUS
10
73.219610000000003
20
-73.2940609999999992
11
73.2326679999999897
21
-73.3202500000000015
0
LINE
8
BLACK
6
CONTINUOUS
10
73.2326679999999897
20
-73.3202500000000015
11
73.235125999999994
21
-73.3347459999999955
0
LINE
8
BLACK
6
CONTINUOUS
10
73.235125999999994
20
-73.3347459999999955
11
74.1977660000000014
21
-87.1011299999999977
0
LINE
8
BLACK
6
CONTINUOUS
10
74.1977660000000014
20
-87.1011299999999977
11
74.1973490000000027
21
-87.1158269999999959
0
LINE
8
BLACK
6
CONTINUOUS
10
74.1973490000000027
20
-87.1158269999999959
11
74.1880639999999971
21
-87.1435779999999909
0
LINE
8
BLACK
6
CONTINUOUS
10
74.1880639999999971
20
-87.1435779999999909
11
74.1688659999999942
21
-87.165662999999995
0
LINE
8
BLACK
6
CONTINUOUS
10
74.1688659999999942
20
-87.165662999999995
11
74.1426769999999919
21
-87.1787209999999959
0
LINE
8
BLACK
6
CONTINUOUS
10
74.1426769999999919
20
-87.1787209999999959
11
74.142674999999997
21
-87.1787209999999959
0
LINE
8
BLACK
6
CONTINUOUS
10
74.142674999999997
20
-87.1787209999999959
11
74.1281809999999979
21
-87.1811790000000002
0
LINE
8
BLACK
6
CONTINUOUS
10
74.1281809999999979
20
-87.1811790000000002
11
60.3617969999999957
21
-88.1438189999999935
0
LINE
8
BLACK
6
CONTINUOUS
10
60.3617969999999957
20
-88.1438189999999935
11
60.3470999999999975
21
-88.1434019999999947
0
LINE
8
BLACK
6
CONTINUOUS
10
60.3470999999999975
20
-88.1434019999999947
11
60.3193489999999954
21
-88.1341169999999892
0
LINE
8
BLACK
6
CONTINUOUS
10
60.3193489999999954
20
-88.1341169999999892
11
60.2972639999999984
21
-88.1149190000000004
0
LINE
8
BLACK
6
CONTINUOUS
10
60.2972639999999984
20
-88.1149190000000004
11
60.2842059999999975
21
-88.0887299999999982
0
LINE
8
BLACK
6
CONTINUOUS
10
60.2842059999999975
20
-88.0887299999999982
11
60.284205
21
-88.088727999999989
0
LINE
8
BLACK
6
CONTINUOUS
10
60.284205
20
-88.088727999999989
11
60.2817480000000003
21
-88.0742339999999899
0
LINE
8
BLACK
6
CONTINUOUS
10
60.2817480000000003
20
-88.0742339999999899
11
59.3191079999999999
21
-74.307850000000002
0
LINE
8
BLACK
6
CONTINUOUS
10
59.3191079999999999
20
-74.307850000000002
11
59.3195249999999987
21
-74.2931529999999896
0
LINE
8
BLACK
6
CONTINUOUS
10
59.3195249999999987
20
-74.2931529999999896
11
59.3288099999999972
21
-74.2654019999999946
0
LINE
8
BLACK
6
CONTINUOUS
10
59.3288099999999972
20
-74.2654019999999946
11
59.3480080000000001
21
-74.2433169999999905
0
LINE
8
BLACK
6
CONTINUOUS
10
59.3480080000000001
20
-74.2433169999999905
11
59.3741969999999952
21
-74.2302589999999896
0
LINE
8
BLACK
6
CONTINUOUS
10
59.3741969999999952
20
-74.2302589999999896
11
59.3886929999999964
21
-74.2278009999999995
0
LINE
8
BLACK
6
CONTINUOUS
10
59.3886929999999964
20
-74.2278009999999995
11
73.1550769999999915
21
-73.265160999999992
0
LINE
8
BLACK
6
CONTINUOUS
10
73.1550769999999915
20
-73.265160999999992
11
73.1697739999999897
21
-73.2655779999999908
0
LINE
8
BLACK
6
CONTINUOUS
10
59.4739729999999938
20
-74.372202999999999
11
60.4261499999999998
21
-87.9889529999999951
0
LINE
8
BLACK
6
CONTINUOUS
10
60.4261499999999998
20
-87.9889529999999951
11
74.042900000000003
21
-87.036775999999989
0
LINE
8
BLACK
6
CONTINUOUS
10
74.042900000000003
20
-87.036775999999989
11
73.090722999999997
21
-73.4200259999999929
0
LINE
8
BLACK
6
CONTINUOUS
10
73.090722999999997
20
-73.4200259999999929
11
59.4739729999999938
21
-74.372202999999999
0
LINE
8
BLACK
6
CONTINUOUS
10
109.6536600000000021
20
-74.157000999999994
11
109.6806959999999975
21
-74.1681999999999988
0
LINE
8
BLACK
6
CONTINUOUS
10
109.6806959999999975
20
-74.1681999999999988
11
109.7013879999999943
21
-74.1888919999999956
0
LINE
8
BLACK
6
CONTINUOUS
10
109.7013879999999943
20
-74.1888919999999956
11
109.7125869999999992
21
-74.215927999999991
0
LINE
8
BLACK
6
CONTINUOUS
10
109.7125869999999992
20
-74.215927999999991
11
109.714027999999999
21
-74.230559999999997
0
LINE
8
BLACK
6
CONTINUOUS
10
109.714027999999999
20
-74.230559999999997
11
109.714027999999999
21
-88.0305599999999941
0
LINE
8
BLACK
6
CONTINUOUS
10
109.714027999999999
20
-88.0305599999999941
11
109.7125869999999992
21
-88.0451920000000001
0
LINE
8
BLACK
6
CONTINUOUS
10
109.7125869999999992
20
-88.0451920000000001
11
109.7013879999999943
21
-88.0722279999999955
0
LINE
8
BLACK
6
CONTINUOUS
10
109.7013879999999943
20
-88.0722279999999955
11
109.6806959999999975
21
-88.0929199999999923
0
LINE
8
BLACK
6
CONTINUOUS
10
109.6806959999999975
20
-88.0929199999999923
11
109.6536600000000021
21
-88.1041189999999972
0
LINE
8
BLACK
6
CONTINUOUS
10
109.6536600000000021
20
-88.1041189999999972
11
109.6390279999999962
21
-88.105559999999997
0
LINE
8
BLACK
6
CONTINUOUS
10
109.6390279999999962
20
-88.105559999999997
11
95.839027999999999
21
-88.105559999999997
0
LINE
8
BLACK
6
CONTINUOUS
10
95.839027999999999
20
-88.105559999999997
11
95.824395999999993
21
-88.1041189999999972
0
LINE
8
BLACK
6
CONTINUOUS
10
95.824395999999993
20
-88.1041189999999972
11
95.7973599999999976
21
-88.0929199999999923
0
LINE
8
BLACK
6
CONTINUOUS
10
95.7973599999999976
20
-88.0929199999999923
11
95.7766680000000008
21
-88.0722279999999955
0
LINE
8
BLACK
6
CONTINUOUS
10
95.7766680000000008
20
-88.0722279999999955
11
95.765468999999996
21
-88.0451920000000001
0
LINE
8
BLACK
6
CONTINUOUS
10
95.765468999999996
20
-88.0451920000000001
11
95.7640279999999962
21
-88.0305599999999941
0
LINE
8
BLACK
6
CONTINUOUS
10
95.7640279999999962
20
-88.0305599999999941
11
95.7640279999999962
21
-74.230559999999997
0
LINE
8
BLACK
6
CONTINUOUS
10
95.7640279999999962
20
-74.230559999999997
11
95.765468999999996
21
-74.215927999999991
0
LINE
8
BLACK
6
CONTINUOUS
10
95.765468999999996
20
-74.215927999999991
11
95.7766680000000008
21
-74.1888919999999956
0
LINE
8
BLACK
6
CONTINUOUS
10
95.7766680000000008
20
-74.1888919999999956
11
95.7973599999999976
21
-74.1681999999999988
0
LINE
8
BLACK
6
CONTINUOUS
10
95.7973599999999976
20
-74.1681999999999988
11
95.824395999999993
21
-74.157000999999994
0
LINE
8
BLACK
6
CONTINUOUS
10
95.824395999999993
20
-74.157000999999994
11
95.839027999999999
21
-74.1555599999999941
0
LINE
8
BLACK
6
CONTINUOUS
10
95.839027999999999
20
-74.1555599999999941
11
109.6390279999999962
21
-74.1555599999999941
0
LINE
8
BLACK
6
CONTINUOUS
10
109.6390279999999962
20
-74.1555599999999941
11
109.6536600000000021
21
-74.157000999999994
0
LINE
8
BLACK
6
CONTINUOUS
10
95.9140280000000018
20
-74.3055599999999998
11
95.9140280000000018
21
-87.9555599999999913
0
LINE
8
BLACK
6
CONTINUOUS
10
95.9140280000000018
20
-87.9555599999999913
11
109.5640279999999933
21
-87.9555599999999913
0
LINE
8
BLACK
6
CONTINUOUS
10
109.5640279999999933
20
-87.9555599999999913
11
109.5640279999999933
21
-74.3055599999999998
0
LINE
8
BLACK
6
CONTINUOUS
10
109.5640279999999933
20
-74.3055599999999998
11
95.9140280000000018
21
-74.3055599999999998
0
LINE
8
BLACK
6
CONTINUOUS
10
53.5391969999999944
20
-69.6947469999999925
11
53.5625669999999943
21
-69.7123579999999947
0
LINE
8
BLACK
6
CONTINUOUS
10
53.5625669999999943
20
-69.7123579999999947
11
53.5774199999999965
21
-69.7375720000000001
0
LINE
8
BLACK
6
CONTINUOUS
10
53.5774199999999965
20
-69.7375720000000001
11
53.580883
21
-69.751860999999991
0
LINE
8
BLACK
6
CONTINUOUS
10
53.580883
20
-69.751860999999991
11
55.5014709999999951
21
-83.4175599999999946
0
LINE
8
BLACK
6
CONTINUOUS
10
55.5014709999999951
20
-83.4175599999999946
11
55.5020809999999969
21
-83.4322509999999937
0
LINE
8
BLACK
6
CONTINUOUS
10
55.5020809999999969
20
-83.4322509999999937
11
55.4947529999999958
21
-83.4605820000000023
0
LINE
8
BLACK
6
CONTINUOUS
10
55.4947529999999958
20
-83.4605820000000023
11
55.4771420000000006
21
-83.4839529999999996
0
LINE
8
BLACK
6
CONTINUOUS
10
55.4771420000000006
20
-83.4839529999999996
11
55.4574519999999964
21
-83.4955509999999919
0
LINE
8
BLACK
6
CONTINUOUS
10
55.4574519999999964
20
-83.4955509999999919
11
55.4519279999999952
21
-83.4988049999999902
0
LINE
8
BLACK
6
CONTINUOUS
10
55.4519279999999952
20
-83.4988049999999902
11
55.4376389999999972
21
-83.5022680000000008
0
LINE
8
BLACK
6
CONTINUOUS
10
55.4376389999999972
20
-83.5022680000000008
11
41.7719400000000007
21
-85.4228569999999934
0
LINE
8
BLACK
6
CONTINUOUS
10
41.7719400000000007
20
-85.4228569999999934
11
41.7572499999999991
21
-85.4234670000000023
0
LINE
8
BLACK
6
CONTINUOUS
10
41.7572499999999991
20
-85.4234670000000023
11
41.7289180000000002
21
-85.4161390000000011
0
LINE
8
BLACK
6
CONTINUOUS
10
41.7289180000000002
20
-85.4161390000000011
11
41.7055480000000003
21
-85.3985289999999964
0
LINE
8
BLACK
6
CONTINUOUS
10
41.7055480000000003
20
-85.3985289999999964
11
41.6906949999999981
21
-85.3733139999999935
0
LINE
8
BLACK
6
CONTINUOUS
10
41.6906949999999981
20
-85.3733139999999935
11
41.6872320000000016
21
-85.3590250000000026
0
LINE
8
BLACK
6
CONTINUOUS
10
41.6872320000000016
20
-85.3590250000000026
11
39.7666429999999949
21
-71.693325999999999
0
LINE
8
BLACK
6
CONTINUOUS
10
39.7666429999999949
20
-71.693325999999999
11
39.7660330000000002
21
-71.6786359999999974
0
LINE
8
BLACK
6
CONTINUOUS
10
39.7660330000000002
20
-71.6786359999999974
11
39.7733610000000013
21
-71.6503039999999913
0
LINE
8
BLACK
6
CONTINUOUS
10
39.7733610000000013
20
-71.6503039999999913
11
39.7909719999999965
21
-71.6269339999999914
0
LINE
8
BLACK
6
CONTINUOUS
10
39.7909719999999965
20
-71.6269339999999914
11
39.8161859999999947
21
-71.6120810000000034
0
LINE
8
BLACK
6
CONTINUOUS
10
39.8161859999999947
20
-71.6120810000000034
11
39.8304749999999999
21
-71.6086179999999928
0
LINE
8
BLACK
6
CONTINUOUS
10
39.8304749999999999
20
-71.6086179999999928
11
53.4961750000000009
21
-69.6880290000000002
0
LINE
8
BLACK
6
CONTINUOUS
10
53.4961750000000009
20
-69.6880290000000002
11
53.5108649999999955
21
-69.6874189999999913
0
LINE
8
BLACK
6
CONTINUOUS
10
53.5108649999999955
20
-69.6874189999999913
11
53.5391969999999944
21
-69.6947469999999925
0
LINE
8
BLACK
6
CONTINUOUS
10
39.925619999999995
20
-71.7467199999999963
11
41.825333999999998
21
-85.2638790000000029
0
LINE
8
BLACK
6
CONTINUOUS
10
41.825333999999998
20
-85.2638790000000029
11
55.3424929999999975
21
-83.3641649999999998
0
LINE
8
BLACK
6
CONTINUOUS
10
55.3424929999999975
20
-83.3641649999999998
11
53.4427799999999991
21
-69.8470059999999933
0
LINE
8
BLACK
6
CONTINUOUS
10
53.4427799999999991
20
-69.8470059999999933
11
39.925619999999995
21
-71.7467199999999963
0
LINE
8
BLACK
6
CONTINUOUS
10
91.6536600000000021
20
-65.657000999999994
11
91.6806959999999975
21
-65.6681999999999988
0
LINE
8
BLACK
6
CONTINUOUS
10
91.6806959999999975
20
-65.6681999999999988
11
91.7013879999999943
21
-65.6888919999999956
0
LINE
8
BLACK
6
CONTINUOUS
10
91.7013879999999943
20
-65.6888919999999956
11
91.7125869999999992
21
-65.715927999999991
0
LINE
8
BLACK
6
CONTINUOUS
10
91.7125869999999992
20
-65.715927999999991
11
91.714027999999999
21
-65.730559999999997
0
LINE
8
BLACK
6
CONTINUOUS
10
91.714027999999999
20
-65.730559999999997
11
91.714027999999999
21
-79.5305599999999941
0
LINE
8
BLACK
6
CONTINUOUS
10
91.714027999999999
20
-79.5305599999999941
11
91.7125869999999992
21
-79.5451920000000001
0
LINE
8
BLACK
6
CONTINUOUS
10
91.7125869999999992
20
-79.5451920000000001
11
91.7013879999999943
21
-79.5722279999999955
0
LINE
8
BLACK
6
CONTINUOUS
10
91.7013879999999943
20
-79.5722279999999955
11
91.6806959999999975
21
-79.5929199999999923
0
LINE
8
BLACK
6
CONTINUOUS
10
91.6806959999999975
20
-79.5929199999999923
11
91.6536600000000021
21
-79.6041189999999972
0
LINE
8
BLACK
6
CONTINUOUS
10
91.6536600000000021
20
-79.6041189999999972
11
91.6390279999999962
21
-79.605559999999997
0
LINE
8
BLACK
6
CONTINUOUS
10
91.6390279999999962
20
-79.605559999999997
11
77.839027999999999
21
-79.605559999999997
0
LINE
8
BLACK
6
CONTINUOUS
10
77.839027999999999
20
-79.605559999999997
11
77.824395999999993
21
-79.6041189999999972
0
LINE
8
BLACK
6
CONTINUOUS
10
77.824395999999993
20
-79.6041189999999972
11
77.7973599999999976
21
-79.5929199999999923
0
LINE
8
BLACK
6
CONTINUOUS
10
77.7973599999999976
20
-79.5929199999999923
11
77.7766680000000008
21
-79.5722279999999955
0
LINE
8
BLACK
6
CONTINUOUS
10
77.7766680000000008
20
-79.5722279999999955
11
77.765468999999996
21
-79.5451920000000001
0
LINE
8
BLACK
6
CONTINUOUS
10
77.765468999999996
20
-79.5451920000000001
11
77.7640279999999962
21
-79.5305599999999941
0
LINE
8
BLACK
6
CONTINUOUS
10
77.7640279999999962
20
-79.5305599999999941
11
77.7640279999999962
21
-65.730559999999997
0
LINE
8
BLACK
6
CONTINUOUS
10
77.7640279999999962
20
-65.730559999999997
11
77.765468999999996
21
-65.715927999999991
0
LINE
8
BLACK
6
CONTINUOUS
10
77.765468999999996
20
-65.715927999999991
11
77.7766680000000008
21
-65.6888919999999956
0
LINE
8
BLACK
6
CONTINUOUS
10
77.7766680000000008
20
-65.6888919999999956
11
77.7973599999999976
21
-65.6681999999999988
0
LINE
8
BLACK
6
CONTINUOUS
10
77.7973599999999976
20
-65.6681999999999988
11
77.824395999999993
21
-65.657000999999994
0
LINE
8
BLACK
6
CONTINUOUS
10
77.824395999999993
20
-65.657000999999994
11
77.839027999999999
21
-65.6555599999999941
0
LINE
8
BLACK
6
CONTINUOUS
10
77.839027999999999
20
-65.6555599999999941
11
91.6390279999999962
21
-65.6555599999999941
0
LINE
8
BLACK
6
CONTINUOUS
10
91.6390279999999962
20
-65.6555599999999941
11
91.6536600000000021
21
-65.657000999999994
0
LINE
8
BLACK
6
CONTINUOUS
10
77.9140280000000018
20
-65.8055599999999998
11
77.9140280000000018
21
-79.4555599999999913
0
LINE
8
BLACK
6
CONTINUOUS
10
77.9140280000000018
20
-79.4555599999999913
11
91.5640279999999933
21
-79.4555599999999913
0
LINE
8
BLACK
6
CONTINUOUS
10
91.5640279999999933
20
-79.4555599999999913
11
91.5640279999999933
21
-65.8055599999999998
0
LINE
8
BLACK
6
CONTINUOUS
10
91.5640279999999933
20
-65.8055599999999998
11
77.9140280000000018
21
-65.8055599999999998
0
LINE
8
BLACK
6
CONTINUOUS
10
127.6536599999999879
20
-59.7070009999999982
11
127.6806959999999975
21
-59.718199999999996
0
LINE
8
BLACK
6
CONTINUOUS
10
127.6806959999999975
20
-59.718199999999996
11
127.7013879999999943
21
-59.7388919999999999
0
LINE
8
BLACK
6
CONTINUOUS
10
127.7013879999999943
20
-59.7388919999999999
11
127.7125869999999992
21
-59.7659279999999953
0
LINE
8
BLACK
6
CONTINUOUS
10
127.7125869999999992
20
-59.7659279999999953
11
127.714027999999999
21
-59.7805599999999941
0
LINE
8
BLACK
6
CONTINUOUS
10
127.714027999999999
20
-59.7805599999999941
11
127.714027999999999
21
-73.5805599999999913
0
LINE
8
BLACK
6
CONTINUOUS
10
127.714027999999999
20
-73.5805599999999913
11
127.7125869999999992
21
-73.5951919999999973
0
LINE
8
BLACK
6
CONTINUOUS
10
127.7125869999999992
20
-73.5951919999999973
11
127.7013879999999943
21
-73.6222279999999927
0
LINE
8
BLACK
6
CONTINUOUS
10
127.7013879999999943
20
-73.6222279999999927
11
127.6806959999999975
21
-73.6429200000000037
0
LINE
8
BLACK
6
CONTINUOUS
10
127.6806959999999975
20
-73.6429200000000037
11
127.6536599999999879
21
-73.6541189999999943
0
LINE
8
BLACK
6
CONTINUOUS
10
127.6536599999999879
20
-73.6541189999999943
11
127.6390279999999962
21
-73.6555599999999941
0
LINE
8
BLACK
6
CONTINUOUS
10
127.6390279999999962
20
-73.6555599999999941
11
113.839027999999999
21
-73.6555599999999941
0
LINE
8
BLACK
6
CONTINUOUS
10
113.839027999999999
20
-73.6555599999999941
11
113.824395999999993
21
-73.6541189999999943
0
LINE
8
BLACK
6
CONTINUOUS
10
113.824395999999993
20
-73.6541189999999943
11
113.7973599999999976
21
-73.6429200000000037
0
LINE
8
BLACK
6
CONTINUOUS
10
113.7973599999999976
20
-73.6429200000000037
11
113.7766680000000008
21
-73.6222279999999927
0
LINE
8
BLACK
6
CONTINUOUS
10
113.7766680000000008
20
-73.6222279999999927
11
113.765468999999996
21
-73.5951919999999973
0
LINE
8
BLACK
6
CONTINUOUS
10
113.765468999999996
20
-73.5951919999999973
11
113.7640279999999962
21
-73.5805599999999913
0
LINE
8
BLACK
6
CONTINUOUS
10
113.7640279999999962
20
-73.5805599999999913
11
113.7640279999999962
21
-59.7805599999999941
0
LINE
8
BLACK
6
CONTINUOUS
10
113.7640279999999962
20
-59.7805599999999941
11
113.765468999999996
21
-59.7659279999999953
0
LINE
8
BLACK
6
CONTINUOUS
10
113.765468999999996
20
-59.7659279999999953
11
113.7766680000000008
21
-59.7388919999999999
0
LINE
8
BLACK
6
CONTINUOUS
10
113.7766680000000008
20
-59.7388919999999999
11
113.7973599999999976
21
-59.718199999999996
0
LINE
8
BLACK
6
CONTINUOUS
10
113.7973599999999976
20
-59.718199999999996
11
113.824395999999993
21
-59.7070009999999982
0
LINE
8
BLACK
6
CONTINUOUS
10
113.824395999999993
20
-59.7070009999999982
11
113.839027999999999
21
-59.7055599999999984
0
LINE
8
BLACK
6
CONTINUOUS
10
113.839027999999999
20
-59.7055599999999984
11
127.6390279999999962
21
-59.7055599999999984
0
LINE
8
BLACK
6
CONTINUOUS
10
127.6390279999999962
20
-59.7055599999999984
11
127.6536599999999879
21
-59.7070009999999982
0
LINE
8
BLACK
6
CONTINUOUS
10
113.9140280000000018
20
-59.855559999999997
11
113.9140280000000018
21
-73.5055600000000027
0
LINE
8
BLACK
6
CONTINUOUS
10
113.9140280000000018
20
-73.5055600000000027
11
127.5640279999999933
21
-73.5055600000000027
0
LINE
8
BLACK
6
CONTINUOUS
10
127.5640279999999933
20
-73.5055600000000027
11
127.5640279999999933
21
-59.855559999999997
0
LINE
8
BLACK
6
CONTINUOUS
10
127.5640279999999933
20
-59.855559999999997
11
113.9140280000000018
21
-59.855559999999997
0
LINE
8
BLACK
6
CONTINUOUS
10
71.9839139999999986
20
-56.3069889999999944
11
72.0116649999999936
21
-56.3162739999999999
0
LINE
8
BLACK
6
CONTINUOUS
10
72.0116649999999936
20
-56.3162739999999999
11
72.0337499999999977
21
-56.3354719999999958
0
LINE
8
BLACK
6
CONTINUOUS
10
72.0337499999999977
20
-56.3354719999999958
11
72.0468079999999986
21
-56.361660999999998
0
LINE
8
BLACK
6
CONTINUOUS
10
72.0468079999999986
20
-56.361660999999998
11
72.0492660000000029
21
-56.3761569999999992
0
LINE
8
BLACK
6
CONTINUOUS
10
72.0492660000000029
20
-56.3761569999999992
11
73.0119059999999962
21
-70.1425409999999943
0
LINE
8
BLACK
6
CONTINUOUS
10
73.0119059999999962
20
-70.1425409999999943
11
73.0114889999999974
21
-70.1572379999999924
0
LINE
8
BLACK
6
CONTINUOUS
10
73.0114889999999974
20
-70.1572379999999924
11
73.0022039999999919
21
-70.1849890000000016
0
LINE
8
BLACK
6
CONTINUOUS
10
73.0022039999999919
20
-70.1849890000000016
11
72.9830060000000032
21
-70.2070739999999915
0
LINE
8
BLACK
6
CONTINUOUS
10
72.9830060000000032
20
-70.2070739999999915
11
72.9568170000000009
21
-70.2201319999999924
0
LINE
8
BLACK
6
CONTINUOUS
10
72.9568170000000009
20
-70.2201319999999924
11
72.9568149999999918
21
-70.2201319999999924
0
LINE
8
BLACK
6
CONTINUOUS
10
72.9568149999999918
20
-70.2201319999999924
11
72.9423209999999926
21
-70.2225899999999967
0
LINE
8
BLACK
6
CONTINUOUS
10
72.9423209999999926
20
-70.2225899999999967
11
59.1759369999999976
21
-71.18522999999999
0
LINE
8
BLACK
6
CONTINUOUS
10
59.1759369999999976
20
-71.18522999999999
11
59.1612399999999994
21
-71.1848129999999912
0
LINE
8
BLACK
6
CONTINUOUS
10
59.1612399999999994
20
-71.1848129999999912
11
59.1334889999999973
21
-71.1755279999999999
0
LINE
8
BLACK
6
CONTINUOUS
10
59.1334889999999973
20
-71.1755279999999999
11
59.1114040000000003
21
-71.156329999999997
0
LINE
8
BLACK
6
CONTINUOUS
10
59.1114040000000003
20
-71.156329999999997
11
59.0983459999999994
21
-71.1301409999999947
0
LINE
8
BLACK
6
CONTINUOUS
10
59.0983459999999994
20
-71.1301409999999947
11
59.0983449999999948
21
-71.1301389999999998
0
LINE
8
BLACK
6
CONTINUOUS
10
59.0983449999999948
20
-71.1301389999999998
11
59.0958879999999951
21
-71.1156450000000007
0
LINE
8
BLACK
6
CONTINUOUS
10
59.0958879999999951
20
-71.1156450000000007
11
58.1332479999999947
21
-57.3492609999999985
0
LINE
8
BLACK
6
CONTINUOUS
10
58.1332479999999947
20
-57.3492609999999985
11
58.1336650000000006
21
-57.3345640000000003
0
LINE
8
BLACK
6
CONTINUOUS
10
58.1336650000000006
20
-57.3345640000000003
11
58.142949999999999
21
-57.3068129999999982
0
LINE
8
BLACK
6
CONTINUOUS
10
58.142949999999999
20
-57.3068129999999982
11
58.1621479999999949
21
-57.2847279999999941
0
LINE
8
BLACK
6
CONTINUOUS
10
58.1621479999999949
20
-57.2847279999999941
11
58.1883369999999971
21
-57.2716700000000003
0
LINE
8
BLACK
6
CONTINUOUS
10
58.1883369999999971
20
-57.2716700000000003
11
58.2028329999999983
21
-57.269211999999996
0
LINE
8
BLACK
6
CONTINUOUS
10
58.2028329999999983
20
-57.269211999999996
11
71.9692170000000004
21
-56.3065719999999956
0
LINE
8
BLACK
6
CONTINUOUS
10
71.9692170000000004
20
-56.3065719999999956
11
71.9839139999999986
21
-56.3069889999999944
0
LINE
8
BLACK
6
CONTINUOUS
10
58.2881129999999956
20
-57.4136139999999955
11
59.2402899999999946
21
-71.0303639999999916
0
LINE
8
BLACK
6
CONTINUOUS
10
59.2402899999999946
20
-71.0303639999999916
11
72.8570399999999978
21
-70.0781869999999998
0
LINE
8
BLACK
6
CONTINUOUS
10
72.8570399999999978
20
-70.0781869999999998
11
71.9048629999999918
21
-56.4614369999999965
0
LINE
8
BLACK
6
CONTINUOUS
10
71.9048629999999918
20
-56.4614369999999965
11
58.2881129999999956
21
-57.4136139999999955
0
LINE
8
BLACK
6
CONTINUOUS
10
109.6536600000000021
20
-57.157000999999994
11
109.6806959999999975
21
-57.1681999999999988
0
LINE
8
BLACK
6
CONTINUOUS
10
109.6806959999999975
20
-57.1681999999999988
11
109.7013879999999943
21
-57.1888919999999956
0
LINE
8
BLACK
6
CONTINUOUS
10
109.7013879999999943
20
-57.1888919999999956
11
109.7125869999999992
21
-57.2159279999999981
0
LINE
8
BLACK
6
CONTINUOUS
10
109.7125869999999992
20
-57.2159279999999981
11
109.714027999999999
21
-57.230559999999997
0
LINE
8
BLACK
6
CONTINUOUS
10
109.714027999999999
20
-57.230559999999997
11
109.714027999999999
21
-71.0305599999999941
0
LINE
8
BLACK
6
CONTINUOUS
10
109.714027999999999
20
-71.0305599999999941
11
109.7125869999999992
21
-71.0451920000000001
0
LINE
8
BLACK
6
CONTINUOUS
10
109.7125869999999992
20
-71.0451920000000001
11
109.7013879999999943
21
-71.0722279999999955
0
LINE
8
BLACK
6
CONTINUOUS
10
109.7013879999999943
20
-71.0722279999999955
11
109.6806959999999975
21
-71.0929199999999923
0
LINE
8
BLACK
6
CONTINUOUS
10
109.6806959999999975
20
-71.0929199999999923
11
109.6536600000000021
21
-71.1041189999999972
0
LINE
8
BLACK
6
CONTINUOUS
10
109.6536600000000021
20
-71.1041189999999972
11
109.6390279999999962
21
-71.105559999999997
0
LINE
8
BLACK
6
CONTINUOUS
10
109.6390279999999962
20
-71.105559999999997
11
95.839027999999999
21
-71.105559999999997
0
LINE
8
BLACK
6
CONTINUOUS
10
95.839027999999999
20
-71.105559999999997
11
95.824395999999993
21
-71.1041189999999972
0
LINE
8
BLACK
6
CONTINUOUS
10
95.824395999999993
20
-71.1041189999999972
11
95.7973599999999976
21
-71.0929199999999923
0
LINE
8
BLACK
6
CONTINUOUS
10
95.7973599999999976
20
-71.0929199999999923
11
95.7766680000000008
21
-71.0722279999999955
0
LINE
8
BLACK
6
CONTINUOUS
10
95.7766680000000008
20
-71.0722279999999955
11
95.765468999999996
21
-71.0451920000000001
0
LINE
8
BLACK
6
CONTINUOUS
10
95.765468999999996
20
-71.0451920000000001
11
95.7640279999999962
21
-71.0305599999999941
0
LINE
8
BLACK
6
CONTINUOUS
10
95.7640279999999962
20
-71.0305599999999941
11
95.7640279999999962
21
-57.230559999999997
0
LINE
8
BLACK
6
CONTINUOUS
10
95.7640279999999962
20
-57.230559999999997
11
95.765468999999996
21
-57.2159279999999981
0
LINE
8
BLACK
6
CONTINUOUS
10
95.765468999999996
20
-57.2159279999999981
11
95.7766680000000008
21
-57.1888919999999956
0
LINE
8
BLACK
6
CONTINUOUS
10
95.7766680000000008
20
-57.1888919999999956
11
95.7973599999999976
21
-57.1681999999999988
0
LINE
8
BLACK
6
CONTINUOUS
10
95.7973599999999976
20
-57.1681999999999988
11
95.824395999999993
21
-57.157000999999994
0
LINE
8
BLACK
6
CONTINUOUS
10
95.824395999999993
20
-57.157000999999994
11
95.839027999999999
21
-57.1555599999999941
0
LINE
8
BLACK
6
CONTINUOUS
10
95.839027999999999
20
-57.1555599999999941
11
109.6390279999999962
21
-57.1555599999999941
0
LINE
8
BLACK
6
CONTINUOUS
10
109.6390279999999962
20
-57.1555599999999941
11
109.6536600000000021
21
-57.157000999999994
0
LINE
8
BLACK
6
CONTINUOUS
10
95.9140280000000018
20
-57.3055599999999998
11
95.9140280000000018
21
-70.9555599999999913
0
LINE
8
BLACK
6
CONTINUOUS
10
95.9140280000000018
20
-70.9555599999999913
11
109.5640279999999933
21
-70.9555599999999913
0
LINE
8
BLACK
6
CONTINUOUS
10
109.5640279999999933
20
-70.9555599999999913
11
109.5640279999999933
21
-57.3055599999999998
0
LINE
8
BLACK
6
CONTINUOUS
10
109.5640279999999933
20
-57.3055599999999998
11
95.9140280000000018
21
-57.3055599999999998
0
LINE
8
BLACK
6
CONTINUOUS
10
51.173254
20
-52.8601899999999958
11
51.1966249999999974
21
-52.8778009999999981
0
LINE
8
BLACK
6
CONTINUOUS
10
51.1966249999999974
20
-52.8778009999999981
11
51.2068489999999983
21
-52.895157999999995
0
LINE
8
BLACK
6
CONTINUOUS
10
51.2068489999999983
20
-52.895157999999995
11
51.211476999999995
21
-52.9030149999999963
0
LINE
8
BLACK
6
CONTINUOUS
10
51.211476999999995
20
-52.9030149999999963
11
51.2149399999999986
21
-52.9173039999999943
0
LINE
8
BLACK
6
CONTINUOUS
10
51.2149399999999986
20
-52.9173039999999943
11
53.1355289999999982
21
-66.5830029999999908
0
LINE
8
BLACK
6
CONTINUOUS
10
53.1355289999999982
20
-66.5830029999999908
11
53.136139
21
-66.5976929999999925
0
LINE
8
BLACK
6
CONTINUOUS
10
53.136139
20
-66.5976929999999925
11
53.1288119999999964
21
-66.6260249999999985
0
LINE
8
BLACK
6
CONTINUOUS
10
53.1288119999999964
20
-66.6260249999999985
11
53.1112009999999941
21
-66.6493949999999984
0
LINE
8
BLACK
6
CONTINUOUS
10
53.1112009999999941
20
-66.6493949999999984
11
53.0859859999999983
21
-66.6642480000000006
0
LINE
8
BLACK
6
CONTINUOUS
10
53.0859859999999983
20
-66.6642480000000006
11
53.0716970000000003
21
-66.6677109999999971
0
LINE
8
BLACK
6
CONTINUOUS
10
53.0716970000000003
20
-66.6677109999999971
11
39.4059969999999993
21
-68.5883000000000038
0
LINE
8
BLACK
6
CONTINUOUS
10
39.4059969999999993
20
-68.5883000000000038
11
39.3913069999999976
21
-68.5889099999999985
0
LINE
8
BLACK
6
CONTINUOUS
10
39.3913069999999976
20
-68.5889099999999985
11
39.3629749999999987
21
-68.5815829999999949
0
LINE
8
BLACK
6
CONTINUOUS
10
39.3629749999999987
20
-68.5815829999999949
11
39.3396049999999988
21
-68.5639719999999926
0
LINE
8
BLACK
6
CONTINUOUS
10
39.3396049999999988
20
-68.5639719999999926
11
39.3247519999999966
21
-68.5387570000000039
0
LINE
8
BLACK
6
CONTINUOUS
10
39.3247519999999966
20
-68.5387570000000039
11
39.3212890000000002
21
-68.5244679999999988
0
LINE
8
BLACK
6
CONTINUOUS
10
39.3212890000000002
20
-68.5244679999999988
11
37.400700999999998
21
-54.8587679999999978
0
LINE
8
BLACK
6
CONTINUOUS
10
37.400700999999998
20
-54.8587679999999978
11
37.4000909999999962
21
-54.8440779999999961
0
LINE
8
BLACK
6
CONTINUOUS
10
37.4000909999999962
20
-54.8440779999999961
11
37.4074189999999973
21
-54.8157459999999972
0
LINE
8
BLACK
6
CONTINUOUS
10
37.4074189999999973
20
-54.8157459999999972
11
37.4250299999999996
21
-54.7923759999999973
0
LINE
8
BLACK
6
CONTINUOUS
10
37.4250299999999996
20
-54.7923759999999973
11
37.4502439999999979
21
-54.7775229999999951
0
LINE
8
BLACK
6
CONTINUOUS
10
37.4502439999999979
20
-54.7775229999999951
11
37.4645329999999959
21
-54.7740599999999986
0
LINE
8
BLACK
6
CONTINUOUS
10
37.4645329999999959
20
-54.7740599999999986
11
51.1302319999999995
21
-52.8534719999999965
0
LINE
8
BLACK
6
CONTINUOUS
10
51.1302319999999995
20
-52.8534719999999965
11
51.1449209999999965
21
-52.8528619999999947
0
LINE
8
BLACK
6
CONTINUOUS
10
51.1449209999999965
20
-52.8528619999999947
11
51.1449220000000011
21
-52.8528619999999947
0
LINE
8
BLACK
6
CONTINUOUS
10
51.1449220000000011
20
-52.8528619999999947
11
51.1449229999999986
21
-52.8528619999999947
0
LINE
8
BLACK
6
CONTINUOUS
10
51.1449229999999986
20
-52.8528619999999947
11
51.173254
21
-52.8601899999999958
0
LINE
8
BLACK
6
CONTINUOUS
10
37.5596779999999981
20
-54.912161999999995
11
39.4593909999999966
21
-68.4293219999999991
0
LINE
8
BLACK
6
CONTINUOUS
10
39.4593909999999966
20
-68.4293219999999991
11
52.9765510000000006
21
-66.5296079999999961
0
LINE
8
BLACK
6
CONTINUOUS
10
52.9765510000000006
20
-66.5296079999999961
11
51.0768369999999976
21
-53.0124489999999966
0
LINE
8
BLACK
6
CONTINUOUS
10
51.0768369999999976
20
-53.0124489999999966
11
37.5596779999999981
21
-54.912161999999995
0
LINE
8
BLACK
6
CONTINUOUS
10
91.6536600000000021
20
-48.6570010000000011
11
91.6806959999999975
21
-48.6681999999999988
0
LINE
8
BLACK
6
CONTINUOUS
10
91.6806959999999975
20
-48.6681999999999988
11
91.7013879999999943
21
-48.6888919999999956
0
LINE
8
BLACK
6
CONTINUOUS
10
91.7013879999999943
20
-48.6888919999999956
11
91.7125869999999992
21
-48.7159279999999981
0
LINE
8
BLACK
6
CONTINUOUS
10
91.7125869999999992
20
-48.7159279999999981
11
91.714027999999999
21
-48.730559999999997
0
LINE
8
BLACK
6
CONTINUOUS
10
91.714027999999999
20
-48.730559999999997
11
91.714027999999999
21
-62.5305599999999941
0
LINE
8
BLACK
6
CONTINUOUS
10
91.714027999999999
20
-62.5305599999999941
11
91.7125869999999992
21
-62.5451920000000001
0
LINE
8
BLACK
6
CONTINUOUS
10
91.7125869999999992
20
-62.5451920000000001
11
91.7013879999999943
21
-62.5722279999999955
0
LINE
8
BLACK
6
CONTINUOUS
10
91.7013879999999943
20
-62.5722279999999955
11
91.6806959999999975
21
-62.5929199999999994
0
LINE
8
BLACK
6
CONTINUOUS
10
91.6806959999999975
20
-62.5929199999999994
11
91.6536600000000021
21
-62.6041189999999972
0
LINE
8
BLACK
6
CONTINUOUS
10
91.6536600000000021
20
-62.6041189999999972
11
91.6390279999999962
21
-62.605559999999997
0
LINE
8
BLACK
6
CONTINUOUS
10
91.6390279999999962
20
-62.605559999999997
11
77.839027999999999
21
-62.605559999999997
0
LINE
8
BLACK
6
CONTINUOUS
10
77.839027999999999
20
-62.605559999999997
11
77.824395999999993
21
-62.6041189999999972
0
LINE
8
BLACK
6
CONTINUOUS
10
77.824395999999993
20
-62.6041189999999972
11
77.7973599999999976
21
-62.5929199999999994
0
LINE
8
BLACK
6
CONTINUOUS
10
77.7973599999999976
20
-62.5929199999999994
11
77.7766680000000008
21
-62.5722279999999955
0
LINE
8
BLACK
6
CONTINUOUS
10
77.7766680000000008
20
-62.5722279999999955
11
77.765468999999996
21
-62.5451920000000001
0
LINE
8
BLACK
6
CONTINUOUS
10
77.765468999999996
20
-62.5451920000000001
11
77.7640279999999962
21
-62.5305599999999941
0
LINE
8
BLACK
6
CONTINUOUS
10
77.7640279999999962
20
-62.5305599999999941
11
77.7640279999999962
21
-48.730559999999997
0
LINE
8
BLACK
6
CONTINUOUS
10
77.7640279999999962
20
-48.730559999999997
11
77.765468999999996
21
-48.7159279999999981
0
LINE
8
BLACK
6
CONTINUOUS
10
77.765468999999996
20
-48.7159279999999981
11
77.7766680000000008
21
-48.6888919999999956
0
LINE
8
BLACK
6
CONTINUOUS
10
77.7766680000000008
20
-48.6888919999999956
11
77.7973599999999976
21
-48.6681999999999988
0
LINE
8
BLACK
6
CONTINUOUS
10
77.7973599999999976
20
-48.6681999999999988
11
77.824395999999993
21
-48.6570010000000011
0
LINE
8
BLACK
6
CONTINUOUS
10
77.824395999999993
20
-48.6570010000000011
11
77.839027999999999
21
-48.6555600000000013
0
LINE
8
BLACK
6
CONTINUOUS
10
77.839027999999999
20
-48.6555600000000013
11
91.6390279999999962
21
-48.6555600000000013
0
LINE
8
BLACK
6
CONTINUOUS
10
91.6390279999999962
20
-48.6555600000000013
11
91.6536600000000021
21
-48.6570010000000011
0
LINE
8
BLACK
6
CONTINUOUS
10
77.9140280000000018
20
-48.8055599999999998
11
77.9140280000000018
21
-62.4555599999999984
0
LINE
8
BLACK
6
CONTINUOUS
10
77.9140280000000018
20
-62.4555599999999984
11
91.5640279999999933
21
-62.4555599999999984
0
LINE
8
BLACK
6
CONTINUOUS
10
91.5640279999999933
20
-62.4555599999999984
11
91.5640279999999933
21
-48.8055599999999998
0
LINE
8
BLACK
6
CONTINUOUS
10
91.5640279999999933
20
-48.8055599999999998
11
77.9140280000000018
21
-48.8055599999999998
0
LINE
8
BLACK
6
CONTINUOUS
10
127.6536599999999879
20
-42.7070009999999982
11
127.6806959999999975
21
-42.718199999999996
0
LINE
8
BLACK
6
CONTINUOUS
10
127.6806959999999975
20
-42.718199999999996
11
127.7013879999999943
21
-42.7388919999999999
0
LINE
8
BLACK
6
CONTINUOUS
10
127.7013879999999943
20
-42.7388919999999999
11
127.7125869999999992
21
-42.7659279999999953
0
LINE
8
BLACK
6
CONTINUOUS
10
127.7125869999999992
20
-42.7659279999999953
11
127.714027999999999
21
-42.7805600000000013
0
LINE
8
BLACK
6
CONTINUOUS
10
127.714027999999999
20
-42.7805600000000013
11
127.714027999999999
21
-56.5805599999999984
0
LINE
8
BLACK
6
CONTINUOUS
10
127.714027999999999
20
-56.5805599999999984
11
127.7125869999999992
21
-56.5951919999999973
0
LINE
8
BLACK
6
CONTINUOUS
10
127.7125869999999992
20
-56.5951919999999973
11
127.7013879999999943
21
-56.6222279999999998
0
LINE
8
BLACK
6
CONTINUOUS
10
127.7013879999999943
20
-56.6222279999999998
11
127.6806959999999975
21
-56.6429199999999966
0
LINE
8
BLACK
6
CONTINUOUS
10
127.6806959999999975
20
-56.6429199999999966
11
127.6536599999999879
21
-56.6541189999999943
0
LINE
8
BLACK
6
CONTINUOUS
10
127.6536599999999879
20
-56.6541189999999943
11
127.6390279999999962
21
-56.6555599999999941
0
LINE
8
BLACK
6
CONTINUOUS
10
127.6390279999999962
20
-56.6555599999999941
11
113.839027999999999
21
-56.6555599999999941
0
LINE
8
BLACK
6
CONTINUOUS
10
113.839027999999999
20
-56.6555599999999941
11
113.824395999999993
21
-56.6541189999999943
0
LINE
8
BLACK
6
CONTINUOUS
10
113.824395999999993
20
-56.6541189999999943
11
113.7973599999999976
21
-56.6429199999999966
0
LINE
8
BLACK
6
CONTINUOUS
10
113.7973599999999976
20
-56.6429199999999966
11
113.7766680000000008
21
-56.6222279999999998
0
LINE
8
BLACK
6
CONTINUOUS
10
113.7766680000000008
20
-56.6222279999999998
11
113.765468999999996
21
-56.5951919999999973
0
LINE
8
BLACK
6
CONTINUOUS
10
113.765468999999996
20
-56.5951919999999973
11
113.7640279999999962
21
-56.5805599999999984
0
LINE
8
BLACK
6
CONTINUOUS
10
113.7640279999999962
20
-56.5805599999999984
11
113.7640279999999962
21
-42.7805600000000013
0
LINE
8
BLACK
6
CONTINUOUS
10
113.7640279999999962
20
-42.7805600000000013
11
113.765468999999996
21
-42.7659279999999953
0
LINE
8
BLACK
6
CONTINUOUS
10
113.765468999999996
20
-42.7659279999999953
11
113.7766680000000008
21
-42.7388919999999999
0
LINE
8
BLACK
6
CONTINUOUS
10
113.7766680000000008
20
-42.7388919999999999
11
113.7973599999999976
21
-42.718199999999996
0
LINE
8
BLACK
6
CONTINUOUS
10
113.7973599999999976
20
-42.718199999999996
11
113.824395999999993
21
-42.7070009999999982
0
LINE
8
BLACK
6
CONTINUOUS
10
113.824395999999993
20
-42.7070009999999982
11
113.839027999999999
21
-42.7055599999999984
0
LINE
8
BLACK
6
CONTINUOUS
10
113.839027999999999
20
-42.7055599999999984
11
127.6390279999999962
21
-42.7055599999999984
0
LINE
8
BLACK
6
CONTINUOUS
10
127.6390279999999962
20
-42.7055599999999984
11
127.6536599999999879
21
-42.7070009999999982
0
LINE
8
BLACK
6
CONTINUOUS
10
113.9140280000000018
20
-42.855559999999997
11
113.9140280000000018
21
-56.5055599999999956
0
LINE
8
BLACK
6
CONTINUOUS
10
113.9140280000000018
20
-56.5055599999999956
11
127.5640279999999933
21
-56.5055599999999956
0
LINE
8
BLACK
6
CONTINUOUS
10
127.5640279999999933
20
-56.5055599999999956
11
127.5640279999999933
21
-42.855559999999997
0
LINE
8
BLACK
6
CONTINUOUS
10
127.5640279999999933
20
-42.855559999999997
11
113.9140280000000018
21
-42.855559999999997
0
LINE
8
BLACK
6
CONTINUOUS
10
70.7980539999999934
20
-39.3484009999999955
11
70.8258050000000026
21
-39.3576860000000011
0
LINE
8
BLACK
6
CONTINUOUS
10
70.8258050000000026
20
-39.3576860000000011
11
70.8478899999999925
21
-39.3768839999999969
0
LINE
8
BLACK
6
CONTINUOUS
10
70.8478899999999925
20
-39.3768839999999969
11
70.8609479999999934
21
-39.4030729999999991
0
LINE
8
BLACK
6
CONTINUOUS
10
70.8609479999999934
20
-39.4030729999999991
11
70.8634059999999977
21
-39.4175690000000003
0
LINE
8
BLACK
6
CONTINUOUS
10
70.8634059999999977
20
-39.4175690000000003
11
71.826045999999991
21
-53.1839519999999979
0
LINE
8
BLACK
6
CONTINUOUS
10
71.826045999999991
20
-53.1839519999999979
11
71.8256289999999922
21
-53.1986489999999961
0
LINE
8
BLACK
6
CONTINUOUS
10
71.8256289999999922
20
-53.1986489999999961
11
71.8163440000000008
21
-53.2263999999999982
0
LINE
8
BLACK
6
CONTINUOUS
10
71.8163440000000008
20
-53.2263999999999982
11
71.7971459999999979
21
-53.2484849999999952
0
LINE
8
BLACK
6
CONTINUOUS
10
71.7971459999999979
20
-53.2484849999999952
11
71.7709569999999957
21
-53.2615429999999961
0
LINE
8
BLACK
6
CONTINUOUS
10
71.7709569999999957
20
-53.2615429999999961
11
71.7709550000000007
21
-53.2615429999999961
0
LINE
8
BLACK
6
CONTINUOUS
10
71.7709550000000007
20
-53.2615429999999961
11
71.7564610000000016
21
-53.2640010000000004
0
LINE
8
BLACK
6
CONTINUOUS
10
71.7564610000000016
20
-53.2640010000000004
11
57.9900769999999994
21
-54.2266410000000008
0
LINE
8
BLACK
6
CONTINUOUS
10
57.9900769999999994
20
-54.2266410000000008
11
57.9753799999999941
21
-54.2262239999999949
0
LINE
8
BLACK
6
CONTINUOUS
10
57.9753799999999941
20
-54.2262239999999949
11
57.9476289999999992
21
-54.2169389999999964
0
LINE
8
BLACK
6
CONTINUOUS
10
57.9476289999999992
20
-54.2169389999999964
11
57.925543999999995
21
-54.1977410000000006
0
LINE
8
BLACK
6
CONTINUOUS
10
57.925543999999995
20
-54.1977410000000006
11
57.9124859999999941
21
-54.1715519999999984
0
LINE
8
BLACK
6
CONTINUOUS
10
57.9124859999999941
20
-54.1715519999999984
11
57.9124849999999967
21
-54.1715499999999963
0
LINE
8
BLACK
6
CONTINUOUS
10
57.9124849999999967
20
-54.1715499999999963
11
57.910027999999997
21
-54.1570559999999972
0
LINE
8
BLACK
6
CONTINUOUS
10
57.910027999999997
20
-54.1570559999999972
11
56.9473879999999966
21
-40.390671999999995
0
LINE
8
BLACK
6
CONTINUOUS
10
56.9473879999999966
20
-40.390671999999995
11
56.9478049999999953
21
-40.3759749999999968
0
LINE
8
BLACK
6
CONTINUOUS
10
56.9478049999999953
20
-40.3759749999999968
11
56.9570900000000009
21
-40.3482239999999948
0
LINE
8
BLACK
6
CONTINUOUS
10
56.9570900000000009
20
-40.3482239999999948
11
56.9762879999999967
21
-40.3261389999999977
0
LINE
8
BLACK
6
CONTINUOUS
10
56.9762879999999967
20
-40.3261389999999977
11
57.002476999999999
21
-40.3130809999999968
0
LINE
8
BLACK
6
CONTINUOUS
10
57.002476999999999
20
-40.3130809999999968
11
57.0169730000000001
21
-40.3106229999999996
0
LINE
8
BLACK
6
CONTINUOUS
10
57.0169730000000001
20
-40.3106229999999996
11
70.7833569999999952
21
-39.3479839999999967
0
LINE
8
BLACK
6
CONTINUOUS
10
70.7833569999999952
20
-39.3479839999999967
11
70.7980539999999934
21
-39.3484009999999955
0
LINE
8
BLACK
6
CONTINUOUS
10
57.1022529999999975
20
-40.4550249999999991
11
58.0544299999999964
21
-54.0717749999999953
0
LINE
8
BLACK
6
CONTINUOUS
10
58.0544299999999964
20
-54.0717749999999953
11
71.6711799999999926
21
-53.1195979999999963
0
LINE
8
BLACK
6
CONTINUOUS
10
71.6711799999999926
20
-53.1195979999999963
11
70.7190030000000007
21
-39.5028489999999977
0
LINE
8
BLACK
6
CONTINUOUS
10
70.7190030000000007
20
-39.5028489999999977
11
57.1022529999999975
21
-40.4550249999999991
0
LINE
8
BLACK
6
CONTINUOUS
10
109.6536600000000021
20
-40.1570010000000011
11
109.6806959999999975
21
-40.1681999999999988
0
LINE
8
BLACK
6
CONTINUOUS
10
109.6806959999999975
20
-40.1681999999999988
11
109.7013879999999943
21
-40.1888919999999956
0
LINE
8
BLACK
6
CONTINUOUS
10
109.7013879999999943
20
-40.1888919999999956
11
109.7125869999999992
21
-40.2159279999999981
0
LINE
8
BLACK
6
CONTINUOUS
10
109.7125869999999992
20
-40.2159279999999981
11
109.714027999999999
21
-40.230559999999997
0
LINE
8
BLACK
6
CONTINUOUS
10
109.714027999999999
20
-40.230559999999997
11
109.714027999999999
21
-54.0305599999999941
0
LINE
8
BLACK
6
CONTINUOUS
10
109.714027999999999
20
-54.0305599999999941
11
109.7125869999999992
21
-54.0451920000000001
0
LINE
8
BLACK
6
CONTINUOUS
10
109.7125869999999992
20
-54.0451920000000001
11
109.7013879999999943
21
-54.0722279999999955
0
LINE
8
BLACK
6
CONTINUOUS
10
109.7013879999999943
20
-54.0722279999999955
11
109.6806959999999975
21
-54.0929199999999994
0
LINE
8
BLACK
6
CONTINUOUS
10
109.6806959999999975
20
-54.0929199999999994
11
109.6536600000000021
21
-54.1041189999999972
0
LINE
8
BLACK
6
CONTINUOUS
10
109.6536600000000021
20
-54.1041189999999972
11
109.6390279999999962
21
-54.105559999999997
0
LINE
8
BLACK
6
CONTINUOUS
10
109.6390279999999962
20
-54.105559999999997
11
95.839027999999999
21
-54.105559999999997
0
LINE
8
BLACK
6
CONTINUOUS
10
95.839027999999999
20
-54.105559999999997
11
95.824395999999993
21
-54.1041189999999972
0
LINE
8
BLACK
6
CONTINUOUS
10
95.824395999999993
20
-54.1041189999999972
11
95.7973599999999976
21
-54.0929199999999994
0
LINE
8
BLACK
6
CONTINUOUS
10
95.7973599999999976
20
-54.0929199999999994
11
95.7766680000000008
21
-54.0722279999999955
0
LINE
8
BLACK
6
CONTINUOUS
10
95.7766680000000008
20
-54.0722279999999955
11
95.765468999999996
21
-54.0451920000000001
0
LINE
8
BLACK
6
CONTINUOUS
10
95.765468999999996
20
-54.0451920000000001
11
95.7640279999999962
21
-54.0305599999999941
0
LINE
8
BLACK
6
CONTINUOUS
10
95.7640279999999962
20
-54.0305599999999941
11
95.7640279999999962
21
-40.230559999999997
0
LINE
8
BLACK
6
CONTINUOUS
10
95.7640279999999962
20
-40.230559999999997
11
95.765468999999996
21
-40.2159279999999981
0
LINE
8
BLACK
6
CONTINUOUS
10
95.765468999999996
20
-40.2159279999999981
11
95.7766680000000008
21
-40.1888919999999956
0
LINE
8
BLACK
6
CONTINUOUS
10
95.7766680000000008
20
-40.1888919999999956
11
95.7973599999999976
21
-40.1681999999999988
0
LINE
8
BLACK
6
CONTINUOUS
10
95.7973599999999976
20
-40.1681999999999988
11
95.824395999999993
21
-40.1570010000000011
0
LINE
8
BLACK
6
CONTINUOUS
10
95.824395999999993
20
-40.1570010000000011
11
95.839027999999999
21
-40.1555600000000013
0
LINE
8
BLACK
6
CONTINUOUS
10
95.839027999999999
20
-40.1555600000000013
11
109.6390279999999962
21
-40.1555600000000013
0
LINE
8
BLACK
6
CONTINUOUS
10
109.6390279999999962
20
-40.1555600000000013
11
109.6536600000000021
21
-40.1570010000000011
0
LINE
8
BLACK
6
CONTINUOUS
10
95.9140280000000018
20
-40.3055599999999998
11
95.9140280000000018
21
-53.9555599999999984
0
LINE
8
BLACK
6
CONTINUOUS
10
95.9140280000000018
20
-53.9555599999999984
11
109.5640279999999933
21
-53.9555599999999984
0
LINE
8
BLACK
6
CONTINUOUS
10
109.5640279999999933
20
-53.9555599999999984
11
109.5640279999999933
21
-40.3055599999999998
0
LINE
8
BLACK
6
CONTINUOUS
10
109.5640279999999933
20
-40.3055599999999998
11
95.9140280000000018
21
-40.3055599999999998
0
LINE
8
BLACK
6
CONTINUOUS
10
91.6536600000000021
20
-31.6570009999999975
11
91.6806959999999975
21
-31.6681999999999988
0
LINE
8
BLACK
6
CONTINUOUS
10
91.6806959999999975
20
-31.6681999999999988
11
91.7013879999999943
21
-31.6888919999999992
0
LINE
8
BLACK
6
CONTINUOUS
10
91.7013879999999943
20
-31.6888919999999992
11
91.7125869999999992
21
-31.7159279999999981
0
LINE
8
BLACK
6
CONTINUOUS
10
91.7125869999999992
20
-31.7159279999999981
11
91.714027999999999
21
-31.730559999999997
0
LINE
8
BLACK
6
CONTINUOUS
10
91.714027999999999
20
-31.730559999999997
11
91.714027999999999
21
-45.5305600000000013
0
LINE
8
BLACK
6
CONTINUOUS
10
91.714027999999999
20
-45.5305600000000013
11
91.7125869999999992
21
-45.5451920000000001
0
LINE
8
BLACK
6
CONTINUOUS
10
91.7125869999999992
20
-45.5451920000000001
11
91.7013879999999943
21
-45.5722279999999955
0
LINE
8
BLACK
6
CONTINUOUS
10
91.7013879999999943
20
-45.5722279999999955
11
91.6806959999999975
21
-45.5929199999999994
0
LINE
8
BLACK
6
CONTINUOUS
10
91.6806959999999975
20
-45.5929199999999994
11
91.6536600000000021
21
-45.6041189999999972
0
LINE
8
BLACK
6
CONTINUOUS
10
91.6536600000000021
20
-45.6041189999999972
11
91.6390279999999962
21
-45.605559999999997
0
LINE
8
BLACK
6
CONTINUOUS
10
91.6390279999999962
20
-45.605559999999997
11
77.839027999999999
21
-45.605559999999997
0
LINE
8
BLACK
6
CONTINUOUS
10
77.839027999999999
20
-45.605559999999997
11
77.824395999999993
21
-45.6041189999999972
0
LINE
8
BLACK
6
CONTINUOUS
10
77.824395999999993
20
-45.6041189999999972
11
77.7973599999999976
21
-45.5929199999999994
0
LINE
8
BLACK
6
CONTINUOUS
10
77.7973599999999976
20
-45.5929199999999994
11
77.7766680000000008
21
-45.5722279999999955
0
LINE
8
BLACK
6
CONTINUOUS
10
77.7766680000000008
20
-45.5722279999999955
11
77.765468999999996
21
-45.5451920000000001
0
LINE
8
BLACK
6
CONTINUOUS
10
77.765468999999996
20
-45.5451920000000001
11
77.7640279999999962
21
-45.5305600000000013
0
LINE
8
BLACK
6
CONTINUOUS
10
77.7640279999999962
20
-45.5305600000000013
11
77.7640279999999962
21
-31.730559999999997
0
LINE
8
BLACK
6
CONTINUOUS
10
77.7640279999999962
20
-31.730559999999997
11
77.765468999999996
21
-31.7159279999999981
0
LINE
8
BLACK
6
CONTINUOUS
10
77.765468999999996
20
-31.7159279999999981
11
77.7766680000000008
21
-31.6888919999999992
0
LINE
8
BLACK
6
CONTINUOUS
10
77.7766680000000008
20
-31.6888919999999992
11
77.7973599999999976
21
-31.6681999999999988
0
LINE
8
BLACK
6
CONTINUOUS
10
77.7973599999999976
20
-31.6681999999999988
11
77.824395999999993
21
-31.6570009999999975
0
LINE
8
BLACK
6
CONTINUOUS
10
77.824395999999993
20
-31.6570009999999975
11
77.839027999999999
21
-31.6555599999999977
0
LINE
8
BLACK
6
CONTINUOUS
10
77.839027999999999
20
-31.6555599999999977
11
91.6390279999999962
21
-31.6555599999999977
0
LINE
8
BLACK
6
CONTINUOUS
10
91.6390279999999962
20
-31.6555599999999977
11
91.6536600000000021
21
-31.6570009999999975
0
LINE
8
BLACK
6
CONTINUOUS
10
77.9140280000000018
20
-31.8055599999999998
11
77.9140280000000018
21
-45.4555599999999984
0
LINE
8
BLACK
6
CONTINUOUS
10
77.9140280000000018
20
-45.4555599999999984
11
91.5640279999999933
21
-45.4555599999999984
0
LINE
8
BLACK
6
CONTINUOUS
10
91.5640279999999933
20
-45.4555599999999984
11
91.5640279999999933
21
-31.8055599999999998
0
LINE
8
BLACK
6
CONTINUOUS
10
91.5640279999999933
20
-31.8055599999999998
11
77.9140280000000018
21
-31.8055599999999998
0
LINE
8
BLACK
6
CONTINUOUS
10
74.7390240000000006
20
-27.855559999999997
11
74.7390279999999905
21
-27.855559999999997
0
LINE
8
BLACK
6
CONTINUOUS
10
74.7390279999999905
20
-27.855559999999997
11
94.7390279999999905
21
-27.855559999999997
0
LINE
8
BLACK
6
CONTINUOUS
10
94.7390279999999905
20
-27.855559999999997
11
94.7390290000000022
21
-27.855559999999997
0
LINE
8
BLACK
6
CONTINUOUS
10
94.7390290000000022
20
-27.855559999999997
11
94.7390299999999996
21
-27.855559999999997
0
LINE
8
BLACK
6
CONTINUOUS
10
94.7390299999999996
20
-27.855559999999997
11
94.9384819999999934
21
-27.8712610000000005
0
LINE
8
BLACK
6
CONTINUOUS
10
94.9384819999999934
20
-27.8712610000000005
11
95.1330239999999918
21
-27.9179700000000004
0
LINE
8
BLACK
6
CONTINUOUS
10
95.1330239999999918
20
-27.9179700000000004
11
95.3178630000000027
21
-27.9945349999999991
0
LINE
8
BLACK
6
CONTINUOUS
10
95.3178630000000027
20
-27.9945349999999991
11
95.4884500000000003
21
-28.0990709999999986
0
LINE
8
BLACK
6
CONTINUOUS
10
95.4884500000000003
20
-28.0990709999999986
11
95.6405850000000015
21
-28.2290059999999983
0
LINE
8
BLACK
6
CONTINUOUS
10
95.6405850000000015
20
-28.2290059999999983
11
95.7705210000000022
21
-28.3811389999999975
0
LINE
8
BLACK
6
CONTINUOUS
10
95.7705210000000022
20
-28.3811389999999975
11
95.8750599999999906
21
-28.5517249999999976
0
LINE
8
BLACK
6
CONTINUOUS
10
95.8750599999999906
20
-28.5517249999999976
11
95.9516259999999903
21
-28.7365639999999978
0
LINE
8
BLACK
6
CONTINUOUS
10
95.9516259999999903
20
-28.7365639999999978
11
95.9983369999999923
21
-28.9311049999999987
0
LINE
8
BLACK
6
CONTINUOUS
10
95.9983369999999923
20
-28.9311049999999987
11
96.0140399999999943
21
-29.1305569999999996
0
LINE
8
BLACK
6
CONTINUOUS
10
96.0140399999999943
20
-29.1305569999999996
11
96.0140279999999962
21
-29.1305579999999971
0
LINE
8
BLACK
6
CONTINUOUS
10
96.0140279999999962
20
-29.1305579999999971
11
96.0140279999999962
21
-29.1305599999999991
0
LINE
8
BLACK
6
CONTINUOUS
10
96.0140279999999962
20
-29.1305599999999991
11
96.0140279999999962
21
-35.4305599999999998
0
LINE
8
BLACK
6
CONTINUOUS
10
96.0140279999999962
20
-35.4305599999999998
11
96.0140279999999962
21
-35.4305629999999994
0
LINE
8
BLACK
6
CONTINUOUS
10
96.0140279999999962
20
-35.4305629999999994
11
96.0140399999999943
21
-35.4305629999999994
0
LINE
8
BLACK
6
CONTINUOUS
10
96.0140399999999943
20
-35.4305629999999994
11
96.0140370000000019
21
-35.5114899999999949
0
LINE
8
BLACK
6
CONTINUOUS
10
96.0140370000000019
20
-35.5114899999999949
11
96.0421379999999942
21
-35.6708859999999959
0
LINE
8
BLACK
6
CONTINUOUS
10
96.0421379999999942
20
-35.6708859999999959
11
96.0974909999999909
21
-35.8229800000000012
0
LINE
8
BLACK
6
CONTINUOUS
10
96.0974909999999909
20
-35.8229800000000012
11
96.1784159999999986
21
-35.9631509999999963
0
LINE
8
BLACK
6
CONTINUOUS
10
96.1784159999999986
20
-35.9631509999999963
11
96.2824519999999922
21
-36.087139999999998
0
LINE
8
BLACK
6
CONTINUOUS
10
96.2824519999999922
20
-36.087139999999998
11
96.4064389999999918
21
-36.1911780000000007
0
LINE
8
BLACK
6
CONTINUOUS
10
96.4064389999999918
20
-36.1911780000000007
11
96.5466100000000012
21
-36.2721039999999988
0
LINE
8
BLACK
6
CONTINUOUS
10
96.5466100000000012
20
-36.2721039999999988
11
96.6987029999999947
21
-36.3274589999999975
0
LINE
8
BLACK
6
CONTINUOUS
10
96.6987029999999947
20
-36.3274589999999975
11
96.8580989999999957
21
-36.355561999999999
0
LINE
8
BLACK
6
CONTINUOUS
10
96.8580989999999957
20
-36.355561999999999
11
96.9390259999999984
21
-36.355559999999997
0
LINE
8
BLACK
6
CONTINUOUS
10
96.9390259999999984
20
-36.355559999999997
11
96.9390279999999933
21
-36.355559999999997
0
LINE
8
BLACK
6
CONTINUOUS
10
96.9390279999999933
20
-36.355559999999997
11
112.7390279999999905
21
-36.355559999999997
0
LINE
8
BLACK
6
CONTINUOUS
10
112.7390279999999905
20
-36.355559999999997
11
112.7390289999999879
21
-36.355559999999997
0
LINE
8
BLACK
6
CONTINUOUS
10
112.7390289999999879
20
-36.355559999999997
11
112.7390299999999996
21
-36.355559999999997
0
LINE
8
BLACK
6
CONTINUOUS
10
112.7390299999999996
20
-36.355559999999997
11
112.9384819999999934
21
-36.371260999999997
0
LINE
8
BLACK
6
CONTINUOUS
10
112.9384819999999934
20
-36.371260999999997
11
113.1330239999999918
21
-36.4179699999999968
0
LINE
8
BLACK
6
CONTINUOUS
10
113.1330239999999918
20
-36.4179699999999968
11
113.3178629999999885
21
-36.4945349999999991
0
LINE
8
BLACK
6
CONTINUOUS
10
113.3178629999999885
20
-36.4945349999999991
11
113.4884500000000003
21
-36.599070999999995
0
LINE
8
BLACK
6
CONTINUOUS
10
113.4884500000000003
20
-36.599070999999995
11
113.6405850000000015
21
-36.7290059999999983
0
LINE
8
BLACK
6
CONTINUOUS
10
113.6405850000000015
20
-36.7290059999999983
11
113.770520999999988
21
-36.8811389999999975
0
LINE
8
BLACK
6
CONTINUOUS
10
113.770520999999988
20
-36.8811389999999975
11
113.8750599999999906
21
-37.0517249999999976
0
LINE
8
BLACK
6
CONTINUOUS
10
113.8750599999999906
20
-37.0517249999999976
11
113.9516259999999903
21
-37.2365640000000013
0
LINE
8
BLACK
6
CONTINUOUS
10
113.9516259999999903
20
-37.2365640000000013
11
113.9983369999999923
21
-37.4311049999999952
0
LINE
8
BLACK
6
CONTINUOUS
10
113.9983369999999923
20
-37.4311049999999952
11
114.0140399999999943
21
-37.630556999999996
0
LINE
8
BLACK
6
CONTINUOUS
10
114.0140399999999943
20
-37.630556999999996
11
114.0140279999999962
21
-37.6305580000000006
0
LINE
8
BLACK
6
CONTINUOUS
10
114.0140279999999962
20
-37.6305580000000006
11
114.0140279999999962
21
-37.6305599999999956
0
LINE
8
BLACK
6
CONTINUOUS
10
114.0140279999999962
20
-37.6305599999999956
11
114.0140279999999962
21
-37.980559999999997
0
LINE
8
BLACK
6
CONTINUOUS
10
114.0140279999999962
20
-37.980559999999997
11
114.0140279999999962
21
-37.9805629999999965
0
LINE
8
BLACK
6
CONTINUOUS
10
114.0140279999999962
20
-37.9805629999999965
11
114.0140399999999943
21
-37.9805629999999965
0
LINE
8
BLACK
6
CONTINUOUS
10
114.0140399999999943
20
-37.9805629999999965
11
114.0140370000000019
21
-38.0614899999999992
0
LINE
8
BLACK
6
CONTINUOUS
10
114.0140370000000019
20
-38.0614899999999992
11
114.0421379999999942
21
-38.2208860000000001
0
LINE
8
BLACK
6
CONTINUOUS
10
114.0421379999999942
20
-38.2208860000000001
11
114.0974909999999909
21
-38.3729799999999983
0
LINE
8
BLACK
6
CONTINUOUS
10
114.0974909999999909
20
-38.3729799999999983
11
114.1784159999999986
21
-38.5131510000000006
0
LINE
8
BLACK
6
CONTINUOUS
10
114.1784159999999986
20
-38.5131510000000006
11
114.2824519999999922
21
-38.6371399999999952
0
LINE
8
BLACK
6
CONTINUOUS
10
114.2824519999999922
20
-38.6371399999999952
11
114.4064389999999918
21
-38.7411779999999979
0
LINE
8
BLACK
6
CONTINUOUS
10
114.4064389999999918
20
-38.7411779999999979
11
114.5466100000000012
21
-38.8221039999999959
0
LINE
8
BLACK
6
CONTINUOUS
10
114.5466100000000012
20
-38.8221039999999959
11
114.6987029999999947
21
-38.8774590000000018
0
LINE
8
BLACK
6
CONTINUOUS
10
114.6987029999999947
20
-38.8774590000000018
11
114.8580989999999957
21
-38.9055619999999962
0
LINE
8
BLACK
6
CONTINUOUS
10
114.8580989999999957
20
-38.9055619999999962
11
114.9390259999999984
21
-38.9055600000000013
0
LINE
8
BLACK
6
CONTINUOUS
10
114.9390259999999984
20
-38.9055600000000013
11
114.9390279999999933
21
-38.9055600000000013
0
LINE
8
BLACK
6
CONTINUOUS
10
114.9390279999999933
20
-38.9055600000000013
11
130.7390279999999905
21
-38.9055600000000013
0
LINE
8
BLACK
6
CONTINUOUS
10
130.7390279999999905
20
-38.9055600000000013
11
130.7390289999999879
21
-38.9055600000000013
0
LINE
8
BLACK
6
CONTINUOUS
10
130.7390289999999879
20
-38.9055600000000013
11
130.7390299999999854
21
-38.9055600000000013
0
LINE
8
BLACK
6
CONTINUOUS
10
130.7390299999999854
20
-38.9055600000000013
11
130.9384819999999934
21
-38.9212610000000012
0
LINE
8
BLACK
6
CONTINUOUS
10
130.9384819999999934
20
-38.9212610000000012
11
131.133024000000006
21
-38.9679700000000011
0
LINE
8
BLACK
6
CONTINUOUS
10
131.133024000000006
20
-38.9679700000000011
11
131.3178629999999885
21
-39.0445349999999962
0
LINE
8
BLACK
6
CONTINUOUS
10
131.3178629999999885
20
-39.0445349999999962
11
131.4884500000000003
21
-39.1490709999999993
0
LINE
8
BLACK
6
CONTINUOUS
10
131.4884500000000003
20
-39.1490709999999993
11
131.6405849999999873
21
-39.2790059999999954
0
LINE
8
BLACK
6
CONTINUOUS
10
131.6405849999999873
20
-39.2790059999999954
11
131.7705210000000022
21
-39.4311390000000017
0
LINE
8
BLACK
6
CONTINUOUS
10
131.7705210000000022
20
-39.4311390000000017
11
131.8750599999999906
21
-39.6017249999999947
0
LINE
8
BLACK
6
CONTINUOUS
10
131.8750599999999906
20
-39.6017249999999947
11
131.9516260000000045
21
-39.7865639999999985
0
LINE
8
BLACK
6
CONTINUOUS
10
131.9516260000000045
20
-39.7865639999999985
11
131.9983369999999923
21
-39.9811049999999994
0
LINE
8
BLACK
6
CONTINUOUS
10
131.9983369999999923
20
-39.9811049999999994
11
132.0140399999999943
21
-40.1805570000000003
0
LINE
8
BLACK
6
CONTINUOUS
10
132.0140399999999943
20
-40.1805570000000003
11
132.0140279999999962
21
-40.1805579999999978
0
LINE
8
BLACK
6
CONTINUOUS
10
132.0140279999999962
20
-40.1805579999999978
11
132.0140279999999962
21
-40.1805599999999998
0
LINE
8
BLACK
6
CONTINUOUS
10
132.0140279999999962
20
-40.1805599999999998
11
132.0140279999999962
21
-91.7197809999999976
0
LINE
8
BLACK
6
CONTINUOUS
10
132.0140279999999962
20
-91.7197809999999976
11
132.0140279999999962
21
-91.719781999999995
0
LINE
8
BLACK
6
CONTINUOUS
10
132.0140279999999962
20
-91.719781999999995
11
132.0141089999999906
21
-91.7974119999999942
0
LINE
8
BLACK
6
CONTINUOUS
10
132.0141089999999906
20
-91.7974119999999942
11
132.0399869999999964
21
-91.9505010000000027
0
LINE
8
BLACK
6
CONTINUOUS
10
132.0399869999999964
20
-91.9505010000000027
11
132.0910219999999811
21
-92.0971329999999995
0
LINE
8
BLACK
6
CONTINUOUS
10
132.0910219999999811
20
-92.0971329999999995
11
132.1657849999999996
21
-92.2332069999999931
0
LINE
8
BLACK
6
CONTINUOUS
10
132.1657849999999996
20
-92.2332069999999931
11
132.2621849999999881
21
-92.3549139999999937
0
LINE
8
BLACK
6
CONTINUOUS
10
132.2621849999999881
20
-92.3549139999999937
11
132.3775249999999915
21
-92.4588490000000007
0
LINE
8
BLACK
6
CONTINUOUS
10
132.3775249999999915
20
-92.4588490000000007
11
132.508576000000005
21
-92.5421029999999973
0
LINE
8
BLACK
6
CONTINUOUS
10
132.508576000000005
20
-92.5421029999999973
11
132.5800920000000076
21
-92.572300999999996
0
LINE
8
BLACK
6
CONTINUOUS
10
132.5800920000000076
20
-92.572300999999996
11
132.5800930000000051
21
-92.5723019999999934
0
LINE
8
BLACK
6
CONTINUOUS
10
132.5800930000000051
20
-92.5723019999999934
11
147.233081999999996
21
-98.7416229999999899
0
LINE
8
BLACK
6
CONTINUOUS
10
147.233081999999996
20
-98.7416229999999899
11
147.233083999999991
21
-98.7416240000000016
0
LINE
8
BLACK
6
CONTINUOUS
10
147.233083999999991
20
-98.7416240000000016
11
147.2330879999999809
21
-98.741626999999994
0
LINE
8
BLACK
6
CONTINUOUS
10
147.2330879999999809
20
-98.741626999999994
11
147.2816399999999817
21
-98.7632720000000006
0
LINE
8
BLACK
6
CONTINUOUS
10
147.2816399999999817
20
-98.7632720000000006
11
147.3292509999999993
21
-98.7869249999999965
0
LINE
8
BLACK
6
CONTINUOUS
10
147.3292509999999993
20
-98.7869249999999965
11
147.3757719999999836
21
-98.812507999999994
0
LINE
8
BLACK
6
CONTINUOUS
10
147.3757719999999836
20
-98.812507999999994
11
147.3758339999999976
21
-98.8125369999999918
0
LINE
8
BLACK
6
CONTINUOUS
10
147.3758339999999976
20
-98.8125369999999918
11
164.6963419999999871
21
-108.8125369999999918
0
LINE
8
BLACK
6
CONTINUOUS
10
164.6963419999999871
20
-108.8125369999999918
11
164.6963460000000055
21
-108.8125399999999985
0
LINE
8
BLACK
6
CONTINUOUS
10
164.6963460000000055
20
-108.8125399999999985
11
164.6963489999999979
21
-108.812540999999996
0
LINE
8
BLACK
6
CONTINUOUS
10
164.6963489999999979
20
-108.812540999999996
11
164.6995119999999986
21
-108.8147149999999925
0
LINE
8
BLACK
6
CONTINUOUS
10
164.6995119999999986
20
-108.8147149999999925
11
164.70050999999998
21
-108.8151289999999989
0
LINE
8
BLACK
6
CONTINUOUS
10
164.70050999999998
20
-108.8151289999999989
11
164.7013809999999978
21
-108.8159999999999883
0
LINE
8
BLACK
6
CONTINUOUS
10
164.7013809999999978
20
-108.8159999999999883
11
164.8612119999999948
21
-108.9258729999999957
0
LINE
8
BLACK
6
CONTINUOUS
10
164.8612119999999948
20
-108.9258729999999957
11
165.0063179999999932
21
-109.0635979999999989
0
LINE
8
BLACK
6
CONTINUOUS
10
165.0063179999999932
20
-109.0635979999999989
11
165.1280950000000018
21
-109.2223240000000004
0
LINE
8
BLACK
6
CONTINUOUS
10
165.1280950000000018
20
-109.2223240000000004
11
165.2235450000000014
21
-109.3981449999999995
0
LINE
8
BLACK
6
CONTINUOUS
10
165.2235450000000014
20
-109.3981449999999995
11
165.290317999999985
21
-109.5867319999999978
0
LINE
8
BLACK
6
CONTINUOUS
10
165.290317999999985
20
-109.5867319999999978
11
165.3267709999999795
21
-109.7834419999999938
0
LINE
8
BLACK
6
CONTINUOUS
10
165.3267709999999795
20
-109.7834419999999938
11
165.3320059999999785
21
-109.9834329999999909
0
LINE
8
BLACK
6
CONTINUOUS
10
165.3320059999999785
20
-109.9834329999999909
11
165.3058949999999925
21
-110.1817810000000009
0
LINE
8
BLACK
6
CONTINUOUS
10
165.3058949999999925
20
-110.1817810000000009
11
165.2490789999999947
21
-110.3736040000000003
0
LINE
8
BLACK
6
CONTINUOUS
10
165.2490789999999947
20
-110.3736040000000003
11
165.1646889999999814
21
-110.5505469999999946
0
LINE
8
BLACK
6
CONTINUOUS
10
165.1646889999999814
20
-110.5505469999999946
11
165.1630260000000021
21
-110.5542159999999967
0
LINE
8
BLACK
6
CONTINUOUS
10
165.1630260000000021
20
-110.5542159999999967
11
165.1630269999999996
21
-110.5542169999999942
0
LINE
8
BLACK
6
CONTINUOUS
10
165.1630269999999996
20
-110.5542169999999942
11
165.1630250000000046
21
-110.5542169999999942
0
LINE
8
BLACK
6
CONTINUOUS
10
165.1630250000000046
20
-110.5542169999999942
11
165.1630250000000046
21
-110.5542200000000008
0
LINE
8
BLACK
6
CONTINUOUS
10
165.1630250000000046
20
-110.5542200000000008
11
155.6630250000000046
21
-127.0087019999999995
0
LINE
8
BLACK
6
CONTINUOUS
10
155.6630250000000046
20
-127.0087019999999995
11
155.662998999999985
21
-127.0087369999999964
0
LINE
8
BLACK
6
CONTINUOUS
10
155.662998999999985
20
-127.0087369999999964
11
155.550282999999979
21
-127.1728809999999896
0
LINE
8
BLACK
6
CONTINUOUS
10
155.550282999999979
20
-127.1728809999999896
11
155.413343999999995
21
-127.3175019999999904
0
LINE
8
BLACK
6
CONTINUOUS
10
155.413343999999995
20
-127.3175019999999904
11
155.2555529999999919
21
-127.4390299999999883
0
LINE
8
BLACK
6
CONTINUOUS
10
155.2555529999999919
20
-127.4390299999999883
11
155.0807609999999954
21
-127.5344999999999942
0
LINE
8
BLACK
6
CONTINUOUS
10
155.0807609999999954
20
-127.5344999999999942
11
154.8932319999999834
21
-127.6015819999999934
0
LINE
8
BLACK
6
CONTINUOUS
10
154.8932319999999834
20
-127.6015819999999934
11
154.6975439999999935
21
-127.6386399999999952
0
LINE
8
BLACK
6
CONTINUOUS
10
154.6975439999999935
20
-127.6386399999999952
11
154.4984719999999925
21
-127.6447679999999991
0
LINE
8
BLACK
6
CONTINUOUS
10
154.4984719999999925
20
-127.6447679999999991
11
154.3008749999999907
21
-127.6198169999999976
0
LINE
8
BLACK
6
CONTINUOUS
10
154.3008749999999907
20
-127.6198169999999976
11
154.1095750000000066
21
-127.5643969999999996
0
LINE
8
BLACK
6
CONTINUOUS
10
154.1095750000000066
20
-127.5643969999999996
11
153.931145999999984
21
-127.4807519999999954
0
LINE
8
BLACK
6
CONTINUOUS
10
153.931145999999984
20
-127.4807519999999954
11
153.9292250000000024
21
-127.4798979999999915
0
LINE
8
BLACK
6
CONTINUOUS
10
153.9292250000000024
20
-127.4798979999999915
11
137.3182529999999986
21
-118.0467060000000004
0
LINE
8
BLACK
6
CONTINUOUS
10
137.3182529999999986
20
-118.0467060000000004
11
137.3182479999999828
21
-118.0467019999999962
0
LINE
8
BLACK
6
CONTINUOUS
10
137.3182479999999828
20
-118.0467019999999962
11
137.3182449999999903
21
-118.0467019999999962
0
LINE
8
BLACK
6
CONTINUOUS
10
137.3182449999999903
20
-118.0467019999999962
11
137.318240000000003
21
-118.0467099999999903
0
LINE
8
BLACK
6
CONTINUOUS
10
137.318240000000003
20
-118.0467099999999903
11
137.2840819999999837
21
-118.0273079999999908
0
LINE
8
BLACK
6
CONTINUOUS
10
137.2840819999999837
20
-118.0273079999999908
11
137.2127209999999877
21
-117.9944369999999907
0
LINE
8
BLACK
6
CONTINUOUS
10
137.2127209999999877
20
-117.9944369999999907
11
137.138828999999987
21
-117.9677409999999895
0
LINE
8
BLACK
6
CONTINUOUS
10
137.138828999999987
20
-117.9677409999999895
11
137.1008829999999818
21
-117.9575749999999914
0
LINE
8
BLACK
6
CONTINUOUS
10
137.1008829999999818
20
-117.9575749999999914
11
137.1008829999999818
21
-117.9575739999999939
0
LINE
8
BLACK
6
CONTINUOUS
10
137.1008829999999818
20
-117.9575739999999939
11
137.1008809999999869
21
-117.9575729999999965
0
LINE
8
BLACK
6
CONTINUOUS
10
137.1008809999999869
20
-117.9575729999999965
11
137.1008799999999894
21
-117.9575729999999965
0
LINE
8
BLACK
6
CONTINUOUS
10
137.1008799999999894
20
-117.9575729999999965
11
128.1107749999999896
21
-115.5486809999999878
0
LINE
8
BLACK
6
CONTINUOUS
10
128.1107749999999896
20
-115.5486809999999878
11
128.1107739999999922
21
-115.5486819999999994
0
LINE
8
BLACK
6
CONTINUOUS
10
128.1107739999999922
20
-115.5486819999999994
11
128.1082059999999956
21
-115.5479939999999885
0
LINE
8
BLACK
6
CONTINUOUS
10
128.1082059999999956
20
-115.5479939999999885
11
128.1030629999999917
21
-115.5466479999999905
0
LINE
8
BLACK
6
CONTINUOUS
10
128.1030629999999917
20
-115.5466479999999905
11
128.097912000000008
21
-115.5453309999999902
0
LINE
8
BLACK
6
CONTINUOUS
10
128.097912000000008
20
-115.5453309999999902
11
128.0953329999999823
21
-115.5446869999999961
0
LINE
8
BLACK
6
CONTINUOUS
10
128.0953329999999823
20
-115.5446869999999961
11
128.0953319999999849
21
-115.5446859999999987
0
LINE
8
BLACK
6
CONTINUOUS
10
128.0953319999999849
20
-115.5446859999999987
11
118.6326299999999918
21
-113.1830870000000004
0
LINE
8
BLACK
6
CONTINUOUS
10
118.6326299999999918
20
-113.1830870000000004
11
118.6326229999999953
21
-113.1830839999999938
0
LINE
8
BLACK
6
CONTINUOUS
10
118.6326229999999953
20
-113.1830839999999938
11
118.6326210000000003
21
-113.1830849999999913
0
LINE
8
BLACK
6
CONTINUOUS
10
118.6326210000000003
20
-113.1830849999999913
11
118.6326179999999937
21
-113.1830949999999945
0
LINE
8
BLACK
6
CONTINUOUS
10
118.6326179999999937
20
-113.1830949999999945
11
118.5960180000000008
21
-113.1739549999999923
0
LINE
8
BLACK
6
CONTINUOUS
10
118.5960180000000008
20
-113.1739549999999923
11
118.5215729999999894
21
-113.1617019999999911
0
LINE
8
BLACK
6
CONTINUOUS
10
118.5215729999999894
20
-113.1617019999999911
11
118.4463760000000008
21
-113.1555579999999992
0
LINE
8
BLACK
6
CONTINUOUS
10
118.4463760000000008
20
-113.1555579999999992
11
118.408653000000001
21
-113.1555599999999941
0
LINE
8
BLACK
6
CONTINUOUS
10
118.408653000000001
20
-113.1555599999999941
11
118.4086519999999894
21
-113.1555589999999967
0
LINE
8
BLACK
6
CONTINUOUS
10
118.4086519999999894
20
-113.1555589999999967
11
118.4086489999999969
21
-113.1555599999999941
0
LINE
8
BLACK
6
CONTINUOUS
10
118.4086489999999969
20
-113.1555599999999941
11
98.6790299999999974
21
-113.1555599999999941
0
LINE
8
BLACK
6
CONTINUOUS
10
98.6790299999999974
20
-113.1555599999999941
11
98.6790280000000024
21
-113.1555599999999941
0
LINE
8
BLACK
6
CONTINUOUS
10
98.6790280000000024
20
-113.1555599999999941
11
98.6790199999999942
21
-113.1555589999999967
0
LINE
8
BLACK
6
CONTINUOUS
10
98.6790199999999942
20
-113.1555589999999967
11
98.479574999999997
21
-113.1398669999999953
0
LINE
8
BLACK
6
CONTINUOUS
10
98.479574999999997
20
-113.1398669999999953
11
98.2850299999999919
21
-113.0931640000000016
0
LINE
8
BLACK
6
CONTINUOUS
10
98.2850299999999919
20
-113.0931640000000016
11
98.1001869999999911
21
-113.0166009999999943
0
LINE
8
BLACK
6
CONTINUOUS
10
98.1001869999999911
20
-113.0166009999999943
11
97.9295979999999986
21
-112.9120649999999983
0
LINE
8
BLACK
6
CONTINUOUS
10
97.9295979999999986
20
-112.9120649999999983
11
97.7774629999999974
21
-112.7821280000000002
0
LINE
8
BLACK
6
CONTINUOUS
10
97.7774629999999974
20
-112.7821280000000002
11
97.6475279999999941
21
-112.6299920000000014
0
LINE
8
BLACK
6
CONTINUOUS
10
97.6475279999999941
20
-112.6299920000000014
11
97.5429929999999956
21
-112.4594009999999997
0
LINE
8
BLACK
6
CONTINUOUS
10
97.5429929999999956
20
-112.4594009999999997
11
97.4664319999999975
21
-112.274557999999999
0
LINE
8
BLACK
6
CONTINUOUS
10
97.4664319999999975
20
-112.274557999999999
11
97.4197309999999987
21
-112.0800129999999939
0
LINE
8
BLACK
6
CONTINUOUS
10
97.4197309999999987
20
-112.0800129999999939
11
97.4040880000000016
21
-111.8811729999999898
0
LINE
8
BLACK
6
CONTINUOUS
10
97.4040880000000016
20
-111.8811729999999898
11
97.4040279999999967
21
-111.8805599999999885
0
LINE
8
BLACK
6
CONTINUOUS
10
97.4040279999999967
20
-111.8805599999999885
11
97.4040279999999967
21
-92.8305599999999913
0
LINE
8
BLACK
6
CONTINUOUS
10
97.4040279999999967
20
-92.8305599999999913
11
97.4040389999999974
21
-92.8304380000000009
0
LINE
8
BLACK
6
CONTINUOUS
10
97.4040389999999974
20
-92.8304380000000009
11
97.4040379999999999
21
-92.7496359999999953
0
LINE
8
BLACK
6
CONTINUOUS
10
97.4040379999999999
20
-92.7496359999999953
11
97.3759269999999901
21
-92.5902419999999893
0
LINE
8
BLACK
6
CONTINUOUS
10
97.3759269999999901
20
-92.5902419999999893
11
97.3205659999999995
21
-92.4381499999999932
0
LINE
8
BLACK
6
CONTINUOUS
10
97.3205659999999995
20
-92.4381499999999932
11
97.2396359999999902
21
-92.2979819999999904
0
LINE
8
BLACK
6
CONTINUOUS
10
97.2396359999999902
20
-92.2979819999999904
11
97.13559699999999
21
-92.1739949999999908
0
LINE
8
BLACK
6
CONTINUOUS
10
97.13559699999999
20
-92.1739949999999908
11
97.0116089999999929
21
-92.0699579999999997
0
LINE
8
BLACK
6
CONTINUOUS
10
97.0116089999999929
20
-92.0699579999999997
11
96.8714399999999927
21
-91.9890299999999996
0
LINE
8
BLACK
6
CONTINUOUS
10
96.8714399999999927
20
-91.9890299999999996
11
96.7193479999999965
21
-91.9336699999999922
0
LINE
8
BLACK
6
CONTINUOUS
10
96.7193479999999965
20
-91.9336699999999922
11
96.559952999999993
21
-91.9055609999999916
0
LINE
8
BLACK
6
CONTINUOUS
10
96.559952999999993
20
-91.9055609999999916
11
96.4790259999999904
21
-91.9055599999999941
0
LINE
8
BLACK
6
CONTINUOUS
10
96.4790259999999904
20
-91.9055599999999941
11
92.7390299999999996
21
-91.9055599999999941
0
LINE
8
BLACK
6
CONTINUOUS
10
92.7390299999999996
20
-91.9055599999999941
11
92.7390279999999905
21
-91.9055599999999941
0
LINE
8
BLACK
6
CONTINUOUS
10
92.7390279999999905
20
-91.9055599999999941
11
92.7390199999999965
21
-91.9055589999999967
0
LINE
8
BLACK
6
CONTINUOUS
10
92.7390199999999965
20
-91.9055589999999967
11
92.5395749999999992
21
-91.8898669999999953
0
LINE
8
BLACK
6
CONTINUOUS
10
92.5395749999999992
20
-91.8898669999999953
11
92.3450299999999942
21
-91.8431640000000016
0
LINE
8
BLACK
6
CONTINUOUS
10
92.3450299999999942
20
-91.8431640000000016
11
92.1601869999999934
21
-91.7666009999999943
0
LINE
8
BLACK
6
CONTINUOUS
10
92.1601869999999934
20
-91.7666009999999943
11
91.9895980000000009
21
-91.6620649999999983
0
LINE
8
BLACK
6
CONTINUOUS
10
91.9895980000000009
20
-91.6620649999999983
11
91.8374629999999996
21
-91.5321280000000002
0
LINE
8
BLACK
6
CONTINUOUS
10
91.8374629999999996
20
-91.5321280000000002
11
91.7075279999999964
21
-91.3799920000000014
0
LINE
8
BLACK
6
CONTINUOUS
10
91.7075279999999964
20
-91.3799920000000014
11
91.6029929999999979
21
-91.2094009999999997
0
LINE
8
BLACK
6
CONTINUOUS
10
91.6029929999999979
20
-91.2094009999999997
11
91.5264319999999998
21
-91.024557999999999
0
LINE
8
BLACK
6
CONTINUOUS
10
91.5264319999999998
20
-91.024557999999999
11
91.479731000000001
21
-90.8300129999999939
0
LINE
8
BLACK
6
CONTINUOUS
10
91.479731000000001
20
-90.8300129999999939
11
91.4640879999999896
21
-90.6311729999999898
0
LINE
8
BLACK
6
CONTINUOUS
10
91.4640879999999896
20
-90.6311729999999898
11
91.464027999999999
21
-90.6305600000000027
0
LINE
8
BLACK
6
CONTINUOUS
10
91.464027999999999
20
-90.6305600000000027
11
91.464027999999999
21
-84.3305599999999913
0
LINE
8
BLACK
6
CONTINUOUS
10
91.464027999999999
20
-84.3305599999999913
11
91.4640389999999996
21
-84.3304380000000009
0
LINE
8
BLACK
6
CONTINUOUS
10
91.4640389999999996
20
-84.3304380000000009
11
91.4640380000000022
21
-84.2496359999999953
0
LINE
8
BLACK
6
CONTINUOUS
10
91.4640380000000022
20
-84.2496359999999953
11
91.4359269999999924
21
-84.0902419999999893
0
LINE
8
BLACK
6
CONTINUOUS
10
91.4359269999999924
20
-84.0902419999999893
11
91.3805660000000017
21
-83.9381499999999932
0
LINE
8
BLACK
6
CONTINUOUS
10
91.3805660000000017
20
-83.9381499999999932
11
91.2996359999999925
21
-83.7979819999999904
0
LINE
8
BLACK
6
CONTINUOUS
10
91.2996359999999925
20
-83.7979819999999904
11
91.1955969999999922
21
-83.6739949999999908
0
LINE
8
BLACK
6
CONTINUOUS
10
91.1955969999999922
20
-83.6739949999999908
11
91.0716089999999951
21
-83.5699579999999997
0
LINE
8
BLACK
6
CONTINUOUS
10
91.0716089999999951
20
-83.5699579999999997
11
90.9314399999999949
21
-83.4890299999999996
0
LINE
8
BLACK
6
CONTINUOUS
10
90.9314399999999949
20
-83.4890299999999996
11
90.7793479999999988
21
-83.4336699999999922
0
LINE
8
BLACK
6
CONTINUOUS
10
90.7793479999999988
20
-83.4336699999999922
11
90.6199529999999953
21
-83.4055609999999916
0
LINE
8
BLACK
6
CONTINUOUS
10
90.6199529999999953
20
-83.4055609999999916
11
90.5390259999999927
21
-83.4055599999999941
0
LINE
8
BLACK
6
CONTINUOUS
10
90.5390259999999927
20
-83.4055599999999941
11
79.2417959999999937
21
-83.4055599999999941
0
LINE
8
BLACK
6
CONTINUOUS
10
79.2417959999999937
20
-83.4055599999999941
11
79.2417879999999997
21
-83.4055599999999941
0
LINE
8
BLACK
6
CONTINUOUS
10
79.2417879999999997
20
-83.4055599999999941
11
79.2410890000000023
21
-83.4054909999999978
0
LINE
8
BLACK
6
CONTINUOUS
10
79.2410890000000023
20
-83.4054909999999978
11
79.1572419999999966
21
-83.4053940000000011
0
LINE
8
BLACK
6
CONTINUOUS
10
79.1572419999999966
20
-83.4053940000000011
11
78.9909370000000024
21
-83.4360659999999967
0
LINE
8
BLACK
6
CONTINUOUS
10
78.9909370000000024
20
-83.4360659999999967
11
78.8329469999999901
21
-83.4963759999999979
0
LINE
8
BLACK
6
CONTINUOUS
10
78.8329469999999901
20
-83.4963759999999979
11
78.6885059999999896
21
-83.5843239999999952
0
LINE
8
BLACK
6
CONTINUOUS
10
78.6885059999999896
20
-83.5843239999999952
11
78.5623999999999967
21
-83.6969969999999961
0
LINE
8
BLACK
6
CONTINUOUS
10
78.5623999999999967
20
-83.6969969999999961
11
78.4588069999999931
21
-83.8306619999999896
0
LINE
8
BLACK
6
CONTINUOUS
10
78.4588069999999931
20
-83.8306619999999896
11
78.3811579999999992
21
-83.9808909999999997
0
LINE
8
BLACK
6
CONTINUOUS
10
78.3811579999999992
20
-83.9808909999999997
11
78.3320269999999965
21
-84.1427059999999898
0
LINE
8
BLACK
6
CONTINUOUS
10
78.3320269999999965
20
-84.1427059999999898
11
78.3130409999999983
21
-84.3107459999999946
0
LINE
8
BLACK
6
CONTINUOUS
10
78.3130409999999983
20
-84.3107459999999946
11
78.3190419999999961
21
-84.3950880000000012
0
LINE
8
BLACK
6
CONTINUOUS
10
78.3190419999999961
20
-84.3950880000000012
11
78.3190409999999986
21
-84.3950899999999962
0
LINE
8
BLACK
6
CONTINUOUS
10
78.3190409999999986
20
-84.3950899999999962
11
78.6686569999999961
21
-89.394841999999997
0
LINE
8
BLACK
6
CONTINUOUS
10
78.6686569999999961
20
-89.394841999999997
11
78.6686579999999935
21
-89.3948429999999945
0
LINE
8
BLACK
6
CONTINUOUS
10
78.6686579999999935
20
-89.3948429999999945
11
78.666915000000003
21
-89.5949059999999946
0
LINE
8
BLACK
6
CONTINUOUS
10
78.666915000000003
20
-89.5949059999999946
11
78.6338949999999954
21
-89.7922339999999934
0
LINE
8
BLACK
6
CONTINUOUS
10
78.6338949999999954
20
-89.7922339999999934
11
78.5704130000000021
21
-89.9819659999999999
0
LINE
8
BLACK
6
CONTINUOUS
10
78.5704130000000021
20
-89.9819659999999999
11
78.4780299999999897
21
-90.1594309999999979
0
LINE
8
BLACK
6
CONTINUOUS
10
78.4780299999999897
20
-90.1594309999999979
11
78.3590229999999934
21
-90.320258999999993
0
LINE
8
BLACK
6
CONTINUOUS
10
78.3590229999999934
20
-90.320258999999993
11
78.2163209999999935
21
-90.4604889999999955
0
LINE
8
BLACK
6
CONTINUOUS
10
78.2163209999999935
20
-90.4604889999999955
11
78.0534389999999973
21
-90.576667999999998
0
LINE
8
BLACK
6
CONTINUOUS
10
78.0534389999999973
20
-90.576667999999998
11
77.8743869999999987
21
-90.6659360000000021
0
LINE
8
BLACK
6
CONTINUOUS
10
77.8743869999999987
20
-90.6659360000000021
11
77.683573999999993
21
-90.7260950000000008
0
LINE
8
BLACK
6
CONTINUOUS
10
77.683573999999993
20
-90.7260950000000008
11
77.4856999999999942
21
-90.7556620000000009
0
LINE
8
BLACK
6
CONTINUOUS
10
77.4856999999999942
20
-90.7556620000000009
11
77.4857020000000034
21
-90.755677999999989
0
LINE
8
BLACK
6
CONTINUOUS
10
77.4857020000000034
20
-90.755677999999989
11
77.4855850000000004
21
-90.7556479999999937
0
LINE
8
BLACK
6
CONTINUOUS
10
77.4855850000000004
20
-90.7556479999999937
11
77.4852139999999991
21
-90.7557120000000026
0
LINE
8
BLACK
6
CONTINUOUS
10
77.4852139999999991
20
-90.7557120000000026
11
62.0262180000000001
21
-91.836708999999999
0
LINE
8
BLACK
6
CONTINUOUS
10
62.0262180000000001
20
-91.836708999999999
11
62.026213999999996
21
-91.8367099999999965
0
LINE
8
BLACK
6
CONTINUOUS
10
62.026213999999996
20
-91.8367099999999965
11
62.0261439999999951
21
-91.8367080000000016
0
LINE
8
BLACK
6
CONTINUOUS
10
62.0261439999999951
20
-91.8367080000000016
11
61.9418639999999954
21
-91.8424989999999895
0
LINE
8
BLACK
6
CONTINUOUS
10
61.9418639999999954
20
-91.8424989999999895
11
61.7781069999999985
21
-91.884687999999997
0
LINE
8
BLACK
6
CONTINUOUS
10
61.7781069999999985
20
-91.884687999999997
11
61.6247100000000003
21
-91.9558629999999937
0
LINE
8
BLACK
6
CONTINUOUS
10
61.6247100000000003
20
-91.9558629999999937
11
61.4867559999999997
21
-92.0536649999999952
0
LINE
8
BLACK
6
CONTINUOUS
10
61.4867559999999997
20
-92.0536649999999952
11
61.3688159999999954
21
-92.1748529999999988
0
LINE
8
BLACK
6
CONTINUOUS
10
61.3688159999999954
20
-92.1748529999999988
11
61.274797999999997
21
-92.3154129999999924
0
LINE
8
BLACK
6
CONTINUOUS
10
61.274797999999997
20
-92.3154129999999924
11
61.2078169999999986
21
-92.4706869999999981
0
LINE
8
BLACK
6
CONTINUOUS
10
61.2078169999999986
20
-92.4706869999999981
11
61.1700919999999968
21
-92.6355300000000028
0
LINE
8
BLACK
6
CONTINUOUS
10
61.1700919999999968
20
-92.6355300000000028
11
61.1628729999999976
21
-92.8044809999999956
0
LINE
8
BLACK
6
CONTINUOUS
10
61.1628729999999976
20
-92.8044809999999956
11
61.1747419999999948
21
-92.8881959999999935
0
LINE
8
BLACK
6
CONTINUOUS
10
61.1747419999999948
20
-92.8881959999999935
11
61.1747409999999974
21
-92.8881999999999977
0
LINE
8
BLACK
6
CONTINUOUS
10
61.1747409999999974
20
-92.8881999999999977
11
62.4874170000000007
21
-102.2283699999999982
0
LINE
8
BLACK
6
CONTINUOUS
10
62.4874170000000007
20
-102.2283699999999982
11
62.4874189999999956
21
-102.2284229999999923
0
LINE
8
BLACK
6
CONTINUOUS
10
62.4874189999999956
20
-102.2284229999999923
11
62.4996279999999942
21
-102.4280679999999961
0
LINE
8
BLACK
6
CONTINUOUS
10
62.4996279999999942
20
-102.4280679999999961
11
62.4804499999999976
21
-102.62721599999999
0
LINE
8
BLACK
6
CONTINUOUS
10
62.4804499999999976
20
-102.62721599999999
11
62.4303549999999987
21
-102.8209129999999902
0
LINE
8
BLACK
6
CONTINUOUS
10
62.4303549999999987
20
-102.8209129999999902
11
62.3505759999999967
21
-103.0043889999999891
0
LINE
8
BLACK
6
CONTINUOUS
10
62.3505759999999967
20
-103.0043889999999891
11
62.2430789999999945
21
-103.1731259999999963
0
LINE
8
BLACK
6
CONTINUOUS
10
62.2430789999999945
20
-103.1731259999999963
11
62.1105090000000004
21
-103.322969999999998
0
LINE
8
BLACK
6
CONTINUOUS
10
62.1105090000000004
20
-103.322969999999998
11
61.9561319999999967
21
-103.4502310000000023
0
LINE
8
BLACK
6
CONTINUOUS
10
61.9561319999999967
20
-103.4502310000000023
11
61.7837469999999982
21
-103.5517749999999921
0
LINE
8
BLACK
6
CONTINUOUS
10
61.7837469999999982
20
-103.5517749999999921
11
61.5975989999999953
21
-103.6251039999999932
0
LINE
8
BLACK
6
CONTINUOUS
10
61.5975989999999953
20
-103.6251039999999932
11
61.4075829999999954
21
-103.6672319999999985
0
LINE
8
BLACK
6
CONTINUOUS
10
61.4075829999999954
20
-103.6672319999999985
11
61.4064649999999972
21
-103.6676959999999923
0
LINE
8
BLACK
6
CONTINUOUS
10
61.4064649999999972
20
-103.6676959999999923
11
61.4047160000000005
21
-103.6678679999999986
0
LINE
8
BLACK
6
CONTINUOUS
10
61.4047160000000005
20
-103.6678679999999986
11
61.4022729999999939
21
-103.6684099999999944
0
LINE
8
BLACK
6
CONTINUOUS
10
61.4022729999999939
20
-103.6684099999999944
11
61.4022719999999964
21
-103.668407000000002
0
LINE
8
BLACK
6
CONTINUOUS
10
61.4022719999999964
20
-103.668407000000002
11
61.4022709999999989
21
-103.6684059999999903
0
LINE
8
BLACK
6
CONTINUOUS
10
61.4022709999999989
20
-103.6684059999999903
11
61.4022709999999989
21
-103.668407000000002
0
LINE
8
BLACK
6
CONTINUOUS
10
61.4022709999999989
20
-103.668407000000002
11
41.5969100000000012
21
-106.4518690000000021
0
LINE
8
BLACK
6
CONTINUOUS
10
41.5969100000000012
20
-106.4518690000000021
11
41.5969079999999991
21
-106.4518690000000021
0
LINE
8
BLACK
6
CONTINUOUS
10
41.5969079999999991
20
-106.4518690000000021
11
41.5969070000000016
21
-106.4518699999999995
0
LINE
8
BLACK
6
CONTINUOUS
10
41.5969070000000016
20
-106.4518699999999995
11
41.5969070000000016
21
-106.4518690000000021
0
LINE
8
BLACK
6
CONTINUOUS
10
41.5969070000000016
20
-106.4518690000000021
11
41.596899999999998
21
-106.4518690000000021
0
LINE
8
BLACK
6
CONTINUOUS
10
41.596899999999998
20
-106.4518690000000021
11
41.3972100000000012
21
-106.4640759999999915
0
LINE
8
BLACK
6
CONTINUOUS
10
41.3972100000000012
20
-106.4640759999999915
11
41.1980629999999977
21
-106.444896
0
LINE
8
BLACK
6
CONTINUOUS
10
41.1980629999999977
20
-106.444896
11
41.0043669999999949
21
-106.3947999999999894
0
LINE
8
BLACK
6
CONTINUOUS
10
41.0043669999999949
20
-106.3947999999999894
11
40.820890999999996
21
-106.3150210000000015
0
LINE
8
BLACK
6
CONTINUOUS
10
40.820890999999996
20
-106.3150210000000015
11
40.6521539999999959
21
-106.2075249999999897
0
LINE
8
BLACK
6
CONTINUOUS
10
40.6521539999999959
20
-106.2075249999999897
11
40.5023089999999968
21
-106.0749569999999977
0
LINE
8
BLACK
6
CONTINUOUS
10
40.5023089999999968
20
-106.0749569999999977
11
40.3750450000000001
21
-105.920581999999996
0
LINE
8
BLACK
6
CONTINUOUS
10
40.3750450000000001
20
-105.920581999999996
11
40.2734960000000015
21
-105.7481999999999971
0
LINE
8
BLACK
6
CONTINUOUS
10
40.2734960000000015
20
-105.7481999999999971
11
40.2001619999999988
21
-105.5620550000000009
0
LINE
8
BLACK
6
CONTINUOUS
10
40.2001619999999988
20
-105.5620550000000009
11
40.1579979999999992
21
-105.3719210000000004
0
LINE
8
BLACK
6
CONTINUOUS
10
40.1579979999999992
20
-105.3719210000000004
11
40.1575829999999954
21
-105.3709169999999915
0
LINE
8
BLACK
6
CONTINUOUS
10
40.1575829999999954
20
-105.3709169999999915
11
40.1575829999999954
21
-105.3700449999999904
0
LINE
8
BLACK
6
CONTINUOUS
10
40.1575829999999954
20
-105.3700449999999904
11
40.1568479999999965
21
-105.3667310000000015
0
LINE
8
BLACK
6
CONTINUOUS
10
40.1568479999999965
20
-105.3667310000000015
11
40.1568729999999974
21
-105.3667269999999974
0
LINE
8
BLACK
6
CONTINUOUS
10
40.1568729999999974
20
-105.3667269999999974
11
40.1568719999999999
21
-105.3667229999999932
0
LINE
8
BLACK
6
CONTINUOUS
10
40.1568719999999999
20
-105.3667229999999932
11
32.780698000000001
21
-52.8825159999999954
0
LINE
8
BLACK
6
CONTINUOUS
10
32.780698000000001
20
-52.8825159999999954
11
32.7806969999999964
21
-52.8825089999999989
0
LINE
8
BLACK
6
CONTINUOUS
10
32.7806969999999964
20
-52.8825089999999989
11
32.7684889999999953
21
-52.682818999999995
0
LINE
8
BLACK
6
CONTINUOUS
10
32.7684889999999953
20
-52.682818999999995
11
32.7876690000000011
21
-52.483672999999996
0
LINE
8
BLACK
6
CONTINUOUS
10
32.7876690000000011
20
-52.483672999999996
11
32.8377649999999974
21
-52.2899789999999953
0
LINE
8
BLACK
6
CONTINUOUS
10
32.8377649999999974
20
-52.2899789999999953
11
32.9175449999999969
21
-52.106505999999996
0
LINE
8
BLACK
6
CONTINUOUS
10
32.9175449999999969
20
-52.106505999999996
11
33.0250429999999966
21
-51.9377719999999954
0
LINE
8
BLACK
6
CONTINUOUS
10
33.0250429999999966
20
-51.9377719999999954
11
33.1576129999999978
21
-51.7879310000000004
0
LINE
8
BLACK
6
CONTINUOUS
10
33.1576129999999978
20
-51.7879310000000004
11
33.311990999999999
21
-51.6606729999999956
0
LINE
8
BLACK
6
CONTINUOUS
10
33.311990999999999
20
-51.6606729999999956
11
33.4843759999999975
21
-51.5591319999999982
0
LINE
8
BLACK
6
CONTINUOUS
10
33.4843759999999975
20
-51.5591319999999982
11
33.6705219999999983
21
-51.4858059999999966
0
LINE
8
BLACK
6
CONTINUOUS
10
33.6705219999999983
20
-51.4858059999999966
11
33.8603799999999993
21
-51.4437139999999999
0
LINE
8
BLACK
6
CONTINUOUS
10
33.8603799999999993
20
-51.4437139999999999
11
33.8616499999999974
21
-51.4431889999999967
0
LINE
8
BLACK
6
CONTINUOUS
10
33.8616499999999974
20
-51.4431889999999967
11
33.8636339999999976
21
-51.4429929999999942
0
LINE
8
BLACK
6
CONTINUOUS
10
33.8636339999999976
20
-51.4429929999999942
11
33.8646010000000004
21
-51.4427789999999945
0
LINE
8
BLACK
6
CONTINUOUS
10
33.8646010000000004
20
-51.4427789999999945
11
33.8658439999999956
21
-51.4424779999999942
0
LINE
8
BLACK
6
CONTINUOUS
10
33.8658439999999956
20
-51.4424779999999942
11
52.3653240000000011
21
-48.8425459999999987
0
LINE
8
BLACK
6
CONTINUOUS
10
52.3653240000000011
20
-48.8425459999999987
11
52.3655849999999958
21
-48.842534999999998
0
LINE
8
BLACK
6
CONTINUOUS
10
52.3655849999999958
20
-48.842534999999998
11
52.4515329999999977
21
-48.8305719999999965
0
LINE
8
BLACK
6
CONTINUOUS
10
52.4515329999999977
20
-48.8305719999999965
11
52.6163759999999954
21
-48.774602999999999
0
LINE
8
BLACK
6
CONTINUOUS
10
52.6163759999999954
20
-48.774602999999999
11
52.7678879999999992
21
-48.6888719999999964
0
LINE
8
BLACK
6
CONTINUOUS
10
52.7678879999999992
20
-48.6888719999999964
11
52.9007529999999946
21
-48.5763879999999943
0
LINE
8
BLACK
6
CONTINUOUS
10
52.9007529999999946
20
-48.5763879999999943
11
53.0103059999999999
21
-48.4410959999999946
0
LINE
8
BLACK
6
CONTINUOUS
10
53.0103059999999999
20
-48.4410959999999946
11
53.0927049999999952
21
-48.2877459999999985
0
LINE
8
BLACK
6
CONTINUOUS
10
53.0927049999999952
20
-48.2877459999999985
11
53.1450569999999942
21
-48.1217189999999988
0
LINE
8
BLACK
6
CONTINUOUS
10
53.1450569999999942
20
-48.1217189999999988
11
53.1655239999999978
21
-47.9488409999999945
0
LINE
8
BLACK
6
CONTINUOUS
10
53.1655239999999978
20
-47.9488409999999945
11
53.1593349999999987
21
-47.8620189999999965
0
LINE
8
BLACK
6
CONTINUOUS
10
53.1593349999999987
20
-47.8620189999999965
11
53.1593349999999987
21
-47.862015999999997
0
LINE
8
BLACK
6
CONTINUOUS
10
53.1593349999999987
20
-47.862015999999997
11
52.4764959999999974
21
-38.0969580000000008
0
LINE
8
BLACK
6
CONTINUOUS
10
52.4764959999999974
20
-38.0969580000000008
11
52.4764959999999974
21
-38.0969569999999962
0
LINE
8
BLACK
6
CONTINUOUS
10
52.4764959999999974
20
-38.0969569999999962
11
52.478238999999995
21
-37.8968980000000002
0
LINE
8
BLACK
6
CONTINUOUS
10
52.478238999999995
20
-37.8968980000000002
11
52.5112589999999955
21
-37.6995730000000009
0
LINE
8
BLACK
6
CONTINUOUS
10
52.5112589999999955
20
-37.6995730000000009
11
52.5747420000000005
21
-37.5098429999999965
0
LINE
8
BLACK
6
CONTINUOUS
10
52.5747420000000005
20
-37.5098429999999965
11
52.6671259999999961
21
-37.3323819999999955
0
LINE
8
BLACK
6
CONTINUOUS
10
52.6671259999999961
20
-37.3323819999999955
11
52.7861349999999945
21
-37.1715579999999974
0
LINE
8
BLACK
6
CONTINUOUS
10
52.7861349999999945
20
-37.1715579999999974
11
52.9288379999999989
21
-37.031331999999999
0
LINE
8
BLACK
6
CONTINUOUS
10
52.9288379999999989
20
-37.031331999999999
11
53.0917219999999972
21
-36.9151579999999981
0
LINE
8
BLACK
6
CONTINUOUS
10
53.0917219999999972
20
-36.9151579999999981
11
53.2707750000000004
21
-36.8258969999999977
0
LINE
8
BLACK
6
CONTINUOUS
10
53.2707750000000004
20
-36.8258969999999977
11
53.4615869999999944
21
-36.765746
0
LINE
8
BLACK
6
CONTINUOUS
10
53.4615869999999944
20
-36.765746
11
53.656253999999997
21
-36.7366659999999996
0
LINE
8
BLACK
6
CONTINUOUS
10
53.656253999999997
20
-36.7366659999999996
11
53.6594499999999996
21
-36.7361250000000013
0
LINE
8
BLACK
6
CONTINUOUS
10
53.6594499999999996
20
-36.7361250000000013
11
53.6594559999999987
21
-36.7361239999999967
0
LINE
8
BLACK
6
CONTINUOUS
10
53.6594559999999987
20
-36.7361239999999967
11
53.6594569999999962
21
-36.7361239999999967
0
LINE
8
BLACK
6
CONTINUOUS
10
53.6594569999999962
20
-36.7361239999999967
11
72.6035529999999909
21
-35.4114239999999967
0
LINE
8
BLACK
6
CONTINUOUS
10
72.6035529999999909
20
-35.4114239999999967
11
72.6035550000000001
21
-35.4114239999999967
0
LINE
8
BLACK
6
CONTINUOUS
10
72.6035550000000001
20
-35.4114239999999967
11
72.6035579999999925
21
-35.4114229999999992
0
LINE
8
BLACK
6
CONTINUOUS
10
72.6035579999999925
20
-35.4114229999999992
11
72.6035540000000026
21
-35.4113789999999966
0
LINE
8
BLACK
6
CONTINUOUS
10
72.6035540000000026
20
-35.4113789999999966
11
72.6903920000000028
21
-35.4054349999999971
0
LINE
8
BLACK
6
CONTINUOUS
10
72.6903920000000028
20
-35.4054349999999971
11
72.8587409999999949
21
-35.3611229999999992
0
LINE
8
BLACK
6
CONTINUOUS
10
72.8587409999999949
20
-35.3611229999999992
11
73.0158679999999976
21
-35.2861860000000007
0
LINE
8
BLACK
6
CONTINUOUS
10
73.0158679999999976
20
-35.2861860000000007
11
73.1562600000000032
21
-35.183253999999998
0
LINE
8
BLACK
6
CONTINUOUS
10
73.1562600000000032
20
-35.183253999999998
11
73.2749859999999984
21
-35.0559420000000017
0
LINE
8
BLACK
6
CONTINUOUS
10
73.2749859999999984
20
-35.0559420000000017
11
73.367880999999997
21
-34.9087169999999958
0
LINE
8
BLACK
6
CONTINUOUS
10
73.367880999999997
20
-34.9087169999999958
11
73.431681999999995
21
-34.7467469999999992
0
LINE
8
BLACK
6
CONTINUOUS
10
73.431681999999995
20
-34.7467469999999992
11
73.4641510000000011
21
-34.5757199999999969
0
LINE
8
BLACK
6
CONTINUOUS
10
73.4641510000000011
20
-34.5757199999999969
11
73.464027999999999
21
-34.4886789999999976
0
LINE
8
BLACK
6
CONTINUOUS
10
73.464027999999999
20
-34.4886789999999976
11
73.464027999999999
21
-34.4886780000000002
0
LINE
8
BLACK
6
CONTINUOUS
10
73.464027999999999
20
-34.4886780000000002
11
73.464027999999999
21
-34.4886769999999956
0
LINE
8
BLACK
6
CONTINUOUS
10
73.464027999999999
20
-34.4886769999999956
11
73.464027999999999
21
-29.1305599999999991
0
LINE
8
BLACK
6
CONTINUOUS
10
73.464027999999999
20
-29.1305599999999991
11
73.464027999999999
21
-29.1305569999999996
0
LINE
8
BLACK
6
CONTINUOUS
10
73.464027999999999
20
-29.1305569999999996
11
73.479731000000001
21
-28.9311049999999987
0
LINE
8
BLACK
6
CONTINUOUS
10
73.479731000000001
20
-28.9311049999999987
11
73.5264399999999938
21
-28.7365630000000003
0
LINE
8
BLACK
6
CONTINUOUS
10
73.5264399999999938
20
-28.7365630000000003
11
73.6030059999999935
21
-28.5517229999999991
0
LINE
8
BLACK
6
CONTINUOUS
10
73.6030059999999935
20
-28.5517229999999991
11
73.7075420000000037
21
-28.3811359999999979
0
LINE
8
BLACK
6
CONTINUOUS
10
73.7075420000000037
20
-28.3811359999999979
11
73.8374759999999952
21
-28.2289999999999992
0
LINE
8
BLACK
6
CONTINUOUS
10
73.8374759999999952
20
-28.2289999999999992
11
73.9896079999999898
21
-28.099062
0
LINE
8
BLACK
6
CONTINUOUS
10
73.9896079999999898
20
-28.099062
11
74.1601929999999925
21
-27.9945209999999989
0
LINE
8
BLACK
6
CONTINUOUS
10
74.1601929999999925
20
-27.9945209999999989
11
74.3450309999999916
21
-27.9179509999999986
0
LINE
8
BLACK
6
CONTINUOUS
10
74.3450309999999916
20
-27.9179509999999986
11
74.5395709999999951
21
-27.8712359999999997
0
LINE
8
BLACK
6
CONTINUOUS
10
74.5395709999999951
20
-27.8712359999999997
11
74.7390230000000031
21
-27.8555279999999996
0
LINE
8
BLACK
6
CONTINUOUS
10
74.7390230000000031
20
-27.8555279999999996
11
74.7390240000000006
21
-27.855559999999997
0
LINE
8
BLACK
6
CONTINUOUS
10
74.6406070000000028
20
-28.0055329999999998
11
74.446748999999997
21
-28.0397249999999971
0
LINE
8
BLACK
6
CONTINUOUS
10
74.446748999999997
20
-28.0397249999999971
11
74.2617729999999909
21
-28.1070589999999996
0
LINE
8
BLACK
6
CONTINUOUS
10
74.2617729999999909
20
-28.1070589999999996
11
74.0912979999999948
21
-28.2054899999999975
0
LINE
8
BLACK
6
CONTINUOUS
10
74.0912979999999948
20
-28.2054899999999975
11
73.94050399999999
21
-28.332024999999998
0
LINE
8
BLACK
6
CONTINUOUS
10
73.94050399999999
20
-28.332024999999998
11
73.8139719999999926
21
-28.4828229999999998
0
LINE
8
BLACK
6
CONTINUOUS
10
73.8139719999999926
20
-28.4828229999999998
11
73.7155470000000008
21
-28.653299999999998
0
LINE
8
BLACK
6
CONTINUOUS
10
73.7155470000000008
20
-28.653299999999998
11
73.648218
21
-28.838277999999999
0
LINE
8
BLACK
6
CONTINUOUS
10
73.648218
20
-28.838277999999999
11
73.6140299999999996
21
-29.0321369999999987
0
LINE
8
BLACK
6
CONTINUOUS
10
73.6140299999999996
20
-29.0321369999999987
11
73.6140279999999905
21
-29.1305569999999996
0
LINE
8
BLACK
6
CONTINUOUS
10
73.6140279999999905
20
-29.1305569999999996
11
73.6140279999999905
21
-29.1305599999999991
0
LINE
8
BLACK
6
CONTINUOUS
10
73.6140279999999905
20
-29.1305599999999991
11
73.6140279999999905
21
-34.4886750000000006
0
LINE
8
BLACK
6
CONTINUOUS
10
73.6140279999999905
20
-34.4886750000000006
11
73.5991159999999951
21
-34.6671289999999956
0
LINE
8
BLACK
6
CONTINUOUS
10
73.5991159999999951
20
-34.6671289999999956
11
73.5547849999999954
21
-34.8406299999999973
0
LINE
8
BLACK
6
CONTINUOUS
10
73.5547849999999954
20
-34.8406299999999973
11
73.4822649999999982
21
-35.004365
0
LINE
8
BLACK
6
CONTINUOUS
10
73.4822649999999982
20
-35.004365
11
73.3835689999999943
21
-35.1537879999999987
0
LINE
8
BLACK
6
CONTINUOUS
10
73.3835689999999943
20
-35.1537879999999987
11
73.2614370000000008
21
-35.2847519999999975
0
LINE
8
BLACK
6
CONTINUOUS
10
73.2614370000000008
20
-35.2847519999999975
11
73.1192569999999904
21
-35.3936239999999955
0
LINE
8
BLACK
6
CONTINUOUS
10
73.1192569999999904
20
-35.3936239999999955
11
72.9609769999999997
21
-35.4773810000000012
0
LINE
8
BLACK
6
CONTINUOUS
10
72.9609769999999997
20
-35.4773810000000012
11
72.7909870000000012
21
-35.5336989999999986
0
LINE
8
BLACK
6
CONTINUOUS
10
72.7909870000000012
20
-35.5336989999999986
11
72.6169319999999914
21
-35.5605630000000019
0
LINE
8
BLACK
6
CONTINUOUS
10
72.6169319999999914
20
-35.5605630000000019
11
72.6140159999999923
21
-35.5610579999999956
0
LINE
8
BLACK
6
CONTINUOUS
10
72.6140159999999923
20
-35.5610579999999956
11
72.6140089999999958
21
-35.5610579999999956
0
LINE
8
BLACK
6
CONTINUOUS
10
72.6140089999999958
20
-35.5610579999999956
11
72.6140099999999933
21
-35.5610590000000002
0
LINE
8
BLACK
6
CONTINUOUS
10
72.6140099999999933
20
-35.5610590000000002
11
72.6140079999999983
21
-35.5610579999999956
0
LINE
8
BLACK
6
CONTINUOUS
10
72.6140079999999983
20
-35.5610579999999956
11
53.6699139999999986
21
-36.8857590000000002
0
LINE
8
BLACK
6
CONTINUOUS
10
53.6699139999999986
20
-36.8857590000000002
11
53.6699099999999945
21
-36.8857579999999956
0
LINE
8
BLACK
6
CONTINUOUS
10
53.6699099999999945
20
-36.8857579999999956
11
53.6699079999999995
21
-36.8857599999999977
0
LINE
8
BLACK
6
CONTINUOUS
10
53.6699079999999995
20
-36.8857599999999977
11
53.6699130000000011
21
-36.8858229999999949
0
LINE
8
BLACK
6
CONTINUOUS
10
53.6699130000000011
20
-36.8858229999999949
11
53.5717289999999977
21
-36.8926820000000006
0
LINE
8
BLACK
6
CONTINUOUS
10
53.5717289999999977
20
-36.8926820000000006
11
53.3807279999999977
21
-36.9402919999999995
0
LINE
8
BLACK
6
CONTINUOUS
10
53.3807279999999977
20
-36.9402919999999995
11
53.2008960000000002
21
-37.0203459999999964
0
LINE
8
BLACK
6
CONTINUOUS
10
53.2008960000000002
20
-37.0203459999999964
11
53.0376989999999964
21
-37.1304140000000018
0
LINE
8
BLACK
6
CONTINUOUS
10
53.0376989999999964
20
-37.1304140000000018
11
52.896096
21
-37.2671500000000009
0
LINE
8
BLACK
6
CONTINUOUS
10
52.896096
20
-37.2671500000000009
11
52.7803889999999996
21
-37.4263989999999964
0
LINE
8
BLACK
6
CONTINUOUS
10
52.7803889999999996
20
-37.4263989999999964
11
52.6940959999999947
21
-37.6033219999999986
0
LINE
8
BLACK
6
CONTINUOUS
10
52.6940959999999947
20
-37.6033219999999986
11
52.6398379999999975
21
-37.7925419999999974
0
LINE
8
BLACK
6
CONTINUOUS
10
52.6398379999999975
20
-37.7925419999999974
11
52.6192640000000011
21
-37.9883099999999985
0
LINE
8
BLACK
6
CONTINUOUS
10
52.6192640000000011
20
-37.9883099999999985
11
52.6261310000000009
21
-38.0864929999999973
0
LINE
8
BLACK
6
CONTINUOUS
10
52.6261310000000009
20
-38.0864929999999973
11
52.6261299999999963
21
-38.0864929999999973
0
LINE
8
BLACK
6
CONTINUOUS
10
52.6261299999999963
20
-38.0864929999999973
11
52.6261299999999963
21
-38.0864939999999947
0
LINE
8
BLACK
6
CONTINUOUS
10
52.6261299999999963
20
-38.0864939999999947
11
53.3089699999999951
21
-47.8515589999999946
0
LINE
8
BLACK
6
CONTINUOUS
10
53.3089699999999951
20
-47.8515589999999946
11
53.3089689999999976
21
-47.8515599999999992
0
LINE
8
BLACK
6
CONTINUOUS
10
53.3089689999999976
20
-47.8515599999999992
11
53.3089709999999997
21
-47.8515629999999987
0
LINE
8
BLACK
6
CONTINUOUS
10
53.3089709999999997
20
-47.8515629999999987
11
53.3089699999999951
21
-47.8515629999999987
0
LINE
8
BLACK
6
CONTINUOUS
10
53.3089699999999951
20
-47.8515629999999987
11
53.3065309999999997
21
-48.0306209999999965
0
LINE
8
BLACK
6
CONTINUOUS
10
53.3065309999999997
20
-48.0306209999999965
11
53.274403999999997
21
-48.206789999999998
0
LINE
8
BLACK
6
CONTINUOUS
10
53.274403999999997
20
-48.206789999999998
11
53.2134809999999945
21
-48.3751829999999998
0
LINE
8
BLACK
6
CONTINUOUS
10
53.2134809999999945
20
-48.3751829999999998
11
53.1254509999999982
21
-48.5311269999999979
0
LINE
8
BLACK
6
CONTINUOUS
10
53.1254509999999982
20
-48.5311269999999979
11
53.012757999999998
21
-48.6702949999999959
0
LINE
8
BLACK
6
CONTINUOUS
10
53.012757999999998
20
-48.6702949999999959
11
52.8785279999999958
21
-48.7888269999999977
0
LINE
8
BLACK
6
CONTINUOUS
10
52.8785279999999958
20
-48.7888269999999977
11
52.7264839999999992
21
-48.8834340000000012
0
LINE
8
BLACK
6
CONTINUOUS
10
52.7264839999999992
20
-48.8834340000000012
11
52.560845999999998
21
-48.9514909999999972
0
LINE
8
BLACK
6
CONTINUOUS
10
52.560845999999998
20
-48.9514909999999972
11
52.3862099999999984
21
-48.991109999999999
0
LINE
8
BLACK
6
CONTINUOUS
10
52.3862099999999984
20
-48.991109999999999
11
52.3862059999999943
21
-48.9910849999999982
0
LINE
8
BLACK
6
CONTINUOUS
10
52.3862059999999943
20
-48.9910849999999982
11
52.3862039999999993
21
-48.9910840000000007
0
LINE
8
BLACK
6
CONTINUOUS
10
52.3862039999999993
20
-48.9910840000000007
11
52.3861999999999952
21
-48.9910859999999957
0
LINE
8
BLACK
6
CONTINUOUS
10
52.3861999999999952
20
-48.9910859999999957
11
33.8867199999999968
21
-51.5910179999999983
0
LINE
8
BLACK
6
CONTINUOUS
10
33.8867199999999968
20
-51.5910179999999983
11
33.886724000000001
21
-51.5910429999999991
0
LINE
8
BLACK
6
CONTINUOUS
10
33.886724000000001
20
-51.5910429999999991
11
33.7892590000000013
21
-51.6047419999999946
0
LINE
8
BLACK
6
CONTINUOUS
10
33.7892590000000013
20
-51.6047419999999946
11
33.6020460000000014
21
-51.6655709999999999
0
LINE
8
BLACK
6
CONTINUOUS
10
33.6020460000000014
20
-51.6655709999999999
11
33.4282409999999999
21
-51.7579849999999979
0
LINE
8
BLACK
6
CONTINUOUS
10
33.4282409999999999
20
-51.7579849999999979
11
33.2731229999999982
21
-51.8791749999999965
0
LINE
8
BLACK
6
CONTINUOUS
10
33.2731229999999982
20
-51.8791749999999965
11
33.1414059999999964
21
-52.0254589999999979
0
LINE
8
BLACK
6
CONTINUOUS
10
33.1414059999999964
20
-52.0254589999999979
11
33.0370909999999967
21
-52.1923929999999956
0
LINE
8
BLACK
6
CONTINUOUS
10
33.0370909999999967
20
-52.1923929999999956
11
32.9633479999999963
21
-52.3749049999999983
0
LINE
8
BLACK
6
CONTINUOUS
10
32.9633479999999963
20
-52.3749049999999983
11
32.9224169999999958
21
-52.5674489999999963
0
LINE
8
BLACK
6
CONTINUOUS
10
32.9224169999999958
20
-52.5674489999999963
11
32.9155429999999996
21
-52.7641759999999991
0
LINE
8
BLACK
6
CONTINUOUS
10
32.9155429999999996
20
-52.7641759999999991
11
32.9292370000000005
21
-52.8616369999999947
0
LINE
8
BLACK
6
CONTINUOUS
10
32.9292370000000005
20
-52.8616369999999947
11
32.929237999999998
21
-52.8616399999999942
0
LINE
8
BLACK
6
CONTINUOUS
10
32.929237999999998
20
-52.8616399999999942
11
40.3054119999999969
21
-105.345846999999992
0
LINE
8
BLACK
6
CONTINUOUS
10
40.3054119999999969
20
-105.345846999999992
11
40.3054220000000001
21
-105.3460970000000003
0
LINE
8
BLACK
6
CONTINUOUS
10
40.3054220000000001
20
-105.3460970000000003
11
40.3190899999999957
21
-105.4433119999999917
0
LINE
8
BLACK
6
CONTINUOUS
10
40.3190899999999957
20
-105.4433119999999917
11
40.3799289999999971
21
-105.6305249999999916
0
LINE
8
BLACK
6
CONTINUOUS
10
40.3799289999999971
20
-105.6305249999999916
11
40.4723509999999962
21
-105.8043289999999956
0
LINE
8
BLACK
6
CONTINUOUS
10
40.4723509999999962
20
-105.8043289999999956
11
40.5935479999999984
21
-105.9594459999999998
0
LINE
8
BLACK
6
CONTINUOUS
10
40.5935479999999984
20
-105.9594459999999998
11
40.7398379999999989
21
-106.0911609999999996
0
LINE
8
BLACK
6
CONTINUOUS
10
40.7398379999999989
20
-106.0911609999999996
11
40.9067769999999982
21
-106.1954750000000018
0
LINE
8
BLACK
6
CONTINUOUS
10
40.9067769999999982
20
-106.1954750000000018
11
41.0892920000000004
21
-106.2692169999999976
0
LINE
8
BLACK
6
CONTINUOUS
10
41.0892920000000004
20
-106.2692169999999976
11
41.2818399999999954
21
-106.3101479999999981
0
LINE
8
BLACK
6
CONTINUOUS
10
41.2818399999999954
20
-106.3101479999999981
11
41.4785690000000002
21
-106.3170229999999918
0
LINE
8
BLACK
6
CONTINUOUS
10
41.4785690000000002
20
-106.3170229999999918
11
41.5760369999999995
21
-106.3033279999999934
0
LINE
8
BLACK
6
CONTINUOUS
10
41.5760369999999995
20
-106.3033279999999934
11
41.5760379999999969
21
-106.3033279999999934
0
LINE
8
BLACK
6
CONTINUOUS
10
41.5760379999999969
20
-106.3033279999999934
11
61.3813929999999957
21
-103.5198669999999908
0
LINE
8
BLACK
6
CONTINUOUS
10
61.3813929999999957
20
-103.5198669999999908
11
61.3813940000000002
21
-103.5198669999999908
0
LINE
8
BLACK
6
CONTINUOUS
10
61.3813940000000002
20
-103.5198669999999908
11
61.3813949999999977
21
-103.5198669999999908
0
LINE
8
BLACK
6
CONTINUOUS
10
61.3813949999999977
20
-103.5198669999999908
11
61.3814229999999981
21
-103.5198649999999958
0
LINE
8
BLACK
6
CONTINUOUS
10
61.3814229999999981
20
-103.5198649999999958
11
61.4788599999999974
21
-103.5061699999999973
0
LINE
8
BLACK
6
CONTINUOUS
10
61.4788599999999974
20
-103.5061699999999973
11
61.6660739999999947
21
-103.4453379999999925
0
LINE
8
BLACK
6
CONTINUOUS
10
61.6660739999999947
20
-103.4453379999999925
11
61.8398799999999937
21
-103.3529209999999949
0
LINE
8
BLACK
6
CONTINUOUS
10
61.8398799999999937
20
-103.3529209999999949
11
61.9949979999999954
21
-103.2317269999999922
0
LINE
8
BLACK
6
CONTINUOUS
10
61.9949979999999954
20
-103.2317269999999922
11
62.1267149999999972
21
-103.0854399999999913
0
LINE
8
BLACK
6
CONTINUOUS
10
62.1267149999999972
20
-103.0854399999999913
11
62.2310289999999995
21
-102.9185019999999895
0
LINE
8
BLACK
6
CONTINUOUS
10
62.2310289999999995
20
-102.9185019999999895
11
62.3047709999999952
21
-102.7359879999999919
0
LINE
8
BLACK
6
CONTINUOUS
10
62.3047709999999952
20
-102.7359879999999919
11
62.3456999999999937
21
-102.5434410000000014
0
LINE
8
BLACK
6
CONTINUOUS
10
62.3456999999999937
20
-102.5434410000000014
11
62.352571999999995
21
-102.3467119999999966
0
LINE
8
BLACK
6
CONTINUOUS
10
62.352571999999995
20
-102.3467119999999966
11
62.3388759999999991
21
-102.2492450000000019
0
LINE
8
BLACK
6
CONTINUOUS
10
62.3388759999999991
20
-102.2492450000000019
11
62.3388769999999965
21
-102.2492450000000019
0
LINE
8
BLACK
6
CONTINUOUS
10
62.3388769999999965
20
-102.2492450000000019
11
61.0261999999999958
21
-92.9090679999999907
0
LINE
8
BLACK
6
CONTINUOUS
10
61.0261999999999958
20
-92.9090679999999907
11
61.0261959999999988
21
-92.9089910000000003
0
LINE
8
BLACK
6
CONTINUOUS
10
61.0261959999999988
20
-92.9089910000000003
11
61.0160679999999971
21
-92.7331909999999908
0
LINE
8
BLACK
6
CONTINUOUS
10
61.0160679999999971
20
-92.7331909999999908
11
61.034793999999998
21
-92.558023999999989
0
LINE
8
BLACK
6
CONTINUOUS
10
61.034793999999998
20
-92.558023999999989
11
61.0818759999999941
21
-92.388266999999999
0
LINE
8
BLACK
6
CONTINUOUS
10
61.0818759999999941
20
-92.388266999999999
11
61.1560500000000005
21
-92.228478999999993
0
LINE
8
BLACK
6
CONTINUOUS
10
61.1560500000000005
20
-92.228478999999993
11
61.2553239999999946
21
-92.0829499999999967
0
LINE
8
BLACK
6
CONTINUOUS
10
61.2553239999999946
20
-92.0829499999999967
11
61.3770319999999998
21
-91.9555869999999942
0
LINE
8
BLACK
6
CONTINUOUS
10
61.3770319999999998
20
-91.9555869999999942
11
61.5179059999999964
21
-91.8498110000000025
0
LINE
8
BLACK
6
CONTINUOUS
10
61.5179059999999964
20
-91.8498110000000025
11
61.6741639999999975
21
-91.768462999999997
0
LINE
8
BLACK
6
CONTINUOUS
10
61.6741639999999975
20
-91.768462999999997
11
61.8416089999999983
21
-91.7137249999999966
0
LINE
8
BLACK
6
CONTINUOUS
10
61.8416089999999983
20
-91.7137249999999966
11
62.0157449999999955
21
-91.6870689999999939
0
LINE
8
BLACK
6
CONTINUOUS
10
62.0157449999999955
20
-91.6870689999999939
11
62.015746
21
-91.6870759999999905
0
LINE
8
BLACK
6
CONTINUOUS
10
62.015746
20
-91.6870759999999905
11
62.0157469999999975
21
-91.6870759999999905
0
LINE
8
BLACK
6
CONTINUOUS
10
62.0157469999999975
20
-91.6870759999999905
11
62.015749999999997
21
-91.6870759999999905
0
LINE
8
BLACK
6
CONTINUOUS
10
62.015749999999997
20
-91.6870759999999905
11
77.4747509999999977
21
-90.6060779999999966
0
LINE
8
BLACK
6
CONTINUOUS
10
77.4747509999999977
20
-90.6060779999999966
11
77.4751309999999904
21
-90.6060879999999997
0
LINE
8
BLACK
6
CONTINUOUS
10
77.4751309999999904
20
-90.6060879999999997
11
77.4752419999999944
21
-90.6060439999999971
0
LINE
8
BLACK
6
CONTINUOUS
10
77.4752419999999944
20
-90.6060439999999971
11
77.4752409999999969
21
-90.6060269999999974
0
LINE
8
BLACK
6
CONTINUOUS
10
77.4752409999999969
20
-90.6060269999999974
11
77.5734259999999978
21
-90.5991640000000018
0
LINE
8
BLACK
6
CONTINUOUS
10
77.5734259999999978
20
-90.5991640000000018
11
77.7644289999999927
21
-90.5515460000000019
0
LINE
8
BLACK
6
CONTINUOUS
10
77.7644289999999927
20
-90.5515460000000019
11
77.9442609999999974
21
-90.4714839999999896
0
LINE
8
BLACK
6
CONTINUOUS
10
77.9442609999999974
20
-90.4714839999999896
11
78.1074569999999966
21
-90.3614099999999922
0
LINE
8
BLACK
6
CONTINUOUS
10
78.1074569999999966
20
-90.3614099999999922
11
78.2490600000000001
21
-90.2246679999999941
0
LINE
8
BLACK
6
CONTINUOUS
10
78.2490600000000001
20
-90.2246679999999941
11
78.3647649999999913
21
-90.0654150000000016
0
LINE
8
BLACK
6
CONTINUOUS
10
78.3647649999999913
20
-90.0654150000000016
11
78.4510580000000033
21
-89.8884879999999953
0
LINE
8
BLACK
6
CONTINUOUS
10
78.4510580000000033
20
-89.8884879999999953
11
78.5053159999999934
21
-89.6992639999999994
0
LINE
8
BLACK
6
CONTINUOUS
10
78.5053159999999934
20
-89.6992639999999994
11
78.5258899999999898
21
-89.5034939999999892
0
LINE
8
BLACK
6
CONTINUOUS
10
78.5258899999999898
20
-89.5034939999999892
11
78.51902299999999
21
-89.4053090000000026
0
LINE
8
BLACK
6
CONTINUOUS
10
78.51902299999999
20
-89.4053090000000026
11
78.5190240000000017
21
-89.4053090000000026
0
LINE
8
BLACK
6
CONTINUOUS
10
78.5190240000000017
20
-89.4053090000000026
11
78.5190240000000017
21
-89.4053079999999909
0
LINE
8
BLACK
6
CONTINUOUS
10
78.5190240000000017
20
-89.4053079999999909
11
78.1694069999999925
21
-84.405547999999996
0
LINE
8
BLACK
6
CONTINUOUS
10
78.1694069999999925
20
-84.405547999999996
11
78.1694069999999925
21
-84.4055460000000011
0
LINE
8
BLACK
6
CONTINUOUS
10
78.1694069999999925
20
-84.4055460000000011
11
78.1694059999999951
21
-84.4055439999999919
0
LINE
8
BLACK
6
CONTINUOUS
10
78.1694059999999951
20
-84.4055439999999919
11
78.1694069999999925
21
-84.4055439999999919
0
LINE
8
BLACK
6
CONTINUOUS
10
78.1694069999999925
20
-84.4055439999999919
11
78.171566999999996
21
-84.2293889999999976
0
LINE
8
BLACK
6
CONTINUOUS
10
78.171566999999996
20
-84.2293889999999976
11
78.2024649999999895
21
-84.0559509999999932
0
LINE
8
BLACK
6
CONTINUOUS
10
78.2024649999999895
20
-84.0559509999999932
11
78.2612719999999911
21
-83.8898879999999991
0
LINE
8
BLACK
6
CONTINUOUS
10
78.2612719999999911
20
-83.8898879999999991
11
78.3464099999999917
21
-83.7356589999999983
0
LINE
8
BLACK
6
CONTINUOUS
10
78.3464099999999917
20
-83.7356589999999983
11
78.4555919999999958
21
-83.5974029999999999
0
LINE
8
BLACK
6
CONTINUOUS
10
78.4555919999999958
20
-83.5974029999999999
11
78.5858869999999996
21
-83.4788349999999895
0
LINE
8
BLACK
6
CONTINUOUS
10
78.5858869999999996
20
-83.4788349999999895
11
78.7337959999999981
21
-83.3831359999999933
0
LINE
8
BLACK
6
CONTINUOUS
10
78.7337959999999981
20
-83.3831359999999933
11
78.8953479999999985
21
-83.3128779999999978
0
LINE
8
BLACK
6
CONTINUOUS
10
78.8953479999999985
20
-83.3128779999999978
11
79.0662049999999965
21
-83.2699449999999928
0
LINE
8
BLACK
6
CONTINUOUS
10
79.0662049999999965
20
-83.2699449999999928
11
79.2417799999999914
21
-83.2554919999999896
0
LINE
8
BLACK
6
CONTINUOUS
10
79.2417799999999914
20
-83.2554919999999896
11
79.2417799999999914
21
-83.2555600000000027
0
LINE
8
BLACK
6
CONTINUOUS
10
79.2417799999999914
20
-83.2555600000000027
11
79.2417810000000031
21
-83.2555600000000027
0
LINE
8
BLACK
6
CONTINUOUS
10
79.2417810000000031
20
-83.2555600000000027
11
79.2417879999999997
21
-83.2555600000000027
0
LINE
8
BLACK
6
CONTINUOUS
10
79.2417879999999997
20
-83.2555600000000027
11
90.5390280000000018
21
-83.2555600000000027
0
LINE
8
BLACK
6
CONTINUOUS
10
90.5390280000000018
20
-83.2555600000000027
11
90.5390289999999993
21
-83.2555600000000027
0
LINE
8
BLACK
6
CONTINUOUS
10
90.5390289999999993
20
-83.2555600000000027
11
90.5390299999999968
21
-83.2555600000000027
0
LINE
8
BLACK
6
CONTINUOUS
10
90.5390299999999968
20
-83.2555600000000027
11
90.7256999999999891
21
-83.2718959999999981
0
LINE
8
BLACK
6
CONTINUOUS
10
90.7256999999999891
20
-83.2718959999999981
11
90.9066979999999916
21
-83.3203979999999973
0
LINE
8
BLACK
6
CONTINUOUS
10
90.9066979999999916
20
-83.3203979999999973
11
91.0765249999999895
21
-83.3995910000000009
0
LINE
8
BLACK
6
CONTINUOUS
10
91.0765249999999895
20
-83.3995910000000009
11
91.2300209999999936
21
-83.5070699999999988
0
LINE
8
BLACK
6
CONTINUOUS
10
91.2300209999999936
20
-83.5070699999999988
11
91.3625219999999985
21
-83.639569999999992
0
LINE
8
BLACK
6
CONTINUOUS
10
91.3625219999999985
20
-83.639569999999992
11
91.4700029999999913
21
-83.7930640000000011
0
LINE
8
BLACK
6
CONTINUOUS
10
91.4700029999999913
20
-83.7930640000000011
11
91.5491979999999899
21
-83.9628900000000016
0
LINE
8
BLACK
6
CONTINUOUS
10
91.5491979999999899
20
-83.9628900000000016
11
91.5977019999999982
21
-84.1438869999999923
0
LINE
8
BLACK
6
CONTINUOUS
10
91.5977019999999982
20
-84.1438869999999923
11
91.6140400000000028
21
-84.3305569999999989
0
LINE
8
BLACK
6
CONTINUOUS
10
91.6140400000000028
20
-84.3305569999999989
11
91.6140279999999905
21
-84.3305569999999989
0
LINE
8
BLACK
6
CONTINUOUS
10
91.6140279999999905
20
-84.3305569999999989
11
91.6140279999999905
21
-84.3305599999999913
0
LINE
8
BLACK
6
CONTINUOUS
10
91.6140279999999905
20
-84.3305599999999913
11
91.6140279999999905
21
-90.6305600000000027
0
LINE
8
BLACK
6
CONTINUOUS
10
91.6140279999999905
20
-90.6305600000000027
11
91.6140279999999905
21
-90.6305629999999951
0
LINE
8
BLACK
6
CONTINUOUS
10
91.6140279999999905
20
-90.6305629999999951
11
91.6140400000000028
21
-90.6305629999999951
0
LINE
8
BLACK
6
CONTINUOUS
10
91.6140400000000028
20
-90.6305629999999951
11
91.6140369999999962
21
-90.7289869999999894
0
LINE
8
BLACK
6
CONTINUOUS
10
91.6140369999999962
20
-90.7289869999999894
11
91.6482149999999933
21
-90.9228469999999902
0
LINE
8
BLACK
6
CONTINUOUS
10
91.6482149999999933
20
-90.9228469999999902
11
91.7155369999999976
21
-91.1078270000000003
0
LINE
8
BLACK
6
CONTINUOUS
10
91.7155369999999976
20
-91.1078270000000003
11
91.8139599999999945
21
-91.2783049999999889
0
LINE
8
BLACK
6
CONTINUOUS
10
91.8139599999999945
20
-91.2783049999999889
11
91.9404909999999944
21
-91.4291010000000028
0
LINE
8
BLACK
6
CONTINUOUS
10
91.9404909999999944
20
-91.4291010000000028
11
92.0912859999999966
21
-91.5556339999999977
0
LINE
8
BLACK
6
CONTINUOUS
10
92.0912859999999966
20
-91.5556339999999977
11
92.261763000000002
21
-91.654057999999992
0
LINE
8
BLACK
6
CONTINUOUS
10
92.261763000000002
20
-91.654057999999992
11
92.4467420000000004
21
-91.7213829999999888
0
LINE
8
BLACK
6
CONTINUOUS
10
92.4467420000000004
20
-91.7213829999999888
11
92.6406009999999895
21
-91.7555619999999976
0
LINE
8
BLACK
6
CONTINUOUS
10
92.6406009999999895
20
-91.7555619999999976
11
92.7390259999999955
21
-91.7555600000000027
0
LINE
8
BLACK
6
CONTINUOUS
10
92.7390259999999955
20
-91.7555600000000027
11
92.7390279999999905
21
-91.7555600000000027
0
LINE
8
BLACK
6
CONTINUOUS
10
92.7390279999999905
20
-91.7555600000000027
11
96.4790279999999996
21
-91.7555600000000027
0
LINE
8
BLACK
6
CONTINUOUS
10
96.4790279999999996
20
-91.7555600000000027
11
96.479028999999997
21
-91.7555600000000027
0
LINE
8
BLACK
6
CONTINUOUS
10
96.479028999999997
20
-91.7555600000000027
11
96.4790299999999945
21
-91.7555600000000027
0
LINE
8
BLACK
6
CONTINUOUS
10
96.4790299999999945
20
-91.7555600000000027
11
96.6657000000000011
21
-91.7718959999999981
0
LINE
8
BLACK
6
CONTINUOUS
10
96.6657000000000011
20
-91.7718959999999981
11
96.8466979999999893
21
-91.8203979999999973
0
LINE
8
BLACK
6
CONTINUOUS
10
96.8466979999999893
20
-91.8203979999999973
11
97.0165250000000015
21
-91.8995910000000009
0
LINE
8
BLACK
6
CONTINUOUS
10
97.0165250000000015
20
-91.8995910000000009
11
97.1700209999999913
21
-92.0070699999999988
0
LINE
8
BLACK
6
CONTINUOUS
10
97.1700209999999913
20
-92.0070699999999988
11
97.3025219999999962
21
-92.139569999999992
0
LINE
8
BLACK
6
CONTINUOUS
10
97.3025219999999962
20
-92.139569999999992
11
97.410002999999989
21
-92.2930640000000011
0
LINE
8
BLACK
6
CONTINUOUS
10
97.410002999999989
20
-92.2930640000000011
11
97.4891980000000018
21
-92.4628900000000016
0
LINE
8
BLACK
6
CONTINUOUS
10
97.4891980000000018
20
-92.4628900000000016
11
97.5377019999999959
21
-92.6438869999999923
0
LINE
8
BLACK
6
CONTINUOUS
10
97.5377019999999959
20
-92.6438869999999923
11
97.5540400000000005
21
-92.8305569999999989
0
LINE
8
BLACK
6
CONTINUOUS
10
97.5540400000000005
20
-92.8305569999999989
11
97.5540280000000024
21
-92.8305569999999989
0
LINE
8
BLACK
6
CONTINUOUS
10
97.5540280000000024
20
-92.8305569999999989
11
97.5540280000000024
21
-92.8305599999999913
0
LINE
8
BLACK
6
CONTINUOUS
10
97.5540280000000024
20
-92.8305599999999913
11
97.5540280000000024
21
-111.8805599999999885
0
LINE
8
BLACK
6
CONTINUOUS
10
97.5540280000000024
20
-111.8805599999999885
11
97.5540280000000024
21
-111.8805629999999951
0
LINE
8
BLACK
6
CONTINUOUS
10
97.5540280000000024
20
-111.8805629999999951
11
97.5540400000000005
21
-111.8805629999999951
0
LINE
8
BLACK
6
CONTINUOUS
10
97.5540400000000005
20
-111.8805629999999951
11
97.5540369999999939
21
-111.9789869999999894
0
LINE
8
BLACK
6
CONTINUOUS
10
97.5540369999999939
20
-111.9789869999999894
11
97.5882149999999911
21
-112.1728469999999902
0
LINE
8
BLACK
6
CONTINUOUS
10
97.5882149999999911
20
-112.1728469999999902
11
97.6555369999999954
21
-112.3578270000000003
0
LINE
8
BLACK
6
CONTINUOUS
10
97.6555369999999954
20
-112.3578270000000003
11
97.7539599999999922
21
-112.5283049999999889
0
LINE
8
BLACK
6
CONTINUOUS
10
97.7539599999999922
20
-112.5283049999999889
11
97.8804909999999921
21
-112.6791009999999886
0
LINE
8
BLACK
6
CONTINUOUS
10
97.8804909999999921
20
-112.6791009999999886
11
98.0312859999999944
21
-112.8056339999999977
0
LINE
8
BLACK
6
CONTINUOUS
10
98.0312859999999944
20
-112.8056339999999977
11
98.2017629999999997
21
-112.904057999999992
0
LINE
8
BLACK
6
CONTINUOUS
10
98.2017629999999997
20
-112.904057999999992
11
98.3867419999999981
21
-112.9713829999999888
0
LINE
8
BLACK
6
CONTINUOUS
10
98.3867419999999981
20
-112.9713829999999888
11
98.5806010000000015
21
-113.0055619999999976
0
LINE
8
BLACK
6
CONTINUOUS
10
98.5806010000000015
20
-113.0055619999999976
11
98.6790259999999932
21
-113.0055599999999885
0
LINE
8
BLACK
6
CONTINUOUS
10
98.6790259999999932
20
-113.0055599999999885
11
98.6790280000000024
21
-113.0055599999999885
0
LINE
8
BLACK
6
CONTINUOUS
10
98.6790280000000024
20
-113.0055599999999885
11
118.4086489999999969
21
-113.0055599999999885
0
LINE
8
BLACK
6
CONTINUOUS
10
118.4086489999999969
20
-113.0055599999999885
11
118.4086509999999919
21
-113.0055599999999885
0
LINE
8
BLACK
6
CONTINUOUS
10
118.4086509999999919
20
-113.0055599999999885
11
118.4961909999999961
21
-113.0091290000000015
0
LINE
8
BLACK
6
CONTINUOUS
10
118.4961909999999961
20
-113.0091290000000015
11
118.5831549999999908
21
-113.0198199999999957
0
LINE
8
BLACK
6
CONTINUOUS
10
118.5831549999999908
20
-113.0198199999999957
11
118.6687569999999994
21
-113.0375219999999956
0
LINE
8
BLACK
6
CONTINUOUS
10
118.6687569999999994
20
-113.0375219999999956
11
118.6689519999999902
21
-113.0375509999999935
0
LINE
8
BLACK
6
CONTINUOUS
10
118.6689519999999902
20
-113.0375509999999935
11
118.6689599999999984
21
-113.0375529999999884
0
LINE
8
BLACK
6
CONTINUOUS
10
118.6689599999999984
20
-113.0375529999999884
11
118.6689609999999959
21
-113.0375529999999884
0
LINE
8
BLACK
6
CONTINUOUS
10
118.6689609999999959
20
-113.0375529999999884
11
128.1316589999999849
21
-115.3991520000000008
0
LINE
8
BLACK
6
CONTINUOUS
10
128.1316589999999849
20
-115.3991520000000008
11
128.1316620000000057
21
-115.3991529999999983
0
LINE
8
BLACK
6
CONTINUOUS
10
128.1316620000000057
20
-115.3991529999999983
11
128.1316649999999981
21
-115.3991529999999983
0
LINE
8
BLACK
6
CONTINUOUS
10
128.1316649999999981
20
-115.3991529999999983
11
128.1316649999999981
21
-115.3991539999999958
0
LINE
8
BLACK
6
CONTINUOUS
10
128.1316649999999981
20
-115.3991539999999958
11
128.1376439999999945
21
-115.4006639999999919
0
LINE
8
BLACK
6
CONTINUOUS
10
128.1376439999999945
20
-115.4006639999999919
11
128.1436149999999827
21
-115.4022089999999992
0
LINE
8
BLACK
6
CONTINUOUS
10
128.1436149999999827
20
-115.4022089999999992
11
128.1495759999999962
21
-115.4037869999999941
0
LINE
8
BLACK
6
CONTINUOUS
10
128.1495759999999962
20
-115.4037869999999941
11
128.1495759999999962
21
-115.4037879999999916
0
LINE
8
BLACK
6
CONTINUOUS
10
128.1495759999999962
20
-115.4037879999999916
11
128.1495779999999911
21
-115.4037889999999891
0
LINE
8
BLACK
6
CONTINUOUS
10
128.1495779999999911
20
-115.4037889999999891
11
128.1495859999999993
21
-115.4037909999999982
0
LINE
8
BLACK
6
CONTINUOUS
10
128.1495859999999993
20
-115.4037909999999982
11
137.1397029999999972
21
-117.8126849999999877
0
LINE
8
BLACK
6
CONTINUOUS
10
137.1397029999999972
20
-117.8126849999999877
11
137.1397069999999871
21
-117.8126859999999994
0
LINE
8
BLACK
6
CONTINUOUS
10
137.1397069999999871
20
-117.8126859999999994
11
137.2267439999999965
21
-117.8400139999999965
0
LINE
8
BLACK
6
CONTINUOUS
10
137.2267439999999965
20
-117.8400139999999965
11
137.3111569999999801
21
-117.8746309999999937
0
LINE
8
BLACK
6
CONTINUOUS
10
137.3111569999999801
20
-117.8746309999999937
11
137.3921650000000056
21
-117.9162010000000009
0
LINE
8
BLACK
6
CONTINUOUS
10
137.3921650000000056
20
-117.9162010000000009
11
137.3923249999999996
21
-117.9162719999999922
0
LINE
8
BLACK
6
CONTINUOUS
10
137.3923249999999996
20
-117.9162719999999922
11
137.3923319999999819
21
-117.9162759999999963
0
LINE
8
BLACK
6
CONTINUOUS
10
137.3923319999999819
20
-117.9162759999999963
11
137.3923330000000078
21
-117.9162759999999963
0
LINE
8
BLACK
6
CONTINUOUS
10
137.3923330000000078
20
-117.9162759999999963
11
137.3923340000000053
21
-117.9162769999999938
0
LINE
8
BLACK
6
CONTINUOUS
10
137.3923340000000053
20
-117.9162769999999938
11
154.0032980000000009
21
-127.3494630000000001
0
LINE
8
BLACK
6
CONTINUOUS
10
154.0032980000000009
20
-127.3494630000000001
11
154.0033039999999858
21
-127.34946699999999
0
LINE
8
BLACK
6
CONTINUOUS
10
154.0033039999999858
20
-127.34946699999999
11
154.0033239999999921
21
-127.3494299999999981
0
LINE
8
BLACK
6
CONTINUOUS
10
154.0033239999999921
20
-127.3494299999999981
11
154.0885009999999795
21
-127.3978539999999953
0
LINE
8
BLACK
6
CONTINUOUS
10
154.0885009999999795
20
-127.3978539999999953
11
154.2730569999999943
21
-127.463719999999995
0
LINE
8
BLACK
6
CONTINUOUS
10
154.2730569999999943
20
-127.463719999999995
11
154.4662219999999877
21
-127.4966879999999918
0
LINE
8
BLACK
6
CONTINUOUS
10
154.4662219999999877
20
-127.4966879999999918
11
154.6621769999999856
21
-127.4957649999999916
0
LINE
8
BLACK
6
CONTINUOUS
10
154.6621769999999856
20
-127.4957649999999916
11
154.8550229999999885
21
-127.4609789999999947
0
LINE
8
BLACK
6
CONTINUOUS
10
154.8550229999999885
20
-127.4609789999999947
11
155.0389499999999998
21
-127.3933759999999893
0
LINE
8
BLACK
6
CONTINUOUS
10
155.0389499999999998
20
-127.3933759999999893
11
155.2084209999999871
21
-127.2949939999999884
0
LINE
8
BLACK
6
CONTINUOUS
10
155.2084209999999871
20
-127.2949939999999884
11
155.3583309999999926
21
-127.1687949999999887
0
LINE
8
BLACK
6
CONTINUOUS
10
155.3583309999999926
20
-127.1687949999999887
11
155.4841669999999851
21
-127.0185789999999884
0
LINE
8
BLACK
6
CONTINUOUS
10
155.4841669999999851
20
-127.0185789999999884
11
155.5331189999999992
21
-126.9337049999999891
0
LINE
8
BLACK
6
CONTINUOUS
10
155.5331189999999992
20
-126.9337049999999891
11
155.5331199999999967
21
-126.9337039999999917
0
LINE
8
BLACK
6
CONTINUOUS
10
155.5331199999999967
20
-126.9337039999999917
11
155.5331209999999942
21
-126.9337019999999967
0
LINE
8
BLACK
6
CONTINUOUS
10
155.5331209999999942
20
-126.9337019999999967
11
165.0331189999999992
21
-110.4792229999999904
0
LINE
8
BLACK
6
CONTINUOUS
10
165.0331189999999992
20
-110.4792229999999904
11
165.0330510000000004
21
-110.4791829999999919
0
LINE
8
BLACK
6
CONTINUOUS
10
165.0330510000000004
20
-110.4791829999999919
11
165.0822579999999959
21
-110.3939479999999946
0
LINE
8
BLACK
6
CONTINUOUS
10
165.0822579999999959
20
-110.3939479999999946
11
165.1495759999999962
21
-110.2089769999999902
0
LINE
8
BLACK
6
CONTINUOUS
10
165.1495759999999962
20
-110.2089769999999902
11
165.1837549999999908
21
-110.01512799999999
0
LINE
8
BLACK
6
CONTINUOUS
10
165.1837549999999908
20
-110.01512799999999
11
165.1837559999999883
21
-109.8182879999999955
0
LINE
8
BLACK
6
CONTINUOUS
10
165.1837559999999883
20
-109.8182879999999955
11
165.1495799999999861
21
-109.6244379999999978
0
LINE
8
BLACK
6
CONTINUOUS
10
165.1495799999999861
20
-109.6244379999999978
11
165.0822639999999808
21
-109.4394669999999934
0
LINE
8
BLACK
6
CONTINUOUS
10
165.0822639999999808
20
-109.4394669999999934
11
164.9838550000000055
21
-109.2689929999999947
0
LINE
8
BLACK
6
CONTINUOUS
10
164.9838550000000055
20
-109.2689929999999947
11
164.8573399999999936
21
-109.1181950000000001
0
LINE
8
BLACK
6
CONTINUOUS
10
164.8573399999999936
20
-109.1181950000000001
11
164.706563999999986
21
-108.9916549999999944
0
LINE
8
BLACK
6
CONTINUOUS
10
164.706563999999986
20
-108.9916549999999944
11
164.6213349999999878
21
-108.9424369999999982
0
LINE
8
BLACK
6
CONTINUOUS
10
164.6213349999999878
20
-108.9424369999999982
11
164.6213339999999903
21
-108.9424360000000007
0
LINE
8
BLACK
6
CONTINUOUS
10
164.6213339999999903
20
-108.9424360000000007
11
147.3008339999999805
21
-98.9424410000000023
0
LINE
8
BLACK
6
CONTINUOUS
10
147.3008339999999805
20
-98.9424410000000023
11
147.3008309999999881
21
-98.9424389999999931
0
LINE
8
BLACK
6
CONTINUOUS
10
147.3008309999999881
20
-98.9424389999999931
11
147.3008289999999931
21
-98.9424439999999947
0
LINE
8
BLACK
6
CONTINUOUS
10
147.3008289999999931
20
-98.9424439999999947
11
147.2805129999999849
21
-98.9307149999999922
0
LINE
8
BLACK
6
CONTINUOUS
10
147.2805129999999849
20
-98.9307149999999922
11
147.2389389999999878
21
-98.908968999999999
0
LINE
8
BLACK
6
CONTINUOUS
10
147.2389389999999878
20
-98.908968999999999
11
147.1964949999999988
21
-98.8889750000000021
0
LINE
8
BLACK
6
CONTINUOUS
10
147.1964949999999988
20
-98.8889750000000021
11
147.1748749999999859
21
-98.8798699999999968
0
LINE
8
BLACK
6
CONTINUOUS
10
147.1748749999999859
20
-98.8798699999999968
11
147.1748759999999834
21
-98.8798699999999968
0
LINE
8
BLACK
6
CONTINUOUS
10
147.1748759999999834
20
-98.8798699999999968
11
147.1748739999999884
21
-98.8798680000000019
0
LINE
8
BLACK
6
CONTINUOUS
10
147.1748739999999884
20
-98.8798680000000019
11
132.5218889999999874
21
-92.7105490000000003
0
LINE
8
BLACK
6
CONTINUOUS
10
132.5218889999999874
20
-92.7105490000000003
11
132.5218869999999924
21
-92.7105480000000028
0
LINE
8
BLACK
6
CONTINUOUS
10
132.5218869999999924
20
-92.7105480000000028
11
132.521884
21
-92.7105459999999937
0
LINE
8
BLACK
6
CONTINUOUS
10
132.521884
20
-92.7105459999999937
11
132.3625720000000001
21
-92.6271569999999969
0
LINE
8
BLACK
6
CONTINUOUS
10
132.3625720000000001
20
-92.6271569999999969
11
132.2193859999999859
21
-92.5183739999999943
0
LINE
8
BLACK
6
CONTINUOUS
10
132.2193859999999859
20
-92.5183739999999943
11
132.0963370000000054
21
-92.3872459999999904
0
LINE
8
BLACK
6
CONTINUOUS
10
132.0963370000000054
20
-92.3872459999999904
11
131.9968680000000063
21
-92.2374399999999923
0
LINE
8
BLACK
6
CONTINUOUS
10
131.9968680000000063
20
-92.2374399999999923
11
131.9237619999999822
21
-92.0731499999999983
0
LINE
8
BLACK
6
CONTINUOUS
10
131.9237619999999822
20
-92.0731499999999983
11
131.8790649999999971
21
-91.8989709999999889
0
LINE
8
BLACK
6
CONTINUOUS
10
131.8790649999999971
20
-91.8989709999999889
11
131.8640279999999905
21
-91.7197800000000001
0
LINE
8
BLACK
6
CONTINUOUS
10
131.8640279999999905
20
-91.7197800000000001
11
131.8640279999999905
21
-40.1805599999999998
0
LINE
8
BLACK
6
CONTINUOUS
10
131.8640279999999905
20
-40.1805599999999998
11
131.8640389999999911
21
-40.1804379999999952
0
LINE
8
BLACK
6
CONTINUOUS
10
131.8640389999999911
20
-40.1804379999999952
11
131.8640369999999962
21
-40.0821380000000005
0
LINE
8
BLACK
6
CONTINUOUS
10
131.8640369999999962
20
-40.0821380000000005
11
131.8298489999999958
21
-39.8882800000000017
0
LINE
8
BLACK
6
CONTINUOUS
10
131.8298489999999958
20
-39.8882800000000017
11
131.7625189999999975
21
-39.7033039999999957
0
LINE
8
BLACK
6
CONTINUOUS
10
131.7625189999999975
20
-39.7033039999999957
11
131.6640909999999849
21
-39.532827999999995
0
LINE
8
BLACK
6
CONTINUOUS
10
131.6640909999999849
20
-39.532827999999995
11
131.53755799999999
21
-39.3820339999999973
0
LINE
8
BLACK
6
CONTINUOUS
10
131.53755799999999
20
-39.3820339999999973
11
131.3867620000000045
21
-39.2555019999999999
0
LINE
8
BLACK
6
CONTINUOUS
10
131.3867620000000045
20
-39.2555019999999999
11
131.2162859999999966
21
-39.157077000000001
0
LINE
8
BLACK
6
CONTINUOUS
10
131.2162859999999966
20
-39.157077000000001
11
131.0313089999999931
21
-39.0897480000000002
0
LINE
8
BLACK
6
CONTINUOUS
10
131.0313089999999931
20
-39.0897480000000002
11
130.8374509999999873
21
-39.0555619999999948
0
LINE
8
BLACK
6
CONTINUOUS
10
130.8374509999999873
20
-39.0555619999999948
11
130.7390259999999955
21
-39.0555599999999998
0
LINE
8
BLACK
6
CONTINUOUS
10
130.7390259999999955
20
-39.0555599999999998
11
114.9390299999999883
21
-39.0555599999999998
0
LINE
8
BLACK
6
CONTINUOUS
10
114.9390299999999883
20
-39.0555599999999998
11
114.9390279999999933
21
-39.0555599999999998
0
LINE
8
BLACK
6
CONTINUOUS
10
114.9390279999999933
20
-39.0555599999999998
11
114.9390119999999911
21
-39.0555579999999978
0
LINE
8
BLACK
6
CONTINUOUS
10
114.9390119999999911
20
-39.0555579999999978
11
114.7523569999999893
21
-39.0392329999999959
0
LINE
8
BLACK
6
CONTINUOUS
10
114.7523569999999893
20
-39.0392329999999959
11
114.5713549999999969
21
-38.9907369999999958
0
LINE
8
BLACK
6
CONTINUOUS
10
114.5713549999999969
20
-38.9907369999999958
11
114.4015249999999924
21
-38.9115460000000013
0
LINE
8
BLACK
6
CONTINUOUS
10
114.4015249999999924
20
-38.9115460000000013
11
114.2480269999999933
21
-38.8040659999999988
0
LINE
8
BLACK
6
CONTINUOUS
10
114.2480269999999933
20
-38.8040659999999988
11
114.1155259999999885
21
-38.671562999999999
0
LINE
8
BLACK
6
CONTINUOUS
10
114.1155259999999885
20
-38.671562999999999
11
114.0080479999999881
21
-38.5180639999999954
0
LINE
8
BLACK
6
CONTINUOUS
10
114.0080479999999881
20
-38.5180639999999954
11
113.9288589999999886
21
-38.3482330000000005
0
LINE
8
BLACK
6
CONTINUOUS
10
113.9288589999999886
20
-38.3482330000000005
11
113.8803649999999976
21
-38.1672299999999964
0
LINE
8
BLACK
6
CONTINUOUS
10
113.8803649999999976
20
-38.1672299999999964
11
113.8641369999999995
21
-37.9816709999999986
0
LINE
8
BLACK
6
CONTINUOUS
10
113.8641369999999995
20
-37.9816709999999986
11
113.8640279999999905
21
-37.980559999999997
0
LINE
8
BLACK
6
CONTINUOUS
10
113.8640279999999905
20
-37.980559999999997
11
113.8640279999999905
21
-37.6305599999999956
0
LINE
8
BLACK
6
CONTINUOUS
10
113.8640279999999905
20
-37.6305599999999956
11
113.8640389999999911
21
-37.6304379999999981
0
LINE
8
BLACK
6
CONTINUOUS
10
113.8640389999999911
20
-37.6304379999999981
11
113.8640369999999962
21
-37.5321379999999962
0
LINE
8
BLACK
6
CONTINUOUS
10
113.8640369999999962
20
-37.5321379999999962
11
113.8298489999999958
21
-37.3382799999999975
0
LINE
8
BLACK
6
CONTINUOUS
10
113.8298489999999958
20
-37.3382799999999975
11
113.7625189999999975
21
-37.1533039999999986
0
LINE
8
BLACK
6
CONTINUOUS
10
113.7625189999999975
20
-37.1533039999999986
11
113.6640909999999991
21
-36.9828279999999978
0
LINE
8
BLACK
6
CONTINUOUS
10
113.6640909999999991
20
-36.9828279999999978
11
113.53755799999999
21
-36.8320340000000002
0
LINE
8
BLACK
6
CONTINUOUS
10
113.53755799999999
20
-36.8320340000000002
11
113.3867619999999903
21
-36.7055019999999956
0
LINE
8
BLACK
6
CONTINUOUS
10
113.3867619999999903
20
-36.7055019999999956
11
113.2162859999999966
21
-36.6070769999999968
0
LINE
8
BLACK
6
CONTINUOUS
10
113.2162859999999966
20
-36.6070769999999968
11
113.0313089999999931
21
-36.5397479999999959
0
LINE
8
BLACK
6
CONTINUOUS
10
113.0313089999999931
20
-36.5397479999999959
11
112.8374510000000015
21
-36.5055619999999976
0
LINE
8
BLACK
6
CONTINUOUS
10
112.8374510000000015
20
-36.5055619999999976
11
112.7390259999999955
21
-36.5055599999999956
0
LINE
8
BLACK
6
CONTINUOUS
10
112.7390259999999955
20
-36.5055599999999956
11
96.9390300000000025
21
-36.5055599999999956
0
LINE
8
BLACK
6
CONTINUOUS
10
96.9390300000000025
20
-36.5055599999999956
11
96.9390279999999933
21
-36.5055599999999956
0
LINE
8
BLACK
6
CONTINUOUS
10
96.9390279999999933
20
-36.5055599999999956
11
96.9390119999999911
21
-36.5055580000000006
0
LINE
8
BLACK
6
CONTINUOUS
10
96.9390119999999911
20
-36.5055580000000006
11
96.7523569999999893
21
-36.4892329999999987
0
LINE
8
BLACK
6
CONTINUOUS
10
96.7523569999999893
20
-36.4892329999999987
11
96.5713549999999969
21
-36.4407369999999986
0
LINE
8
BLACK
6
CONTINUOUS
10
96.5713549999999969
20
-36.4407369999999986
11
96.4015249999999924
21
-36.361545999999997
0
LINE
8
BLACK
6
CONTINUOUS
10
96.4015249999999924
20
-36.361545999999997
11
96.2480269999999933
21
-36.2540660000000017
0
LINE
8
BLACK
6
CONTINUOUS
10
96.2480269999999933
20
-36.2540660000000017
11
96.1155260000000027
21
-36.1215630000000019
0
LINE
8
BLACK
6
CONTINUOUS
10
96.1155260000000027
20
-36.1215630000000019
11
96.0080480000000023
21
-35.9680639999999983
0
LINE
8
BLACK
6
CONTINUOUS
10
96.0080480000000023
20
-35.9680639999999983
11
95.9288589999999886
21
-35.7982329999999962
0
LINE
8
BLACK
6
CONTINUOUS
10
95.9288589999999886
20
-35.7982329999999962
11
95.8803649999999976
21
-35.6172299999999993
0
LINE
8
BLACK
6
CONTINUOUS
10
95.8803649999999976
20
-35.6172299999999993
11
95.8641369999999995
21
-35.4316710000000015
0
LINE
8
BLACK
6
CONTINUOUS
10
95.8641369999999995
20
-35.4316710000000015
11
95.8640279999999905
21
-35.4305599999999998
0
LINE
8
BLACK
6
CONTINUOUS
10
95.8640279999999905
20
-35.4305599999999998
11
95.8640279999999905
21
-29.1305599999999991
0
LINE
8
BLACK
6
CONTINUOUS
10
95.8640279999999905
20
-29.1305599999999991
11
95.8640389999999911
21
-29.1304379999999981
0
LINE
8
BLACK
6
CONTINUOUS
10
95.8640389999999911
20
-29.1304379999999981
11
95.8640369999999962
21
-29.0321379999999998
0
LINE
8
BLACK
6
CONTINUOUS
10
95.8640369999999962
20
-29.0321379999999998
11
95.8298489999999958
21
-28.8382799999999975
0
LINE
8
BLACK
6
CONTINUOUS
10
95.8298489999999958
20
-28.8382799999999975
11
95.7625189999999975
21
-28.6533039999999986
0
LINE
8
BLACK
6
CONTINUOUS
10
95.7625189999999975
20
-28.6533039999999986
11
95.6640909999999991
21
-28.4828279999999978
0
LINE
8
BLACK
6
CONTINUOUS
10
95.6640909999999991
20
-28.4828279999999978
11
95.53755799999999
21
-28.3320340000000002
0
LINE
8
BLACK
6
CONTINUOUS
10
95.53755799999999
20
-28.3320340000000002
11
95.3867619999999903
21
-28.2055019999999992
0
LINE
8
BLACK
6
CONTINUOUS
10
95.3867619999999903
20
-28.2055019999999992
11
95.2162859999999966
21
-28.1070770000000003
0
LINE
8
BLACK
6
CONTINUOUS
10
95.2162859999999966
20
-28.1070770000000003
11
95.0313089999999931
21
-28.0397479999999995
0
LINE
8
BLACK
6
CONTINUOUS
10
95.0313089999999931
20
-28.0397479999999995
11
94.8374510000000015
21
-28.0055619999999976
0
LINE
8
BLACK
6
CONTINUOUS
10
94.8374510000000015
20
-28.0055619999999976
11
94.7390259999999955
21
-28.0055599999999991
0
LINE
8
BLACK
6
CONTINUOUS
10
94.7390259999999955
20
-28.0055599999999991
11
74.7390319999999946
21
-28.0055599999999991
0
LINE
8
BLACK
6
CONTINUOUS
10
74.7390319999999946
20
-28.0055599999999991
11
74.7390279999999905
21
-28.0055599999999991
0
LINE
8
BLACK
6
CONTINUOUS
10
74.7390279999999905
20
-28.0055599999999991
11
74.738703000000001
21
-28.0055279999999982
0
LINE
8
BLACK
6
CONTINUOUS
10
74.738703000000001
20
-28.0055279999999982
11
74.6406070000000028
21
-28.0055329999999998
0
CIRCLE
8
BLACK
10
74.7390279999999905
20
-46.6305599999999956
40
1.0999999999999999
0
CIRCLE
8
BLACK
10
111.379027999999991
20
-55.6305599999999956
40
1.0999999999999999
0
CIRCLE
8
BLACK
10
143.4784530000000018
20
-101.6785160000000019
40
1.0999999999999999
0
CIRCLE
8
BLACK
10
111.339027999999999
20
-91.6305600000000027
40
1.0999999999999999
0
CIRCLE
8
BLACK
10
57.6185069999999939
20
-84.7519190000000009
40
1.0999999999999999
0
CIRCLE
8
WHITE
10
74.7390279999999905
20
-46.6305599999999956
40
1.0999989999999999
0
CIRCLE
8
WHITE
10
111.379027999999991
20
-55.6305599999999956
40
1.0999989999999999
0
CIRCLE
8
WHITE
10
143.4784530000000018
20
-101.6785160000000019
40
1.0999989999999999
0
CIRCLE
8
WHITE
10
111.339027999999999
20
-91.6305600000000027
40
1.0999989999999999
0
CIRCLE
8
WHITE
10
57.6185069999999939
20
-84.7519190000000009
40
1.0999989999999999
  0
ENDSEC
  0
EOF
