  0
SECTION
  2
HEADER
  9
$ANGBASE
  50
0.0
  9
$ANGDIR
  70
1
  9
$MEASUREMENT
  70
1
  0
ENDSEC
  0
SECTION
  2
TABLES
  0
TABLE
  2
LTYPE
  70
4
  0
LTYPE
  5
40F
  2
CONTINUOUS
  70
0
  3
Solid line
  72
65
  73
0
  40
0.0
  0
LTYPE
  5
410
  2
DASHDOT
 70
0
  3
Dash Dot ____ _ ____ _
 72
65
 73
4
 40
2.0
 49
1.25
 49
-0.25
 49
0.25
 49
-0.25
  0
LTYPE
  5
411
  2
DASHED
 70
0
  3
Dashed __ __ __ __ __
 72
65
 73
2
 40
0.75
 49
0.5
 49
-0.25
  0
LTYPE
  5
43B
  2
DOTTED
 70
0
  3
Dotted .  .  .  .
 72
65
 73
2
 40
0.2
 49
0.0
 49
-0.2
  0
ENDTAB
  0
TABLE
  2
STYLE
  70
4
  0
STYLE
  2
KICAD
  70
0
  40
0
  41
1
  42
1
  50
0
  71
0
  3
isocp.shx
  0
STYLE
  2
KICADB
  70
0
  40
0
  41
1
  42
1
  50
0
  71
0
  3
isocp.shx
  0
STYLE
  2
KICADI
  70
0
  40
0
  41
1
  42
1
  50
15
  71
0
  3
isocp.shx
  0
STYLE
  2
KICADBI
  70
0
  40
0
  41
1
  42
1
  50
15
  71
0
  3
isocp.shx
  0
ENDTAB
  0
TABLE
  2
LAYER
  70
1
  0
LAYER
  2
BLACK
  70
0
  62
7
  6
CONTINUOUS
  0
ENDTAB
  0
ENDSEC
  0
SECTION
  2
ENTITIES
0
LINE
8
BLACK
6
CONTINUOUS
10
74.739024999999998
20
-26.6555599999999977
11
74.7390279999999905
21
-26.6555599999999977
0
LINE
8
BLACK
6
CONTINUOUS
10
74.7390279999999905
20
-26.6555599999999977
11
94.7390279999999905
21
-26.6555599999999977
0
LINE
8
BLACK
6
CONTINUOUS
10
94.7390279999999905
20
-26.6555599999999977
11
94.7390290000000022
21
-26.6555599999999977
0
LINE
8
BLACK
6
CONTINUOUS
10
94.7390290000000022
20
-26.6555599999999977
11
95.0373560000000026
21
-26.673608999999999
0
LINE
8
BLACK
6
CONTINUOUS
10
95.0373560000000026
20
-26.673608999999999
11
95.3313330000000008
21
-26.7274840000000005
0
LINE
8
BLACK
6
CONTINUOUS
10
95.3313330000000008
20
-26.7274840000000005
11
95.6166729999999916
21
-26.8164020000000001
0
LINE
8
BLACK
6
CONTINUOUS
10
95.6166729999999916
20
-26.8164020000000001
11
95.889214999999993
21
-26.9390639999999983
0
LINE
8
BLACK
6
CONTINUOUS
10
95.889214999999993
20
-26.9390639999999983
11
96.1449849999999913
21
-27.0936829999999986
0
LINE
8
BLACK
6
CONTINUOUS
10
96.1449849999999913
20
-27.0936829999999986
11
96.3802519999999987
21
-27.2780039999999993
0
LINE
8
BLACK
6
CONTINUOUS
10
96.3802519999999987
20
-27.2780039999999993
11
96.5915880000000016
21
-27.4893380000000001
0
LINE
8
BLACK
6
CONTINUOUS
10
96.5915880000000016
20
-27.4893380000000001
11
96.7759099999999961
21
-27.7246050000000004
0
LINE
8
BLACK
6
CONTINUOUS
10
96.7759099999999961
20
-27.7246050000000004
11
96.9305299999999903
21
-27.9803739999999976
0
LINE
8
BLACK
6
CONTINUOUS
10
96.9305299999999903
20
-27.9803739999999976
11
97.0531939999999906
21
-28.252914999999998
0
LINE
8
BLACK
6
CONTINUOUS
10
97.0531939999999906
20
-28.252914999999998
11
97.1421129999999948
21
-28.5382549999999995
0
LINE
8
BLACK
6
CONTINUOUS
10
97.1421129999999948
20
-28.5382549999999995
11
97.1959899999999948
21
-28.8322310000000002
0
LINE
8
BLACK
6
CONTINUOUS
10
97.1959899999999948
20
-28.8322310000000002
11
97.2140399999999971
21
-29.1305589999999981
0
LINE
8
BLACK
6
CONTINUOUS
10
97.2140399999999971
20
-29.1305589999999981
11
97.214027999999999
21
-29.1305589999999981
0
LINE
8
BLACK
6
CONTINUOUS
10
97.214027999999999
20
-29.1305589999999981
11
97.214027999999999
21
-29.1305599999999991
0
LINE
8
BLACK
6
CONTINUOUS
10
97.214027999999999
20
-29.1305599999999991
11
97.214027999999999
21
-35.1555600000000013
0
LINE
8
BLACK
6
CONTINUOUS
10
97.214027999999999
20
-35.1555600000000013
11
112.7390279999999905
21
-35.1555600000000013
0
LINE
8
BLACK
6
CONTINUOUS
10
112.7390279999999905
20
-35.1555600000000013
11
112.7390289999999879
21
-35.1555600000000013
0
LINE
8
BLACK
6
CONTINUOUS
10
112.7390289999999879
20
-35.1555600000000013
11
113.0373559999999884
21
-35.173608999999999
0
LINE
8
BLACK
6
CONTINUOUS
10
113.0373559999999884
20
-35.173608999999999
11
113.3313330000000008
21
-35.2274839999999969
0
LINE
8
BLACK
6
CONTINUOUS
10
113.3313330000000008
20
-35.2274839999999969
11
113.6166729999999916
21
-35.3164019999999965
0
LINE
8
BLACK
6
CONTINUOUS
10
113.6166729999999916
20
-35.3164019999999965
11
113.889214999999993
21
-35.4390640000000019
0
LINE
8
BLACK
6
CONTINUOUS
10
113.889214999999993
20
-35.4390640000000019
11
114.1449849999999913
21
-35.5936829999999986
0
LINE
8
BLACK
6
CONTINUOUS
10
114.1449849999999913
20
-35.5936829999999986
11
114.3802519999999987
21
-35.7780039999999957
0
LINE
8
BLACK
6
CONTINUOUS
10
114.3802519999999987
20
-35.7780039999999957
11
114.5915880000000016
21
-35.9893379999999965
0
LINE
8
BLACK
6
CONTINUOUS
10
114.5915880000000016
20
-35.9893379999999965
11
114.7759099999999961
21
-36.2246049999999968
0
LINE
8
BLACK
6
CONTINUOUS
10
114.7759099999999961
20
-36.2246049999999968
11
114.9305299999999903
21
-36.4803739999999976
0
LINE
8
BLACK
6
CONTINUOUS
10
114.9305299999999903
20
-36.4803739999999976
11
115.0531939999999906
21
-36.7529150000000016
0
LINE
8
BLACK
6
CONTINUOUS
10
115.0531939999999906
20
-36.7529150000000016
11
115.1421129999999948
21
-37.0382549999999995
0
LINE
8
BLACK
6
CONTINUOUS
10
115.1421129999999948
20
-37.0382549999999995
11
115.1959899999999948
21
-37.3322310000000002
0
LINE
8
BLACK
6
CONTINUOUS
10
115.1959899999999948
20
-37.3322310000000002
11
115.2140399999999971
21
-37.6305589999999981
0
LINE
8
BLACK
6
CONTINUOUS
10
115.2140399999999971
20
-37.6305589999999981
11
115.214027999999999
21
-37.6305589999999981
0
LINE
8
BLACK
6
CONTINUOUS
10
115.214027999999999
20
-37.6305589999999981
11
115.214027999999999
21
-37.6305599999999956
0
LINE
8
BLACK
6
CONTINUOUS
10
115.214027999999999
20
-37.6305599999999956
11
115.214027999999999
21
-37.7055599999999984
0
LINE
8
BLACK
6
CONTINUOUS
10
115.214027999999999
20
-37.7055599999999984
11
130.7390279999999905
21
-37.7055599999999984
0
LINE
8
BLACK
6
CONTINUOUS
10
130.7390279999999905
20
-37.7055599999999984
11
130.7390289999999879
21
-37.7055599999999984
0
LINE
8
BLACK
6
CONTINUOUS
10
130.7390289999999879
20
-37.7055599999999984
11
131.0373559999999884
21
-37.7236089999999962
0
LINE
8
BLACK
6
CONTINUOUS
10
131.0373559999999884
20
-37.7236089999999962
11
131.3313330000000008
21
-37.7774840000000012
0
LINE
8
BLACK
6
CONTINUOUS
10
131.3313330000000008
20
-37.7774840000000012
11
131.6166729999999916
21
-37.8664020000000008
0
LINE
8
BLACK
6
CONTINUOUS
10
131.6166729999999916
20
-37.8664020000000008
11
131.8892150000000072
21
-37.9890639999999991
0
LINE
8
BLACK
6
CONTINUOUS
10
131.8892150000000072
20
-37.9890639999999991
11
132.1449849999999913
21
-38.1436829999999958
0
LINE
8
BLACK
6
CONTINUOUS
10
132.1449849999999913
20
-38.1436829999999958
11
132.3802519999999845
21
-38.328004
0
LINE
8
BLACK
6
CONTINUOUS
10
132.3802519999999845
20
-38.328004
11
132.5915880000000016
21
-38.5393380000000008
0
LINE
8
BLACK
6
CONTINUOUS
10
132.5915880000000016
20
-38.5393380000000008
11
132.7759099999999819
21
-38.7746050000000011
0
LINE
8
BLACK
6
CONTINUOUS
10
132.7759099999999819
20
-38.7746050000000011
11
132.9305300000000045
21
-39.0303739999999948
0
LINE
8
BLACK
6
CONTINUOUS
10
132.9305300000000045
20
-39.0303739999999948
11
133.0531939999999906
21
-39.3029149999999987
0
LINE
8
BLACK
6
CONTINUOUS
10
133.0531939999999906
20
-39.3029149999999987
11
133.1421129999999948
21
-39.5882549999999966
0
LINE
8
BLACK
6
CONTINUOUS
10
133.1421129999999948
20
-39.5882549999999966
11
133.1959899999999948
21
-39.8822309999999973
0
LINE
8
BLACK
6
CONTINUOUS
10
133.1959899999999948
20
-39.8822309999999973
11
133.2140399999999829
21
-40.1805589999999953
0
LINE
8
BLACK
6
CONTINUOUS
10
133.2140399999999829
20
-40.1805589999999953
11
133.2140279999999848
21
-40.1805589999999953
0
LINE
8
BLACK
6
CONTINUOUS
10
133.2140279999999848
20
-40.1805589999999953
11
133.2140279999999848
21
-40.1805599999999998
0
LINE
8
BLACK
6
CONTINUOUS
10
133.2140279999999848
20
-40.1805599999999998
11
133.2140279999999848
21
-43.2055599999999984
0
LINE
8
BLACK
6
CONTINUOUS
10
133.2140279999999848
20
-43.2055599999999984
11
147.7390279999999905
21
-43.2055599999999984
0
LINE
8
BLACK
6
CONTINUOUS
10
147.7390279999999905
20
-43.2055599999999984
11
147.7390289999999879
21
-43.2055599999999984
0
LINE
8
BLACK
6
CONTINUOUS
10
147.7390289999999879
20
-43.2055599999999984
11
148.0373559999999884
21
-43.2236089999999962
0
LINE
8
BLACK
6
CONTINUOUS
10
148.0373559999999884
20
-43.2236089999999962
11
148.3313330000000008
21
-43.2774840000000012
0
LINE
8
BLACK
6
CONTINUOUS
10
148.3313330000000008
20
-43.2774840000000012
11
148.6166729999999916
21
-43.3664020000000008
0
LINE
8
BLACK
6
CONTINUOUS
10
148.6166729999999916
20
-43.3664020000000008
11
148.8892150000000072
21
-43.4890639999999991
0
LINE
8
BLACK
6
CONTINUOUS
10
148.8892150000000072
20
-43.4890639999999991
11
149.1449849999999913
21
-43.6436829999999958
0
LINE
8
BLACK
6
CONTINUOUS
10
149.1449849999999913
20
-43.6436829999999958
11
149.3802519999999845
21
-43.828004
0
LINE
8
BLACK
6
CONTINUOUS
10
149.3802519999999845
20
-43.828004
11
149.5915880000000016
21
-44.0393380000000008
0
LINE
8
BLACK
6
CONTINUOUS
10
149.5915880000000016
20
-44.0393380000000008
11
149.7759099999999819
21
-44.2746050000000011
0
LINE
8
BLACK
6
CONTINUOUS
10
149.7759099999999819
20
-44.2746050000000011
11
149.9305300000000045
21
-44.5303739999999948
0
LINE
8
BLACK
6
CONTINUOUS
10
149.9305300000000045
20
-44.5303739999999948
11
150.0531939999999906
21
-44.8029149999999987
0
LINE
8
BLACK
6
CONTINUOUS
10
150.0531939999999906
20
-44.8029149999999987
11
150.1421129999999948
21
-45.0882549999999966
0
LINE
8
BLACK
6
CONTINUOUS
10
150.1421129999999948
20
-45.0882549999999966
11
150.1959899999999948
21
-45.3822309999999973
0
LINE
8
BLACK
6
CONTINUOUS
10
150.1959899999999948
20
-45.3822309999999973
11
150.2140399999999829
21
-45.6805589999999953
0
LINE
8
BLACK
6
CONTINUOUS
10
150.2140399999999829
20
-45.6805589999999953
11
150.2140279999999848
21
-45.6805589999999953
0
LINE
8
BLACK
6
CONTINUOUS
10
150.2140279999999848
20
-45.6805589999999953
11
150.2140279999999848
21
-45.6805599999999998
0
LINE
8
BLACK
6
CONTINUOUS
10
150.2140279999999848
20
-45.6805599999999998
11
150.2140279999999848
21
-99.0655280000000005
0
LINE
8
BLACK
6
CONTINUOUS
10
150.2140279999999848
20
-99.0655280000000005
11
165.2963419999999815
21
-107.7733059999999909
0
LINE
8
BLACK
6
CONTINUOUS
10
165.2963419999999815
20
-107.7733059999999909
11
165.2963780000000042
21
-107.7733309999999989
0
LINE
8
BLACK
6
CONTINUOUS
10
165.2963780000000042
20
-107.7733309999999989
11
165.5456669999999804
21
-107.9381099999999947
0
LINE
8
BLACK
6
CONTINUOUS
10
165.5456669999999804
20
-107.9381099999999947
11
165.7733069999999884
21
-108.1317599999999999
0
LINE
8
BLACK
6
CONTINUOUS
10
165.7733069999999884
20
-108.1317599999999999
11
165.9759469999999908
21
-108.3514359999999925
0
LINE
8
BLACK
6
CONTINUOUS
10
165.9759469999999908
20
-108.3514359999999925
11
166.1506320000000017
21
-108.5939339999999902
0
LINE
8
BLACK
6
CONTINUOUS
10
166.1506320000000017
20
-108.5939339999999902
11
166.2948149999999998
21
-108.8557199999999909
0
LINE
8
BLACK
6
CONTINUOUS
10
166.2948149999999998
20
-108.8557199999999909
11
166.40639299999998
21
-109.1329750000000018
0
LINE
8
BLACK
6
CONTINUOUS
10
166.40639299999998
20
-109.1329750000000018
11
166.4837399999999832
21
-109.4216579999999936
0
LINE
8
BLACK
6
CONTINUOUS
10
166.4837399999999832
20
-109.4216579999999936
11
166.5257289999999841
21
-109.7175589999999943
0
LINE
8
BLACK
6
CONTINUOUS
10
166.5257289999999841
20
-109.7175589999999943
11
166.5317459999999983
21
-110.0163639999999958
0
LINE
8
BLACK
6
CONTINUOUS
10
166.5317459999999983
20
-110.0163639999999958
11
166.5017039999999895
21
-110.313715000000002
0
LINE
8
BLACK
6
CONTINUOUS
10
166.5017039999999895
20
-110.313715000000002
11
166.4360409999999888
21
-110.6052779999999984
0
LINE
8
BLACK
6
CONTINUOUS
10
166.4360409999999888
20
-110.6052779999999984
11
166.3357139999999958
21
-110.8867999999999938
0
LINE
8
BLACK
6
CONTINUOUS
10
166.3357139999999958
20
-110.8867999999999938
11
166.2031209999999817
21
-111.1523069999999933
0
LINE
8
BLACK
6
CONTINUOUS
10
166.2031209999999817
20
-111.1523069999999933
11
166.2022549999999796
21
-111.1542169999999885
0
LINE
8
BLACK
6
CONTINUOUS
10
166.2022549999999796
20
-111.1542169999999885
11
166.2022560000000055
21
-111.1542180000000002
0
LINE
8
BLACK
6
CONTINUOUS
10
166.2022560000000055
20
-111.1542180000000002
11
166.2022549999999796
21
-111.1542180000000002
0
LINE
8
BLACK
6
CONTINUOUS
10
166.2022549999999796
20
-111.1542180000000002
11
166.2022549999999796
21
-111.1542189999999977
0
LINE
8
BLACK
6
CONTINUOUS
10
166.2022549999999796
20
-111.1542189999999977
11
156.7022549999999796
21
-127.6087019999999939
0
LINE
8
BLACK
6
CONTINUOUS
10
156.7022549999999796
20
-127.6087019999999939
11
156.7022379999999941
21
-127.6087249999999926
0
LINE
8
BLACK
6
CONTINUOUS
10
156.7022379999999941
20
-127.6087249999999926
11
156.538283000000007
21
-127.8569559999999967
0
LINE
8
BLACK
6
CONTINUOUS
10
156.538283000000007
20
-127.8569559999999967
11
156.3457049999999811
21
-128.0837420000000009
0
LINE
8
BLACK
6
CONTINUOUS
10
156.3457049999999811
20
-128.0837420000000009
11
156.1273050000000069
21
-128.2857799999999884
0
LINE
8
BLACK
6
CONTINUOUS
10
156.1273050000000069
20
-128.2857799999999884
11
155.8862389999999891
21
-128.4601519999999937
0
LINE
8
BLACK
6
CONTINUOUS
10
155.8862389999999891
20
-128.4601519999999937
11
155.6259909999999991
21
-128.6043349999999919
0
LINE
8
BLACK
6
CONTINUOUS
10
155.6259909999999991
20
-128.6043349999999919
11
155.3503220000000056
21
-128.7162480000000073
0
LINE
8
BLACK
6
CONTINUOUS
10
155.3503220000000056
20
-128.7162480000000073
11
155.0632149999999854
21
-128.794273000000004
0
LINE
8
BLACK
6
CONTINUOUS
10
155.0632149999999854
20
-128.794273000000004
11
154.7688200000000052
21
-128.8372809999999902
0
LINE
8
BLACK
6
CONTINUOUS
10
154.7688200000000052
20
-128.8372809999999902
11
154.4713919999999803
21
-128.8446519999999964
0
LINE
8
BLACK
6
CONTINUOUS
10
154.4713919999999803
20
-128.8446519999999964
11
154.1752280000000042
21
-128.8162800000000061
0
LINE
8
BLACK
6
CONTINUOUS
10
154.1752280000000042
20
-128.8162800000000061
11
153.8846089999999833
21
-128.7525729999999839
0
LINE
8
BLACK
6
CONTINUOUS
10
153.8846089999999833
20
-128.7525729999999839
11
153.6037340000000029
21
-128.6544529999999895
0
LINE
8
BLACK
6
CONTINUOUS
10
153.6037340000000029
20
-128.6544529999999895
11
153.3377069999999947
21
-128.5238499999999817
0
LINE
8
BLACK
6
CONTINUOUS
10
153.3377069999999947
20
-128.5238499999999817
11
153.3366450000000043
21
-128.5233780000000081
0
LINE
8
BLACK
6
CONTINUOUS
10
153.3366450000000043
20
-128.5233780000000081
11
136.7562879999999836
21
-119.107570999999993
0
LINE
8
BLACK
6
CONTINUOUS
10
136.7562879999999836
20
-119.107570999999993
11
127.8024879999999968
21
-116.708406999999994
0
LINE
8
BLACK
6
CONTINUOUS
10
127.8024879999999968
20
-116.708406999999994
11
118.3748509999999925
21
-114.355559999999997
0
LINE
8
BLACK
6
CONTINUOUS
10
118.3748509999999925
20
-114.355559999999997
11
98.6790289999999999
21
-114.355559999999997
0
LINE
8
BLACK
6
CONTINUOUS
10
98.6790289999999999
20
-114.355559999999997
11
98.6790280000000024
21
-114.355559999999997
0
LINE
8
BLACK
6
CONTINUOUS
10
98.6790280000000024
20
-114.355559999999997
11
98.6790259999999932
21
-114.3555589999999995
0
LINE
8
BLACK
6
CONTINUOUS
10
98.6790259999999932
20
-114.3555589999999995
11
98.3806999999999903
21
-114.3375179999999887
0
LINE
8
BLACK
6
CONTINUOUS
10
98.3806999999999903
20
-114.3375179999999887
11
98.0867209999999972
21
-114.2836459999999903
0
LINE
8
BLACK
6
CONTINUOUS
10
98.0867209999999972
20
-114.2836459999999903
11
97.8013789999999972
21
-114.1947320000000019
0
LINE
8
BLACK
6
CONTINUOUS
10
97.8013789999999972
20
-114.1947320000000019
11
97.5288350000000008
21
-114.0720719999999915
0
LINE
8
BLACK
6
CONTINUOUS
10
97.5288350000000008
20
-114.0720719999999915
11
97.2730639999999909
21
-113.9174529999999947
0
LINE
8
BLACK
6
CONTINUOUS
10
97.2730639999999909
20
-113.9174529999999947
11
97.0377950000000027
21
-113.7331319999999977
0
LINE
8
BLACK
6
CONTINUOUS
10
97.0377950000000027
20
-113.7331319999999977
11
96.8264599999999973
21
-113.5217949999999973
0
LINE
8
BLACK
6
CONTINUOUS
10
96.8264599999999973
20
-113.5217949999999973
11
96.6421399999999977
21
-113.286525999999995
0
LINE
8
BLACK
6
CONTINUOUS
10
96.6421399999999977
20
-113.286525999999995
11
96.4875229999999959
21
-113.0307540000000017
0
LINE
8
BLACK
6
CONTINUOUS
10
96.4875229999999959
20
-113.0307540000000017
11
96.3648629999999997
21
-112.7582089999999937
0
LINE
8
BLACK
6
CONTINUOUS
10
96.3648629999999997
20
-112.7582089999999937
11
96.2759509999999921
21
-112.4728669999999937
0
LINE
8
BLACK
6
CONTINUOUS
10
96.2759509999999921
20
-112.4728669999999937
11
96.2220809999999886
21
-112.1788880000000006
0
LINE
8
BLACK
6
CONTINUOUS
10
96.2220809999999886
20
-112.1788880000000006
11
96.2040590000000009
21
-111.8808769999999981
0
LINE
8
BLACK
6
CONTINUOUS
10
96.2040590000000009
20
-111.8808769999999981
11
96.2040279999999939
21
-111.8805599999999885
0
LINE
8
BLACK
6
CONTINUOUS
10
96.2040279999999939
20
-111.8805599999999885
11
96.2040279999999939
21
-93.105559999999997
0
LINE
8
BLACK
6
CONTINUOUS
10
96.2040279999999939
20
-93.105559999999997
11
92.7390290000000022
21
-93.105559999999997
0
LINE
8
BLACK
6
CONTINUOUS
10
92.7390290000000022
20
-93.105559999999997
11
92.7390279999999905
21
-93.105559999999997
0
LINE
8
BLACK
6
CONTINUOUS
10
92.7390279999999905
20
-93.105559999999997
11
92.7390259999999955
21
-93.1055589999999995
0
LINE
8
BLACK
6
CONTINUOUS
10
92.7390259999999955
20
-93.1055589999999995
11
92.4406999999999925
21
-93.0875180000000029
0
LINE
8
BLACK
6
CONTINUOUS
10
92.4406999999999925
20
-93.0875180000000029
11
92.1467209999999994
21
-93.0336459999999903
0
LINE
8
BLACK
6
CONTINUOUS
10
92.1467209999999994
20
-93.0336459999999903
11
91.8613789999999995
21
-92.9447320000000019
0
LINE
8
BLACK
6
CONTINUOUS
10
91.8613789999999995
20
-92.9447320000000019
11
91.5888349999999889
21
-92.8220719999999915
0
LINE
8
BLACK
6
CONTINUOUS
10
91.5888349999999889
20
-92.8220719999999915
11
91.3330639999999931
21
-92.6674529999999947
0
LINE
8
BLACK
6
CONTINUOUS
10
91.3330639999999931
20
-92.6674529999999947
11
91.0977949999999908
21
-92.4831319999999977
0
LINE
8
BLACK
6
CONTINUOUS
10
91.0977949999999908
20
-92.4831319999999977
11
90.8864599999999996
21
-92.2717949999999973
0
LINE
8
BLACK
6
CONTINUOUS
10
90.8864599999999996
20
-92.2717949999999973
11
90.70214
21
-92.036525999999995
0
LINE
8
BLACK
6
CONTINUOUS
10
90.70214
20
-92.036525999999995
11
90.5475229999999982
21
-91.7807540000000017
0
LINE
8
BLACK
6
CONTINUOUS
10
90.5475229999999982
20
-91.7807540000000017
11
90.424863000000002
21
-91.5082089999999937
0
LINE
8
BLACK
6
CONTINUOUS
10
90.424863000000002
20
-91.5082089999999937
11
90.3359509999999943
21
-91.2228669999999937
0
LINE
8
BLACK
6
CONTINUOUS
10
90.3359509999999943
20
-91.2228669999999937
11
90.2820809999999909
21
-90.9288880000000006
0
LINE
8
BLACK
6
CONTINUOUS
10
90.2820809999999909
20
-90.9288880000000006
11
90.2640589999999889
21
-90.6308769999999981
0
LINE
8
BLACK
6
CONTINUOUS
10
90.2640589999999889
20
-90.6308769999999981
11
90.2640279999999962
21
-90.6305600000000027
0
LINE
8
BLACK
6
CONTINUOUS
10
90.2640279999999962
20
-90.6305600000000027
11
90.2640279999999962
21
-84.605559999999997
0
LINE
8
BLACK
6
CONTINUOUS
10
90.2640279999999962
20
-84.605559999999997
11
79.5366879999999981
21
-84.605559999999997
0
LINE
8
BLACK
6
CONTINUOUS
10
79.5366879999999981
20
-84.605559999999997
11
79.8657350000000008
21
-89.3111370000000022
0
LINE
8
BLACK
6
CONTINUOUS
10
79.8657350000000008
20
-89.3111370000000022
11
79.8657189999999986
21
-89.3116849999999971
0
LINE
8
BLACK
6
CONTINUOUS
10
79.8657189999999986
20
-89.3116849999999971
11
79.8657850000000025
21
-89.3118479999999977
0
LINE
8
BLACK
6
CONTINUOUS
10
79.8657850000000025
20
-89.3118479999999977
11
79.8657839999999908
21
-89.3118479999999977
0
LINE
8
BLACK
6
CONTINUOUS
10
79.8657839999999908
20
-89.3118479999999977
11
79.8685119999999955
21
-89.6106549999999942
0
LINE
8
BLACK
6
CONTINUOUS
10
79.8685119999999955
20
-89.6106549999999942
11
79.8352079999999944
21
-89.9076120000000003
0
LINE
8
BLACK
6
CONTINUOUS
10
79.8352079999999944
20
-89.9076120000000003
11
79.7663589999999942
21
-90.1983910000000009
0
LINE
8
BLACK
6
CONTINUOUS
10
79.7663589999999942
20
-90.1983910000000009
11
79.6629689999999897
21
-90.4787529999999975
0
LINE
8
BLACK
6
CONTINUOUS
10
79.6629689999999897
20
-90.4787529999999975
11
79.5265429999999895
21
-90.7446109999999919
0
LINE
8
BLACK
6
CONTINUOUS
10
79.5265429999999895
20
-90.7446109999999919
11
79.3590719999999976
21
-90.9920910000000021
0
LINE
8
BLACK
6
CONTINUOUS
10
79.3590719999999976
20
-90.9920910000000021
11
79.1629959999999926
21
-91.2175829999999905
0
LINE
8
BLACK
6
CONTINUOUS
10
79.1629959999999926
20
-91.2175829999999905
11
78.9411739999999895
21
-91.4178009999999972
0
LINE
8
BLACK
6
CONTINUOUS
10
78.9411739999999895
20
-91.4178009999999972
11
78.6968379999999996
21
-91.5898269999999997
0
LINE
8
BLACK
6
CONTINUOUS
10
78.6968379999999996
20
-91.5898269999999997
11
78.4335519999999917
21
-91.7311529999999919
0
LINE
8
BLACK
6
CONTINUOUS
10
78.4335519999999917
20
-91.7311529999999919
11
78.1551529999999985
21
-91.8397190000000023
0
LINE
8
BLACK
6
CONTINUOUS
10
78.1551529999999985
20
-91.8397190000000023
11
77.8656989999999922
21
-91.9139409999999941
0
LINE
8
BLACK
6
CONTINUOUS
10
77.8656989999999922
20
-91.9139409999999941
11
77.5694099999999906
21
-91.952738999999994
0
LINE
8
BLACK
6
CONTINUOUS
10
77.5694099999999906
20
-91.952738999999994
11
77.5694110000000023
21
-91.9527539999999988
0
LINE
8
BLACK
6
CONTINUOUS
10
77.5694110000000023
20
-91.9527539999999988
11
77.5692469999999901
21
-91.9527130000000028
0
LINE
8
BLACK
6
CONTINUOUS
10
77.5692469999999901
20
-91.9527130000000028
11
77.5687190000000015
21
-91.9528029999999887
0
LINE
8
BLACK
6
CONTINUOUS
10
77.5687190000000015
20
-91.9528029999999887
11
62.4041039999999967
21
-93.0132150000000024
0
LINE
8
BLACK
6
CONTINUOUS
10
62.4041039999999967
20
-93.0132150000000024
11
63.6757390000000001
21
-102.0613619999999884
0
LINE
8
BLACK
6
CONTINUOUS
10
63.6757390000000001
20
-102.0613619999999884
11
63.6757390000000001
21
-102.0613630000000001
0
LINE
8
BLACK
6
CONTINUOUS
10
63.6757390000000001
20
-102.0613630000000001
11
63.699385999999997
21
-102.3592989999999929
0
LINE
8
BLACK
6
CONTINUOUS
10
63.699385999999997
20
-102.3592989999999929
11
63.6869489999999985
21
-102.6579129999999935
0
LINE
8
BLACK
6
CONTINUOUS
10
63.6869489999999985
20
-102.6579129999999935
11
63.6386089999999953
21
-102.9528509999999955
0
LINE
8
BLACK
6
CONTINUOUS
10
63.6386089999999953
20
-102.9528509999999955
11
63.5550709999999981
21
-103.2398120000000006
0
LINE
8
BLACK
6
CONTINUOUS
10
63.5550709999999981
20
-103.2398120000000006
11
63.4375529999999941
21
-103.5146110000000022
0
LINE
8
BLACK
6
CONTINUOUS
10
63.4375529999999941
20
-103.5146110000000022
11
63.2877689999999973
21
-103.7732419999999962
0
LINE
8
BLACK
6
CONTINUOUS
10
63.2877689999999973
20
-103.7732419999999962
11
63.1079030000000003
21
-104.0119329999999991
0
LINE
8
BLACK
6
CONTINUOUS
10
63.1079030000000003
20
-104.0119329999999991
11
62.9005779999999959
21
-104.2272029999999887
0
LINE
8
BLACK
6
CONTINUOUS
10
62.9005779999999959
20
-104.2272029999999887
11
62.6688159999999996
21
-104.4159140000000008
0
LINE
8
BLACK
6
CONTINUOUS
10
62.6688159999999996
20
-104.4159140000000008
11
62.4159979999999948
21
-104.5753129999999942
0
LINE
8
BLACK
6
CONTINUOUS
10
62.4159979999999948
20
-104.5753129999999942
11
62.1458099999999973
21
-104.7030769999999933
0
LINE
8
BLACK
6
CONTINUOUS
10
62.1458099999999973
20
-104.7030769999999933
11
61.8621920000000003
21
-104.7973409999999888
0
LINE
8
BLACK
6
CONTINUOUS
10
61.8621920000000003
20
-104.7973409999999888
11
61.5692789999999945
21
-104.8567329999999913
0
LINE
8
BLACK
6
CONTINUOUS
10
61.5692789999999945
20
-104.8567329999999913
11
61.5692789999999945
21
-104.8567290000000014
0
LINE
8
BLACK
6
CONTINUOUS
10
61.5692789999999945
20
-104.8567290000000014
11
41.7639169999999993
21
-107.6401910000000015
0
LINE
8
BLACK
6
CONTINUOUS
10
41.7639169999999993
20
-107.6401910000000015
11
41.7639119999999977
21
-107.6401910000000015
0
LINE
8
BLACK
6
CONTINUOUS
10
41.7639119999999977
20
-107.6401910000000015
11
41.4659789999999973
21
-107.6638349999999917
0
LINE
8
BLACK
6
CONTINUOUS
10
41.4659789999999973
20
-107.6638349999999917
11
41.1673660000000012
21
-107.6513949999999937
0
LINE
8
BLACK
6
CONTINUOUS
10
41.1673660000000012
20
-107.6513949999999937
11
40.8724279999999993
21
-107.6030540000000002
0
LINE
8
BLACK
6
CONTINUOUS
10
40.8724279999999993
20
-107.6030540000000002
11
40.5854679999999988
21
-107.5195149999999984
0
LINE
8
BLACK
6
CONTINUOUS
10
40.5854679999999988
20
-107.5195149999999984
11
40.3106689999999972
21
-107.4019969999999944
0
LINE
8
BLACK
6
CONTINUOUS
10
40.3106689999999972
20
-107.4019969999999944
11
40.052037999999996
21
-107.2522139999999951
0
LINE
8
BLACK
6
CONTINUOUS
10
40.052037999999996
20
-107.2522139999999951
11
39.8133470000000003
21
-107.0723489999999885
0
LINE
8
BLACK
6
CONTINUOUS
10
39.8133470000000003
20
-107.0723489999999885
11
39.5980759999999989
21
-106.8650249999999886
0
LINE
8
BLACK
6
CONTINUOUS
10
39.5980759999999989
20
-106.8650249999999886
11
39.409362999999999
21
-106.6332659999999919
0
LINE
8
BLACK
6
CONTINUOUS
10
39.409362999999999
20
-106.6332659999999919
11
39.249960999999999
21
-106.3804499999999962
0
LINE
8
BLACK
6
CONTINUOUS
10
39.249960999999999
20
-106.3804499999999962
11
39.1221929999999958
21
-106.1102640000000008
0
LINE
8
BLACK
6
CONTINUOUS
10
39.1221929999999958
20
-106.1102640000000008
11
39.0279239999999987
21
-105.8266479999999916
0
LINE
8
BLACK
6
CONTINUOUS
10
39.0279239999999987
20
-105.8266479999999916
11
38.9685270000000017
21
-105.5337370000000021
0
LINE
8
BLACK
6
CONTINUOUS
10
38.9685270000000017
20
-105.5337370000000021
11
38.9685500000000005
21
-105.533732999999998
0
LINE
8
BLACK
6
CONTINUOUS
10
38.9685500000000005
20
-105.533732999999998
11
38.9685500000000005
21
-105.5337309999999889
0
LINE
8
BLACK
6
CONTINUOUS
10
38.9685500000000005
20
-105.5337309999999889
11
31.592375999999998
21
-53.0495230000000006
0
LINE
8
BLACK
6
CONTINUOUS
10
31.592375999999998
20
-53.0495230000000006
11
31.592374999999997
21
-53.0495200000000011
0
LINE
8
BLACK
6
CONTINUOUS
10
31.592374999999997
20
-53.0495200000000011
11
31.5687309999999997
21
-52.7515879999999981
0
LINE
8
BLACK
6
CONTINUOUS
10
31.5687309999999997
20
-52.7515879999999981
11
31.5811689999999992
21
-52.452974999999995
0
LINE
8
BLACK
6
CONTINUOUS
10
31.5811689999999992
20
-52.452974999999995
11
31.6295109999999973
21
-52.1580389999999952
0
LINE
8
BLACK
6
CONTINUOUS
10
31.6295109999999973
20
-52.1580389999999952
11
31.7130499999999991
21
-51.8710809999999967
0
LINE
8
BLACK
6
CONTINUOUS
10
31.7130499999999991
20
-51.8710809999999967
11
31.8305679999999995
21
-51.5962839999999971
0
LINE
8
BLACK
6
CONTINUOUS
10
31.8305679999999995
20
-51.5962839999999971
11
31.9803529999999974
21
-51.337654999999998
0
LINE
8
BLACK
6
CONTINUOUS
10
31.9803529999999974
20
-51.337654999999998
11
32.1602199999999954
21
-51.0989669999999947
0
LINE
8
BLACK
6
CONTINUOUS
10
32.1602199999999954
20
-51.0989669999999947
11
32.3675449999999998
21
-50.883699
0
LINE
8
BLACK
6
CONTINUOUS
10
32.3675449999999998
20
-50.883699
11
32.5993059999999986
21
-50.6949909999999946
0
LINE
8
BLACK
6
CONTINUOUS
10
32.5993059999999986
20
-50.6949909999999946
11
32.8521239999999963
21
-50.5355939999999961
0
LINE
8
BLACK
6
CONTINUOUS
10
32.8521239999999963
20
-50.5355939999999961
11
33.1223109999999963
21
-50.4078329999999966
0
LINE
8
BLACK
6
CONTINUOUS
10
33.1223109999999963
20
-50.4078329999999966
11
33.4059279999999958
21
-50.313570999999996
0
LINE
8
BLACK
6
CONTINUOUS
10
33.4059279999999958
20
-50.313570999999996
11
33.6982140000000001
21
-50.2543069999999972
0
LINE
8
BLACK
6
CONTINUOUS
10
33.6982140000000001
20
-50.2543069999999972
11
33.698836
21
-50.2541569999999993
0
LINE
8
BLACK
6
CONTINUOUS
10
33.698836
20
-50.2541569999999993
11
51.9443699999999993
21
-47.6899129999999971
0
LINE
8
BLACK
6
CONTINUOUS
10
51.9443699999999993
20
-47.6899129999999971
11
51.2794189999999972
21
-38.1806659999999951
0
LINE
8
BLACK
6
CONTINUOUS
10
51.2794189999999972
20
-38.1806659999999951
11
51.2794189999999972
21
-38.1806389999999993
0
LINE
8
BLACK
6
CONTINUOUS
10
51.2794189999999972
20
-38.1806389999999993
11
51.2766049999999964
21
-37.8818629999999956
0
LINE
8
BLACK
6
CONTINUOUS
10
51.2766049999999964
20
-37.8818629999999956
11
51.3098229999999944
21
-37.5848979999999955
0
LINE
8
BLACK
6
CONTINUOUS
10
51.3098229999999944
20
-37.5848979999999955
11
51.3785880000000006
21
-37.2941009999999977
0
LINE
8
BLACK
6
CONTINUOUS
10
51.3785880000000006
20
-37.2941009999999977
11
51.4818989999999985
21
-37.0137110000000007
0
LINE
8
BLACK
6
CONTINUOUS
10
51.4818989999999985
20
-37.0137110000000007
11
51.6182479999999941
21
-36.7478160000000003
0
LINE
8
BLACK
6
CONTINUOUS
10
51.6182479999999941
20
-36.7478160000000003
11
51.7856489999999994
21
-36.5002909999999972
0
LINE
8
BLACK
6
CONTINUOUS
10
51.7856489999999994
20
-36.5002909999999972
11
51.9816609999999955
21
-36.2747449999999958
0
LINE
8
BLACK
6
CONTINUOUS
10
51.9816609999999955
20
-36.2747449999999958
11
52.2034269999999978
21
-36.0744669999999985
0
LINE
8
BLACK
6
CONTINUOUS
10
52.2034269999999978
20
-36.0744669999999985
11
52.4477130000000002
21
-35.9023749999999993
0
LINE
8
BLACK
6
CONTINUOUS
10
52.4477130000000002
20
-35.9023749999999993
11
52.7109589999999955
21
-35.7609780000000015
0
LINE
8
BLACK
6
CONTINUOUS
10
52.7109589999999955
20
-35.7609780000000015
11
52.9893269999999958
21
-35.6523380000000003
0
LINE
8
BLACK
6
CONTINUOUS
10
52.9893269999999958
20
-35.6523380000000003
11
53.2787599999999983
21
-35.5780379999999994
0
LINE
8
BLACK
6
CONTINUOUS
10
53.2787599999999983
20
-35.5780379999999994
11
53.5750369999999947
21
-35.539161
0
LINE
8
BLACK
6
CONTINUOUS
10
53.5750369999999947
20
-35.539161
11
53.5750320000000002
21
-35.5390969999999982
0
LINE
8
BLACK
6
CONTINUOUS
10
53.5750320000000002
20
-35.5390969999999982
11
53.5752019999999973
21
-35.5391389999999987
0
LINE
8
BLACK
6
CONTINUOUS
10
53.5752019999999973
20
-35.5391389999999987
11
53.5757419999999982
21
-35.5390480000000011
0
LINE
8
BLACK
6
CONTINUOUS
10
53.5757419999999982
20
-35.5390480000000011
11
72.2640279999999962
21
-34.2322349999999958
0
LINE
8
BLACK
6
CONTINUOUS
10
72.2640279999999962
20
-34.2322349999999958
11
72.2640279999999962
21
-29.1305599999999991
0
LINE
8
BLACK
6
CONTINUOUS
10
72.2640279999999962
20
-29.1305599999999991
11
72.2640279999999962
21
-29.1305569999999996
0
LINE
8
BLACK
6
CONTINUOUS
10
72.2640279999999962
20
-29.1305569999999996
11
72.2820839999999976
21
-28.8322329999999987
0
LINE
8
BLACK
6
CONTINUOUS
10
72.2820839999999976
20
-28.8322329999999987
11
72.3359650000000016
21
-28.5382599999999975
0
LINE
8
BLACK
6
CONTINUOUS
10
72.3359650000000016
20
-28.5382599999999975
11
72.4248860000000008
21
-28.2529240000000001
0
LINE
8
BLACK
6
CONTINUOUS
10
72.4248860000000008
20
-28.2529240000000001
11
72.5475509999999986
21
-27.9803859999999993
0
LINE
8
BLACK
6
CONTINUOUS
10
72.5475509999999986
20
-27.9803859999999993
11
72.7021709999999928
21
-27.7246209999999991
0
LINE
8
BLACK
6
CONTINUOUS
10
72.7021709999999928
20
-27.7246209999999991
11
72.8864909999999924
21
-27.4893559999999972
0
LINE
8
BLACK
6
CONTINUOUS
10
72.8864909999999924
20
-27.4893559999999972
11
73.0978240000000028
21
-27.2780229999999975
0
LINE
8
BLACK
6
CONTINUOUS
10
73.0978240000000028
20
-27.2780229999999975
11
73.3330890000000011
21
-27.0937020000000004
0
LINE
8
BLACK
6
CONTINUOUS
10
73.3330890000000011
20
-27.0937020000000004
11
73.5888549999999952
21
-26.9390819999999991
0
LINE
8
BLACK
6
CONTINUOUS
10
73.5888549999999952
20
-26.9390819999999991
11
73.8613919999999951
21
-26.8164169999999977
0
LINE
8
BLACK
6
CONTINUOUS
10
73.8613919999999951
20
-26.8164169999999977
11
74.146727999999996
21
-26.7274949999999976
0
LINE
8
BLACK
6
CONTINUOUS
10
74.146727999999996
20
-26.7274949999999976
11
74.44070099999999
21
-26.673613999999997
0
LINE
8
BLACK
6
CONTINUOUS
10
74.44070099999999
20
-26.673613999999997
11
74.739024999999998
21
-26.6555579999999992
0
LINE
8
BLACK
6
CONTINUOUS
10
74.739024999999998
20
-26.6555579999999992
11
74.739024999999998
21
-26.6555599999999977
0
LINE
8
BLACK
6
CONTINUOUS
10
74.5983949999999965
20
-26.8055629999999994
11
74.3191769999999963
21
-26.8394750000000002
0
LINE
8
BLACK
6
CONTINUOUS
10
74.3191769999999963
20
-26.8394750000000002
11
74.0460810000000009
21
-26.9067949999999989
0
LINE
8
BLACK
6
CONTINUOUS
10
74.0460810000000009
20
-26.9067949999999989
11
73.7830900000000014
21
-27.0065409999999986
0
LINE
8
BLACK
6
CONTINUOUS
10
73.7830900000000014
20
-27.0065409999999986
11
73.5340389999999928
21
-27.1372569999999982
0
LINE
8
BLACK
6
CONTINUOUS
10
73.5340389999999928
20
-27.1372569999999982
11
73.3025590000000022
21
-27.2970389999999981
0
LINE
8
BLACK
6
CONTINUOUS
10
73.3025590000000022
20
-27.2970389999999981
11
73.0920259999999899
21
-27.4835569999999976
0
LINE
8
BLACK
6
CONTINUOUS
10
73.0920259999999899
20
-27.4835569999999976
11
72.9055079999999975
21
-27.6940910000000002
0
LINE
8
BLACK
6
CONTINUOUS
10
72.9055079999999975
20
-27.6940910000000002
11
72.7457259999999906
21
-27.9255709999999979
0
LINE
8
BLACK
6
CONTINUOUS
10
72.7457259999999906
20
-27.9255709999999979
11
72.6150099999999981
21
-28.1746219999999994
0
LINE
8
BLACK
6
CONTINUOUS
10
72.6150099999999981
20
-28.1746219999999994
11
72.5152640000000019
21
-28.4376129999999989
0
LINE
8
BLACK
6
CONTINUOUS
10
72.5152640000000019
20
-28.4376129999999989
11
72.44794499999999
21
-28.7107089999999978
0
LINE
8
BLACK
6
CONTINUOUS
10
72.44794499999999
20
-28.7107089999999978
11
72.4140330000000034
21
-28.989926999999998
0
LINE
8
BLACK
6
CONTINUOUS
10
72.4140330000000034
20
-28.989926999999998
11
72.4140280000000018
21
-29.1305569999999996
0
LINE
8
BLACK
6
CONTINUOUS
10
72.4140280000000018
20
-29.1305569999999996
11
72.4140280000000018
21
-29.1305599999999991
0
LINE
8
BLACK
6
CONTINUOUS
10
72.4140280000000018
20
-29.1305599999999991
11
72.4140280000000018
21
-34.3021740000000008
0
LINE
8
BLACK
6
CONTINUOUS
10
72.4140280000000018
20
-34.3021740000000008
11
72.4132900000000035
21
-34.309666
0
LINE
8
BLACK
6
CONTINUOUS
10
72.4132900000000035
20
-34.309666
11
72.4134279999999961
21
-34.3116389999999996
0
LINE
8
BLACK
6
CONTINUOUS
10
72.4134279999999961
20
-34.3116389999999996
11
72.4129569999999916
21
-34.3130449999999954
0
LINE
8
BLACK
6
CONTINUOUS
10
72.4129569999999916
20
-34.3130449999999954
11
72.412587000000002
21
-34.3168059999999997
0
LINE
8
BLACK
6
CONTINUOUS
10
72.412587000000002
20
-34.3168059999999997
11
72.4079669999999993
21
-34.3279579999999953
0
LINE
8
BLACK
6
CONTINUOUS
10
72.4079669999999993
20
-34.3279579999999953
11
72.4041419999999931
21
-34.3393909999999991
0
LINE
8
BLACK
6
CONTINUOUS
10
72.4041419999999931
20
-34.3393909999999991
11
72.4024029999999925
21
-34.3413910000000016
0
LINE
8
BLACK
6
CONTINUOUS
10
72.4024029999999925
20
-34.3413910000000016
11
72.4013879999999972
21
-34.3438419999999951
0
LINE
8
BLACK
6
CONTINUOUS
10
72.4013879999999972
20
-34.3438419999999951
11
72.3928530000000023
21
-34.3523759999999996
0
LINE
8
BLACK
6
CONTINUOUS
10
72.3928530000000023
20
-34.3523759999999996
11
72.3849439999999902
21
-34.3614749999999987
0
LINE
8
BLACK
6
CONTINUOUS
10
72.3849439999999902
20
-34.3614749999999987
11
72.3825719999999961
21
-34.3626569999999987
0
LINE
8
BLACK
6
CONTINUOUS
10
72.3825719999999961
20
-34.3626569999999987
11
72.3806960000000004
21
-34.364533999999999
0
LINE
8
BLACK
6
CONTINUOUS
10
72.3806960000000004
20
-34.364533999999999
11
72.3695450000000022
21
-34.3691519999999997
0
LINE
8
BLACK
6
CONTINUOUS
10
72.3695450000000022
20
-34.3691519999999997
11
72.3587550000000022
21
-34.3745329999999996
0
LINE
8
BLACK
6
CONTINUOUS
10
72.3587550000000022
20
-34.3745329999999996
11
72.3550329999999917
21
-34.3751639999999981
0
LINE
8
BLACK
6
CONTINUOUS
10
72.3550329999999917
20
-34.3751639999999981
11
72.3536599999999908
21
-34.3757329999999968
0
LINE
8
BLACK
6
CONTINUOUS
10
72.3536599999999908
20
-34.3757329999999968
11
72.3516779999999926
21
-34.3757329999999968
0
LINE
8
BLACK
6
CONTINUOUS
10
72.3516779999999926
20
-34.3757329999999968
11
72.3442589999999939
21
-34.3769909999999967
0
LINE
8
BLACK
6
CONTINUOUS
10
72.3442589999999939
20
-34.3769909999999967
11
53.5862059999999971
21
-35.688682
0
LINE
8
BLACK
6
CONTINUOUS
10
53.5862059999999971
20
-35.688682
11
53.5856859999999955
21
-35.6886669999999953
0
LINE
8
BLACK
6
CONTINUOUS
10
53.5856859999999955
20
-35.6886669999999953
11
53.5855339999999956
21
-35.688728999999995
0
LINE
8
BLACK
6
CONTINUOUS
10
53.5855339999999956
20
-35.688728999999995
11
53.5855379999999997
21
-35.6887929999999969
0
LINE
8
BLACK
6
CONTINUOUS
10
53.5855379999999997
20
-35.6887929999999969
11
53.4452730000000003
21
-35.6986360000000005
0
LINE
8
BLACK
6
CONTINUOUS
10
53.4452730000000003
20
-35.6986360000000005
11
53.169162
21
-35.7519890000000018
0
LINE
8
BLACK
6
CONTINUOUS
10
53.169162
20
-35.7519890000000018
11
52.901492999999995
21
-35.8382299999999958
0
LINE
8
BLACK
6
CONTINUOUS
10
52.901492999999995
20
-35.8382299999999958
11
52.6461679999999959
21
-35.9561009999999968
0
LINE
8
BLACK
6
CONTINUOUS
10
52.6461679999999959
20
-35.9561009999999968
11
52.4069099999999963
21
-36.1038840000000008
0
LINE
8
BLACK
6
CONTINUOUS
10
52.4069099999999963
20
-36.1038840000000008
11
52.1872070000000008
21
-36.2794239999999988
0
LINE
8
BLACK
6
CONTINUOUS
10
52.1872070000000008
20
-36.2794239999999988
11
51.9902599999999993
21
-36.4801639999999949
0
LINE
8
BLACK
6
CONTINUOUS
10
51.9902599999999993
20
-36.4801639999999949
11
51.8189419999999998
21
-36.7031759999999991
0
LINE
8
BLACK
6
CONTINUOUS
10
51.8189419999999998
20
-36.7031759999999991
11
51.6757500000000007
21
-36.9452099999999959
0
LINE
8
BLACK
6
CONTINUOUS
10
51.6757500000000007
20
-36.9452099999999959
11
51.5627709999999979
21
-37.2027360000000016
0
LINE
8
BLACK
6
CONTINUOUS
10
51.5627709999999979
20
-37.2027360000000016
11
51.4816519999999969
21
-37.4720019999999963
0
LINE
8
BLACK
6
CONTINUOUS
10
51.4816519999999969
20
-37.4720019999999963
11
51.4335759999999951
21
-37.7490809999999968
0
LINE
8
BLACK
6
CONTINUOUS
10
51.4335759999999951
20
-37.7490809999999968
11
51.4192429999999945
21
-38.0299350000000018
0
LINE
8
BLACK
6
CONTINUOUS
10
51.4192429999999945
20
-38.0299350000000018
11
51.4290540000000007
21
-38.1702009999999987
0
LINE
8
BLACK
6
CONTINUOUS
10
51.4290540000000007
20
-38.1702009999999987
11
51.4290529999999961
21
-38.1702009999999987
0
LINE
8
BLACK
6
CONTINUOUS
10
51.4290529999999961
20
-38.1702009999999987
11
51.4290529999999961
21
-38.1702019999999962
0
LINE
8
BLACK
6
CONTINUOUS
10
51.4290529999999961
20
-38.1702019999999962
11
52.0988830000000007
21
-47.7492179999999991
0
LINE
8
BLACK
6
CONTINUOUS
10
52.0988830000000007
20
-47.7492179999999991
11
52.098669000000001
21
-47.7567409999999981
0
LINE
8
BLACK
6
CONTINUOUS
10
52.098669000000001
20
-47.7567409999999981
11
52.0989450000000005
21
-47.7587019999999995
0
LINE
8
BLACK
6
CONTINUOUS
10
52.0989450000000005
20
-47.7587019999999995
11
52.0985729999999947
21
-47.7601399999999998
0
LINE
8
BLACK
6
CONTINUOUS
10
52.0985729999999947
20
-47.7601399999999998
11
52.0984659999999948
21
-47.7639149999999972
0
LINE
8
BLACK
6
CONTINUOUS
10
52.0984659999999948
20
-47.7639149999999972
11
52.0946369999999987
21
-47.7753569999999996
0
LINE
8
BLACK
6
CONTINUOUS
10
52.0946369999999987
20
-47.7753569999999996
11
52.0916179999999969
21
-47.7870339999999985
0
LINE
8
BLACK
6
CONTINUOUS
10
52.0916179999999969
20
-47.7870339999999985
11
52.0900219999999976
21
-47.7891499999999994
0
LINE
8
BLACK
6
CONTINUOUS
10
52.0900219999999976
20
-47.7891499999999994
11
52.0891809999999964
21
-47.7916669999999968
0
LINE
8
BLACK
6
CONTINUOUS
10
52.0891809999999964
20
-47.7916669999999968
11
52.0812600000000003
21
-47.8007789999999986
0
LINE
8
BLACK
6
CONTINUOUS
10
52.0812600000000003
20
-47.8007789999999986
11
52.0740069999999946
21
-47.8104039999999983
0
LINE
8
BLACK
6
CONTINUOUS
10
52.0740069999999946
20
-47.8104039999999983
11
52.0717239999999961
21
-47.8117479999999944
0
LINE
8
BLACK
6
CONTINUOUS
10
52.0717239999999961
20
-47.8117479999999944
11
52.0699830000000006
21
-47.8137520000000009
0
LINE
8
BLACK
6
CONTINUOUS
10
52.0699830000000006
20
-47.8137520000000009
11
52.0591819999999998
21
-47.8191360000000003
0
LINE
8
BLACK
6
CONTINUOUS
10
52.0591819999999998
20
-47.8191360000000003
11
52.0487929999999963
21
-47.8252570000000006
0
LINE
8
BLACK
6
CONTINUOUS
10
52.0487929999999963
20
-47.8252570000000006
11
52.0451219999999992
21
-47.8261460000000014
0
LINE
8
BLACK
6
CONTINUOUS
10
52.0451219999999992
20
-47.8261460000000014
11
52.0437939999999983
21
-47.8268089999999972
0
LINE
8
BLACK
6
CONTINUOUS
10
52.0437939999999983
20
-47.8268089999999972
11
52.0418189999999967
21
-47.826946999999997
0
LINE
8
BLACK
6
CONTINUOUS
10
52.0418189999999967
20
-47.826946999999997
11
52.0345039999999983
21
-47.828719999999997
0
LINE
8
BLACK
6
CONTINUOUS
10
52.0345039999999983
20
-47.828719999999997
11
33.7197120000000012
21
-50.4026969999999963
0
LINE
8
BLACK
6
CONTINUOUS
10
33.7197120000000012
20
-50.4026969999999963
11
33.7197159999999982
21
-50.4027219999999971
0
LINE
8
BLACK
6
CONTINUOUS
10
33.7197159999999982
20
-50.4027219999999971
11
33.5804490000000015
21
-50.4222940000000008
0
LINE
8
BLACK
6
CONTINUOUS
10
33.5804490000000015
20
-50.4222940000000008
11
33.3086640000000003
21
-50.4947279999999949
0
LINE
8
BLACK
6
CONTINUOUS
10
33.3086640000000003
20
-50.4947279999999949
11
33.0475920000000016
21
-50.5993939999999967
0
LINE
8
BLACK
6
CONTINUOUS
10
33.0475920000000016
20
-50.5993939999999967
11
32.8010400000000004
21
-50.7347639999999984
0
LINE
8
BLACK
6
CONTINUOUS
10
32.8010400000000004
20
-50.7347639999999984
11
32.5726019999999963
21
-50.8988659999999982
0
LINE
8
BLACK
6
CONTINUOUS
10
32.5726019999999963
20
-50.8988659999999982
11
32.3656089999999992
21
-51.089306999999998
0
LINE
8
BLACK
6
CONTINUOUS
10
32.3656089999999992
20
-51.089306999999998
11
32.1830810000000014
21
-51.3033089999999987
0
LINE
8
BLACK
6
CONTINUOUS
10
32.1830810000000014
20
-51.3033089999999987
11
32.0276780000000016
21
-51.5377519999999976
0
LINE
8
BLACK
6
CONTINUOUS
10
32.0276780000000016
20
-51.5377519999999976
11
31.9016669999999998
21
-51.7892170000000007
0
LINE
8
BLACK
6
CONTINUOUS
10
31.9016669999999998
20
-51.7892170000000007
11
31.8068849999999976
21
-52.054037000000001
0
LINE
8
BLACK
6
CONTINUOUS
10
31.8068849999999976
20
-52.054037000000001
11
31.7447149999999993
21
-52.3283509999999978
0
LINE
8
BLACK
6
CONTINUOUS
10
31.7447149999999993
20
-52.3283509999999978
11
31.7160619999999973
21
-52.6081590000000006
0
LINE
8
BLACK
6
CONTINUOUS
10
31.7160619999999973
20
-52.6081590000000006
11
31.7213449999999995
21
-52.8893810000000002
0
LINE
8
BLACK
6
CONTINUOUS
10
31.7213449999999995
20
-52.8893810000000002
11
31.7409169999999996
21
-53.0286479999999969
0
LINE
8
BLACK
6
CONTINUOUS
10
31.7409169999999996
20
-53.0286479999999969
11
31.7409159999999986
21
-53.0286479999999969
0
LINE
8
BLACK
6
CONTINUOUS
10
31.7409159999999986
20
-53.0286479999999969
11
39.1170899999999975
21
-105.5128550000000018
0
LINE
8
BLACK
6
CONTINUOUS
10
39.1170899999999975
20
-105.5128550000000018
11
39.1171000000000006
21
-105.5130979999999994
0
LINE
8
BLACK
6
CONTINUOUS
10
39.1171000000000006
20
-105.5130979999999994
11
39.1366429999999994
21
-105.6521229999999889
0
LINE
8
BLACK
6
CONTINUOUS
10
39.1366429999999994
20
-105.6521229999999889
11
39.2090839999999972
21
-105.9239079999999973
0
LINE
8
BLACK
6
CONTINUOUS
10
39.2090839999999972
20
-105.9239079999999973
11
39.3137550000000005
21
-106.1849789999999985
0
LINE
8
BLACK
6
CONTINUOUS
10
39.3137550000000005
20
-106.1849789999999985
11
39.4491319999999988
21
-106.4315309999999926
0
LINE
8
BLACK
6
CONTINUOUS
10
39.4491319999999988
20
-106.4315309999999926
11
39.6132390000000001
21
-106.6599679999999921
0
LINE
8
BLACK
6
CONTINUOUS
10
39.6132390000000001
20
-106.6599679999999921
11
39.803683999999997
21
-106.8669589999999943
0
LINE
8
BLACK
6
CONTINUOUS
10
39.803683999999997
20
-106.8669589999999943
11
40.0176889999999972
21
-107.0494860000000017
0
LINE
8
BLACK
6
CONTINUOUS
10
40.0176889999999972
20
-107.0494860000000017
11
40.2521349999999956
21
-107.2048869999999994
0
LINE
8
BLACK
6
CONTINUOUS
10
40.2521349999999956
20
-107.2048869999999994
11
40.5036029999999982
21
-107.3308969999999931
0
LINE
8
BLACK
6
CONTINUOUS
10
40.5036029999999982
20
-107.3308969999999931
11
40.7684250000000006
21
-107.4256789999999882
0
LINE
8
BLACK
6
CONTINUOUS
10
40.7684250000000006
20
-107.4256789999999882
11
41.0427409999999995
21
-107.4878489999999971
0
LINE
8
BLACK
6
CONTINUOUS
10
41.0427409999999995
20
-107.4878489999999971
11
41.3225509999999971
21
-107.5165030000000002
0
LINE
8
BLACK
6
CONTINUOUS
10
41.3225509999999971
20
-107.5165030000000002
11
41.6037740000000014
21
-107.5112209999999919
0
LINE
8
BLACK
6
CONTINUOUS
10
41.6037740000000014
20
-107.5112209999999919
11
41.7430419999999955
21
-107.4916499999999928
0
LINE
8
BLACK
6
CONTINUOUS
10
41.7430419999999955
20
-107.4916499999999928
11
61.5483999999999938
21
-104.7081889999999902
0
LINE
8
BLACK
6
CONTINUOUS
10
61.5483999999999938
20
-104.7081889999999902
11
61.5484009999999984
21
-104.7081889999999902
0
LINE
8
BLACK
6
CONTINUOUS
10
61.5484009999999984
20
-104.7081889999999902
11
61.5484030000000004
21
-104.7081889999999902
0
LINE
8
BLACK
6
CONTINUOUS
10
61.5484030000000004
20
-104.7081889999999902
11
61.5484409999999968
21
-104.7081869999999952
0
LINE
8
BLACK
6
CONTINUOUS
10
61.5484409999999968
20
-104.7081869999999952
11
61.6876699999999971
21
-104.6886189999999885
0
LINE
8
BLACK
6
CONTINUOUS
10
61.6876699999999971
20
-104.6886189999999885
11
61.9594549999999984
21
-104.6161829999999924
0
LINE
8
BLACK
6
CONTINUOUS
10
61.9594549999999984
20
-104.6161829999999924
11
62.2205279999999945
21
-104.5115149999999886
0
LINE
8
BLACK
6
CONTINUOUS
10
62.2205279999999945
20
-104.5115149999999886
11
62.4670819999999978
21
-104.3761420000000015
0
LINE
8
BLACK
6
CONTINUOUS
10
62.4670819999999978
20
-104.3761420000000015
11
62.6955199999999948
21
-104.2120379999999926
0
LINE
8
BLACK
6
CONTINUOUS
10
62.6955199999999948
20
-104.2120379999999926
11
62.902512999999999
21
-104.0215949999999907
0
LINE
8
BLACK
6
CONTINUOUS
10
62.902512999999999
20
-104.0215949999999907
11
63.0850409999999968
21
-103.8075899999999905
0
LINE
8
BLACK
6
CONTINUOUS
10
63.0850409999999968
20
-103.8075899999999905
11
63.2404429999999991
21
-103.5731449999999967
0
LINE
8
BLACK
6
CONTINUOUS
10
63.2404429999999991
20
-103.5731449999999967
11
63.3664539999999974
21
-103.3216779999999915
0
LINE
8
BLACK
6
CONTINUOUS
10
63.3664539999999974
20
-103.3216779999999915
11
63.461234999999995
21
-103.0568549999999988
0
LINE
8
BLACK
6
CONTINUOUS
10
63.461234999999995
20
-103.0568549999999988
11
63.5234039999999993
21
-102.7825389999999999
0
LINE
8
BLACK
6
CONTINUOUS
10
63.5234039999999993
20
-102.7825389999999999
11
63.5520549999999957
21
-102.5027290000000022
0
LINE
8
BLACK
6
CONTINUOUS
10
63.5520549999999957
20
-102.5027290000000022
11
63.5467709999999997
21
-102.2215049999999934
0
LINE
8
BLACK
6
CONTINUOUS
10
63.5467709999999997
20
-102.2215049999999934
11
63.527198999999996
21
-102.0822369999999921
0
LINE
8
BLACK
6
CONTINUOUS
10
63.527198999999996
20
-102.0822369999999921
11
62.2443709999999939
21
-92.9544470000000018
0
LINE
8
BLACK
6
CONTINUOUS
10
62.2443709999999939
20
-92.9544470000000018
11
62.2437609999999992
21
-92.9397570000000002
0
LINE
8
BLACK
6
CONTINUOUS
10
62.2437609999999992
20
-92.9397570000000002
11
62.2444249999999997
21
-92.937185999999997
0
LINE
8
BLACK
6
CONTINUOUS
10
62.2444249999999997
20
-92.937185999999997
11
62.2442409999999953
21
-92.9345440000000025
0
LINE
8
BLACK
6
CONTINUOUS
10
62.2442409999999953
20
-92.9345440000000025
11
62.2480669999999989
21
-92.9231079999999992
0
LINE
8
BLACK
6
CONTINUOUS
10
62.2480669999999989
20
-92.9231079999999992
11
62.2510890000000003
21
-92.9114249999999942
0
LINE
8
BLACK
6
CONTINUOUS
10
62.2510890000000003
20
-92.9114249999999942
11
62.252683999999995
21
-92.9093069999999983
0
LINE
8
BLACK
6
CONTINUOUS
10
62.252683999999995
20
-92.9093069999999983
11
62.2535259999999937
21
-92.9067929999999933
0
LINE
8
BLACK
6
CONTINUOUS
10
62.2535259999999937
20
-92.9067929999999933
11
62.2614409999999978
21
-92.8976869999999906
0
LINE
8
BLACK
6
CONTINUOUS
10
62.2614409999999978
20
-92.8976869999999906
11
62.2686999999999955
21
-92.8880549999999943
0
LINE
8
BLACK
6
CONTINUOUS
10
62.2686999999999955
20
-92.8880549999999943
11
62.2709839999999986
21
-92.8867089999999962
0
LINE
8
BLACK
6
CONTINUOUS
10
62.2709839999999986
20
-92.8867089999999962
11
62.2727239999999966
21
-92.8847079999999892
0
LINE
8
BLACK
6
CONTINUOUS
10
62.2727239999999966
20
-92.8847079999999892
11
62.2835179999999937
21
-92.8793259999999918
0
LINE
8
BLACK
6
CONTINUOUS
10
62.2835179999999937
20
-92.8793259999999918
11
62.2939139999999938
21
-92.873201999999992
0
LINE
8
BLACK
6
CONTINUOUS
10
62.2939139999999938
20
-92.873201999999992
11
62.2965400000000002
21
-92.8728320000000025
0
LINE
8
BLACK
6
CONTINUOUS
10
62.2965400000000002
20
-92.8728320000000025
11
62.2989129999999989
21
-92.8716500000000025
0
LINE
8
BLACK
6
CONTINUOUS
10
62.2989129999999989
20
-92.8716500000000025
11
62.313409
21
-92.8691919999999982
0
LINE
8
BLACK
6
CONTINUOUS
10
62.313409
20
-92.8691919999999982
11
77.5582560000000001
21
-91.8031689999999969
0
LINE
8
BLACK
6
CONTINUOUS
10
77.5582560000000001
20
-91.8031689999999969
11
77.5587900000000019
21
-91.8031840000000017
0
LINE
8
BLACK
6
CONTINUOUS
10
77.5587900000000019
20
-91.8031840000000017
11
77.5589489999999984
21
-91.8031199999999927
0
LINE
8
BLACK
6
CONTINUOUS
10
77.5589489999999984
20
-91.8031199999999927
11
77.5589480000000009
21
-91.8031039999999905
0
LINE
8
BLACK
6
CONTINUOUS
10
77.5589480000000009
20
-91.8031039999999905
11
77.6992169999999902
21
-91.7932989999999904
0
LINE
8
BLACK
6
CONTINUOUS
10
77.6992169999999902
20
-91.7932989999999904
11
77.9753449999999901
21
-91.7400200000000012
0
LINE
8
BLACK
6
CONTINUOUS
10
77.9753449999999901
20
-91.7400200000000012
11
78.243038999999996
21
-91.6538509999999889
0
LINE
8
BLACK
6
CONTINUOUS
10
78.243038999999996
20
-91.6538509999999889
11
78.4983979999999946
21
-91.5360489999999913
0
LINE
8
BLACK
6
CONTINUOUS
10
78.4983979999999946
20
-91.5360489999999913
11
78.7376979999999946
21
-91.3883299999999963
0
LINE
8
BLACK
6
CONTINUOUS
10
78.7376979999999946
20
-91.3883299999999963
11
78.9574520000000035
21
-91.2128479999999939
0
LINE
8
BLACK
6
CONTINUOUS
10
78.9574520000000035
20
-91.2128479999999939
11
79.1544549999999987
21
-91.0121619999999893
0
LINE
8
BLACK
6
CONTINUOUS
10
79.1544549999999987
20
-91.0121619999999893
11
79.3258369999999928
21
-90.7891959999999898
0
LINE
8
BLACK
6
CONTINUOUS
10
79.3258369999999928
20
-90.7891959999999898
11
79.4690989999999999
21
-90.5472010000000012
0
LINE
8
BLACK
6
CONTINUOUS
10
79.4690989999999999
20
-90.5472010000000012
11
79.5821509999999961
21
-90.2897040000000004
0
LINE
8
BLACK
6
CONTINUOUS
10
79.5821509999999961
20
-90.2897040000000004
11
79.6633479999999992
21
-90.0204599999999999
0
LINE
8
BLACK
6
CONTINUOUS
10
79.6633479999999992
20
-90.0204599999999999
11
79.7115039999999908
21
-89.7433920000000001
0
LINE
8
BLACK
6
CONTINUOUS
10
79.7115039999999908
20
-89.7433920000000001
11
79.725917999999993
21
-89.4625410000000016
0
LINE
8
BLACK
6
CONTINUOUS
10
79.725917999999993
20
-89.4625410000000016
11
79.7161469999999923
21
-89.322269999999989
0
LINE
8
BLACK
6
CONTINUOUS
10
79.7161469999999923
20
-89.322269999999989
11
79.7161869999999908
21
-89.3221080000000001
0
LINE
8
BLACK
6
CONTINUOUS
10
79.7161869999999908
20
-89.3221080000000001
11
79.7161009999999948
21
-89.3215999999999894
0
LINE
8
BLACK
6
CONTINUOUS
10
79.7161009999999948
20
-89.3215999999999894
11
79.3814440000000019
21
-84.5357920000000007
0
LINE
8
BLACK
6
CONTINUOUS
10
79.3814440000000019
20
-84.5357920000000007
11
79.3818610000000007
21
-84.5210950000000025
0
LINE
8
BLACK
6
CONTINUOUS
10
79.3818610000000007
20
-84.5210950000000025
11
79.3827019999999948
21
-84.5185809999999975
0
LINE
8
BLACK
6
CONTINUOUS
10
79.3827019999999948
20
-84.5185809999999975
11
79.3827019999999948
21
-84.5159280000000024
0
LINE
8
BLACK
6
CONTINUOUS
10
79.3827019999999948
20
-84.5159280000000024
11
79.3873189999999909
21
-84.5047799999999967
0
LINE
8
BLACK
6
CONTINUOUS
10
79.3873189999999909
20
-84.5047799999999967
11
79.391145999999992
21
-84.4933439999999933
0
LINE
8
BLACK
6
CONTINUOUS
10
79.391145999999992
20
-84.4933439999999933
11
79.3928859999999901
21
-84.4913420000000031
0
LINE
8
BLACK
6
CONTINUOUS
10
79.3928859999999901
20
-84.4913420000000031
11
79.3939009999999996
21
-84.4888919999999928
0
LINE
8
BLACK
6
CONTINUOUS
10
79.3939009999999996
20
-84.4888919999999928
11
79.4024299999999954
21
-84.4803619999999995
0
LINE
8
BLACK
6
CONTINUOUS
10
79.4024299999999954
20
-84.4803619999999995
11
79.4103439999999949
21
-84.4712589999999892
0
LINE
8
BLACK
6
CONTINUOUS
10
79.4103439999999949
20
-84.4712589999999892
11
79.4127170000000007
21
-84.4700749999999942
0
LINE
8
BLACK
6
CONTINUOUS
10
79.4127170000000007
20
-84.4700749999999942
11
79.4145929999999964
21
-84.468199999999996
0
LINE
8
BLACK
6
CONTINUOUS
10
79.4145929999999964
20
-84.468199999999996
11
79.425736999999998
21
-84.4635829999999999
0
LINE
8
BLACK
6
CONTINUOUS
10
79.425736999999998
20
-84.4635829999999999
11
79.4365329999999972
21
-84.4582010000000025
0
LINE
8
BLACK
6
CONTINUOUS
10
79.4365329999999972
20
-84.4582010000000025
11
79.4391779999999983
21
-84.4580160000000006
0
LINE
8
BLACK
6
CONTINUOUS
10
79.4391779999999983
20
-84.4580160000000006
11
79.4416289999999918
21
-84.4570009999999911
0
LINE
8
BLACK
6
CONTINUOUS
10
79.4416289999999918
20
-84.4570009999999911
11
79.4562609999999978
21
-84.4555599999999913
0
LINE
8
BLACK
6
CONTINUOUS
10
79.4562609999999978
20
-84.4555599999999913
11
90.339027999999999
21
-84.4555599999999913
0
LINE
8
BLACK
6
CONTINUOUS
10
90.339027999999999
20
-84.4555599999999913
11
90.3536599999999908
21
-84.4570009999999911
0
LINE
8
BLACK
6
CONTINUOUS
10
90.3536599999999908
20
-84.4570009999999911
11
90.3806960000000004
21
-84.468199999999996
0
LINE
8
BLACK
6
CONTINUOUS
10
90.3806960000000004
20
-84.468199999999996
11
90.4013879999999972
21
-84.4888919999999928
0
LINE
8
BLACK
6
CONTINUOUS
10
90.4013879999999972
20
-84.4888919999999928
11
90.412587000000002
21
-84.5159280000000024
0
LINE
8
BLACK
6
CONTINUOUS
10
90.412587000000002
20
-84.5159280000000024
11
90.4140280000000018
21
-84.5305599999999941
0
LINE
8
BLACK
6
CONTINUOUS
10
90.4140280000000018
20
-84.5305599999999941
11
90.4140280000000018
21
-90.6305600000000027
0
LINE
8
BLACK
6
CONTINUOUS
10
90.4140280000000018
20
-90.6305600000000027
11
90.4140280000000018
21
-90.6305610000000001
0
LINE
8
BLACK
6
CONTINUOUS
10
90.4140280000000018
20
-90.6305610000000001
11
90.41404
21
-90.6305610000000001
0
LINE
8
BLACK
6
CONTINUOUS
10
90.41404
20
-90.6305610000000001
11
90.4140369999999933
21
-90.7711979999999983
0
LINE
8
BLACK
6
CONTINUOUS
10
90.4140369999999933
20
-90.7711979999999983
11
90.447936999999996
21
-91.050421
0
LINE
8
BLACK
6
CONTINUOUS
10
90.447936999999996
20
-91.050421
11
90.5152470000000022
21
-91.323521999999997
0
LINE
8
BLACK
6
CONTINUOUS
10
90.5152470000000022
20
-91.323521999999997
11
90.6149849999999901
21
-91.5865179999999981
0
LINE
8
BLACK
6
CONTINUOUS
10
90.6149849999999901
20
-91.5865179999999981
11
90.7456969999999927
21
-91.8355749999999915
0
LINE
8
BLACK
6
CONTINUOUS
10
90.7456969999999927
20
-91.8355749999999915
11
90.9054780000000022
21
-92.0670590000000004
0
LINE
8
BLACK
6
CONTINUOUS
10
90.9054780000000022
20
-92.0670590000000004
11
91.0919959999999946
21
-92.2775960000000026
0
LINE
8
BLACK
6
CONTINUOUS
10
91.0919959999999946
20
-92.2775960000000026
11
91.3025319999999994
21
-92.4641149999999925
0
LINE
8
BLACK
6
CONTINUOUS
10
91.3025319999999994
20
-92.4641149999999925
11
91.5340149999999966
21
-92.6238969999999995
0
LINE
8
BLACK
6
CONTINUOUS
10
91.5340149999999966
20
-92.6238969999999995
11
91.7830709999999925
21
-92.7546099999999996
0
LINE
8
BLACK
6
CONTINUOUS
10
91.7830709999999925
20
-92.7546099999999996
11
92.0460669999999936
21
-92.8543499999999966
0
LINE
8
BLACK
6
CONTINUOUS
10
92.0460669999999936
20
-92.8543499999999966
11
92.3191669999999931
21
-92.9216610000000003
0
LINE
8
BLACK
6
CONTINUOUS
10
92.3191669999999931
20
-92.9216610000000003
11
92.5983899999999949
21
-92.9555620000000005
0
LINE
8
BLACK
6
CONTINUOUS
10
92.5983899999999949
20
-92.9555620000000005
11
92.739026999999993
21
-92.9555599999999913
0
LINE
8
BLACK
6
CONTINUOUS
10
92.739026999999993
20
-92.9555599999999913
11
92.7390279999999905
21
-92.9555599999999913
0
LINE
8
BLACK
6
CONTINUOUS
10
92.7390279999999905
20
-92.9555599999999913
11
96.2790279999999967
21
-92.9555599999999913
0
LINE
8
BLACK
6
CONTINUOUS
10
96.2790279999999967
20
-92.9555599999999913
11
96.2936600000000027
21
-92.9570009999999911
0
LINE
8
BLACK
6
CONTINUOUS
10
96.2936600000000027
20
-92.9570009999999911
11
96.3206959999999981
21
-92.968199999999996
0
LINE
8
BLACK
6
CONTINUOUS
10
96.3206959999999981
20
-92.968199999999996
11
96.3413879999999949
21
-92.9888919999999928
0
LINE
8
BLACK
6
CONTINUOUS
10
96.3413879999999949
20
-92.9888919999999928
11
96.3525869999999998
21
-93.0159280000000024
0
LINE
8
BLACK
6
CONTINUOUS
10
96.3525869999999998
20
-93.0159280000000024
11
96.3540279999999996
21
-93.0305599999999941
0
LINE
8
BLACK
6
CONTINUOUS
10
96.3540279999999996
20
-93.0305599999999941
11
96.3540279999999996
21
-111.8805599999999885
0
LINE
8
BLACK
6
CONTINUOUS
10
96.3540279999999996
20
-111.8805599999999885
11
96.3540279999999996
21
-111.8805610000000001
0
LINE
8
BLACK
6
CONTINUOUS
10
96.3540279999999996
20
-111.8805610000000001
11
96.3540399999999977
21
-111.8805610000000001
0
LINE
8
BLACK
6
CONTINUOUS
10
96.3540399999999977
20
-111.8805610000000001
11
96.3540369999999911
21
-112.0211979999999983
0
LINE
8
BLACK
6
CONTINUOUS
10
96.3540369999999911
20
-112.0211979999999983
11
96.3879369999999938
21
-112.300421
0
LINE
8
BLACK
6
CONTINUOUS
10
96.3879369999999938
20
-112.300421
11
96.455247
21
-112.573521999999997
0
LINE
8
BLACK
6
CONTINUOUS
10
96.455247
20
-112.573521999999997
11
96.5549850000000021
21
-112.8365179999999981
0
LINE
8
BLACK
6
CONTINUOUS
10
96.5549850000000021
20
-112.8365179999999981
11
96.6856969999999905
21
-113.0855749999999915
0
LINE
8
BLACK
6
CONTINUOUS
10
96.6856969999999905
20
-113.0855749999999915
11
96.845478
21
-113.3170590000000004
0
LINE
8
BLACK
6
CONTINUOUS
10
96.845478
20
-113.3170590000000004
11
97.0319959999999924
21
-113.5275959999999884
0
LINE
8
BLACK
6
CONTINUOUS
10
97.0319959999999924
20
-113.5275959999999884
11
97.2425319999999971
21
-113.7141149999999925
0
LINE
8
BLACK
6
CONTINUOUS
10
97.2425319999999971
20
-113.7141149999999925
11
97.4740149999999943
21
-113.8738969999999995
0
LINE
8
BLACK
6
CONTINUOUS
10
97.4740149999999943
20
-113.8738969999999995
11
97.7230709999999902
21
-114.0046099999999996
0
LINE
8
BLACK
6
CONTINUOUS
10
97.7230709999999902
20
-114.0046099999999996
11
97.9860669999999914
21
-114.1043499999999966
0
LINE
8
BLACK
6
CONTINUOUS
10
97.9860669999999914
20
-114.1043499999999966
11
98.2591669999999908
21
-114.1716610000000003
0
LINE
8
BLACK
6
CONTINUOUS
10
98.2591669999999908
20
-114.1716610000000003
11
98.5383899999999926
21
-114.2055620000000005
0
LINE
8
BLACK
6
CONTINUOUS
10
98.5383899999999926
20
-114.2055620000000005
11
98.6790269999999907
21
-114.2055599999999913
0
LINE
8
BLACK
6
CONTINUOUS
10
98.6790269999999907
20
-114.2055599999999913
11
98.6790280000000024
21
-114.2055599999999913
0
LINE
8
BLACK
6
CONTINUOUS
10
98.6790280000000024
20
-114.2055599999999913
11
118.3840689999999967
21
-114.2055599999999913
0
LINE
8
BLACK
6
CONTINUOUS
10
118.3840689999999967
20
-114.2055599999999913
11
118.3865969999999948
21
-114.2058089999999879
0
LINE
8
BLACK
6
CONTINUOUS
10
118.3865969999999948
20
-114.2058089999999879
11
118.387683999999993
21
-114.205646999999999
0
LINE
8
BLACK
6
CONTINUOUS
10
118.387683999999993
20
-114.205646999999999
11
118.3931759999999969
21
-114.2064559999999886
0
LINE
8
BLACK
6
CONTINUOUS
10
118.3931759999999969
20
-114.2064559999999886
11
118.3987009999999884
21
-114.2070009999999911
0
LINE
8
BLACK
6
CONTINUOUS
10
118.3987009999999884
20
-114.2070009999999911
11
118.3997150000000005
21
-114.2074209999999965
0
LINE
8
BLACK
6
CONTINUOUS
10
118.3997150000000005
20
-114.2074209999999965
11
118.4022299999999888
21
-114.2077919999999978
0
LINE
8
BLACK
6
CONTINUOUS
10
118.4022299999999888
20
-114.2077919999999978
11
127.8394189999999924
21
-116.5630239999999986
0
LINE
8
BLACK
6
CONTINUOUS
10
127.8394189999999924
20
-116.5630239999999986
11
127.8400319999999937
21
-116.5632419999999883
0
LINE
8
BLACK
6
CONTINUOUS
10
127.8400319999999937
20
-116.5632419999999883
11
127.8406689999999912
21
-116.5633479999999906
0
LINE
8
BLACK
6
CONTINUOUS
10
127.8406689999999912
20
-116.5633479999999906
11
136.8043869999999913
21
-118.9651689999999888
0
LINE
8
BLACK
6
CONTINUOUS
10
136.8043869999999913
20
-118.9651689999999888
11
136.8072949999999821
21
-118.9662629999999979
0
LINE
8
BLACK
6
CONTINUOUS
10
136.8072949999999821
20
-118.9662629999999979
11
136.808575999999988
21
-118.9664229999999918
0
LINE
8
BLACK
6
CONTINUOUS
10
136.808575999999988
20
-118.9664229999999918
11
136.813305999999983
21
-118.9685259999999971
0
LINE
8
BLACK
6
CONTINUOUS
10
136.813305999999983
20
-118.9685259999999971
11
136.818146999999982
21
-118.9703480000000013
0
LINE
8
BLACK
6
CONTINUOUS
10
136.818146999999982
20
-118.9703480000000013
11
136.819168999999988
21
-118.9711319999999972
0
LINE
8
BLACK
6
CONTINUOUS
10
136.819168999999988
20
-118.9711319999999972
11
136.8220110000000034
21
-118.9723959999999892
0
LINE
8
BLACK
6
CONTINUOUS
10
136.8220110000000034
20
-118.9723959999999892
11
153.4107180000000028
21
-128.3929430000000025
0
LINE
8
BLACK
6
CONTINUOUS
10
153.4107180000000028
20
-128.3929430000000025
11
153.4107190000000003
21
-128.3929430000000025
0
LINE
8
BLACK
6
CONTINUOUS
10
153.4107190000000003
20
-128.3929430000000025
11
153.4107199999999978
21
-128.392944
0
LINE
8
BLACK
6
CONTINUOUS
10
153.4107199999999978
20
-128.392944
11
153.4107410000000016
21
-128.3929059999999822
0
LINE
8
BLACK
6
CONTINUOUS
10
153.4107410000000016
20
-128.3929059999999822
11
153.5324579999999912
21
-128.4620779999999911
0
LINE
8
BLACK
6
CONTINUOUS
10
153.5324579999999912
20
-128.4620779999999911
11
153.7907639999999958
21
-128.5701410000000067
0
LINE
8
BLACK
6
CONTINUOUS
10
153.7907639999999958
20
-128.5701410000000067
11
154.0601690000000019
21
-128.6464269999999885
0
LINE
8
BLACK
6
CONTINUOUS
10
154.0601690000000019
20
-128.6464269999999885
11
154.3367829999999969
21
-128.6898339999999905
0
LINE
8
BLACK
6
CONTINUOUS
10
154.3367829999999969
20
-128.6898339999999905
11
154.6166059999999902
21
-128.6997340000000065
0
LINE
8
BLACK
6
CONTINUOUS
10
154.6166059999999902
20
-128.6997340000000065
11
154.8955949999999859
21
-128.6759849999999972
0
LINE
8
BLACK
6
CONTINUOUS
10
154.8955949999999859
20
-128.6759849999999972
11
155.1697189999999864
21
-128.6189289999999801
0
LINE
8
BLACK
6
CONTINUOUS
10
155.1697189999999864
20
-128.6189289999999801
11
155.4350149999999928
21
-128.5293910000000039
0
LINE
8
BLACK
6
CONTINUOUS
10
155.4350149999999928
20
-128.5293910000000039
11
155.6876499999999908
21
-128.4086659999999824
0
LINE
8
BLACK
6
CONTINUOUS
10
155.6876499999999908
20
-128.4086659999999824
11
155.9239729999999895
21
-128.2584970000000055
0
LINE
8
BLACK
6
CONTINUOUS
10
155.9239729999999895
20
-128.2584970000000055
11
156.1405680000000018
21
-128.0810549999999921
0
LINE
8
BLACK
6
CONTINUOUS
10
156.1405680000000018
20
-128.0810549999999921
11
156.3343050000000005
21
-127.8789039999999915
0
LINE
8
BLACK
6
CONTINUOUS
10
156.3343050000000005
20
-127.8789039999999915
11
156.5023850000000039
21
-127.6549659999999875
0
LINE
8
BLACK
6
CONTINUOUS
10
156.5023850000000039
20
-127.6549659999999875
11
156.5723500000000001
21
-127.5337029999999885
0
LINE
8
BLACK
6
CONTINUOUS
10
156.5723500000000001
20
-127.5337029999999885
11
156.5723500000000001
21
-127.5337040000000002
0
LINE
8
BLACK
6
CONTINUOUS
10
156.5723500000000001
20
-127.5337040000000002
11
156.5723509999999976
21
-127.533701999999991
0
LINE
8
BLACK
6
CONTINUOUS
10
156.5723509999999976
20
-127.533701999999991
11
166.0723500000000001
21
-111.0792199999999923
0
LINE
8
BLACK
6
CONTINUOUS
10
166.0723500000000001
20
-111.0792199999999923
11
166.0722810000000038
21
-111.0791809999999913
0
LINE
8
BLACK
6
CONTINUOUS
10
166.0722810000000038
20
-111.0791809999999913
11
166.1425959999999975
21
-110.9573879999999946
0
LINE
8
BLACK
6
CONTINUOUS
10
166.1425959999999975
20
-110.9573879999999946
11
166.252837999999997
21
-110.6986270000000019
0
LINE
8
BLACK
6
CONTINUOUS
10
166.252837999999997
20
-110.6986270000000019
11
166.3310879999999941
21
-110.4284660000000002
0
LINE
8
BLACK
6
CONTINUOUS
10
166.3310879999999941
20
-110.4284660000000002
11
166.3762049999999988
21
-110.1508419999999973
0
LINE
8
BLACK
6
CONTINUOUS
10
166.3762049999999988
20
-110.1508419999999973
11
166.3875309999999956
21
-109.8698049999999995
0
LINE
8
BLACK
6
CONTINUOUS
10
166.3875309999999956
20
-109.8698049999999995
11
166.3649000000000058
21
-109.5894509999999968
0
LINE
8
BLACK
6
CONTINUOUS
10
166.3649000000000058
20
-109.5894509999999968
11
166.3086439999999868
21
-109.3138689999999968
0
LINE
8
BLACK
6
CONTINUOUS
10
166.3086439999999868
20
-109.3138689999999968
11
166.2195810000000051
21
-109.0470759999999899
0
LINE
8
BLACK
6
CONTINUOUS
10
166.2195810000000051
20
-109.0470759999999899
11
166.0990109999999902
21
-108.7929639999999978
0
LINE
8
BLACK
6
CONTINUOUS
10
166.0990109999999902
20
-108.7929639999999978
11
165.9486919999999941
21
-108.5552359999999936
0
LINE
8
BLACK
6
CONTINUOUS
10
165.9486919999999941
20
-108.5552359999999936
11
165.7708149999999989
21
-108.3373599999999897
0
LINE
8
BLACK
6
CONTINUOUS
10
165.7708149999999989
20
-108.3373599999999897
11
165.5679739999999924
21
-108.1425109999999989
0
LINE
8
BLACK
6
CONTINUOUS
10
165.5679739999999924
20
-108.1425109999999989
11
165.3431259999999838
21
-107.9735319999999916
0
LINE
8
BLACK
6
CONTINUOUS
10
165.3431259999999838
20
-107.9735319999999916
11
165.2213380000000029
21
-107.9032089999999897
0
LINE
8
BLACK
6
CONTINUOUS
10
165.2213380000000029
20
-107.9032089999999897
11
165.2213349999999821
21
-107.9032059999999973
0
LINE
8
BLACK
6
CONTINUOUS
10
165.2213349999999821
20
-107.9032059999999973
11
150.1015280000000018
21
-99.1737819999999886
0
LINE
8
BLACK
6
CONTINUOUS
10
150.1015280000000018
20
-99.1737819999999886
11
150.0986649999999827
21
-99.1717299999999966
0
LINE
8
BLACK
6
CONTINUOUS
10
150.0986649999999827
20
-99.1717299999999966
11
150.0973599999999806
21
-99.1711899999999957
0
LINE
8
BLACK
6
CONTINUOUS
10
150.0973599999999806
20
-99.1711899999999957
11
150.0959670000000017
21
-99.1697969999999884
0
LINE
8
BLACK
6
CONTINUOUS
10
150.0959670000000017
20
-99.1697969999999884
11
150.0895769999999914
21
-99.1652179999999959
0
LINE
8
BLACK
6
CONTINUOUS
10
150.0895769999999914
20
-99.1652179999999959
11
150.0836039999999798
21
-99.157433999999995
0
LINE
8
BLACK
6
CONTINUOUS
10
150.0836039999999798
20
-99.157433999999995
11
150.0766679999999837
21
-99.1504979999999989
0
LINE
8
BLACK
6
CONTINUOUS
10
150.0766679999999837
20
-99.1504979999999989
11
150.0747739999999908
21
-99.1459270000000004
0
LINE
8
BLACK
6
CONTINUOUS
10
150.0747739999999908
20
-99.1459270000000004
11
150.0717620000000068
21
-99.1420009999999934
0
LINE
8
BLACK
6
CONTINUOUS
10
150.0717620000000068
20
-99.1420009999999934
11
150.0692229999999938
21
-99.1325239999999894
0
LINE
8
BLACK
6
CONTINUOUS
10
150.0692229999999938
20
-99.1325239999999894
11
150.0654690000000073
21
-99.1234619999999893
0
LINE
8
BLACK
6
CONTINUOUS
10
150.0654690000000073
20
-99.1234619999999893
11
150.0646979999999928
21
-99.1156369999999924
0
LINE
8
BLACK
6
CONTINUOUS
10
150.0646979999999928
20
-99.1156369999999924
11
150.0641889999999989
21
-99.1137359999999887
0
LINE
8
BLACK
6
CONTINUOUS
10
150.0641889999999989
20
-99.1137359999999887
11
150.0643729999999891
21
-99.1123350000000016
0
LINE
8
BLACK
6
CONTINUOUS
10
150.0643729999999891
20
-99.1123350000000016
11
150.0640279999999791
21
-99.1088299999999975
0
LINE
8
BLACK
6
CONTINUOUS
10
150.0640279999999791
20
-99.1088299999999975
11
150.0640279999999791
21
-45.6805599999999998
0
LINE
8
BLACK
6
CONTINUOUS
10
150.0640279999999791
20
-45.6805599999999998
11
150.0640389999999798
21
-45.6804379999999952
0
LINE
8
BLACK
6
CONTINUOUS
10
150.0640389999999798
20
-45.6804379999999952
11
150.0640379999999823
21
-45.5399249999999967
0
LINE
8
BLACK
6
CONTINUOUS
10
150.0640379999999823
20
-45.5399249999999967
11
150.0301299999999856
21
-45.2607029999999995
0
LINE
8
BLACK
6
CONTINUOUS
10
150.0301299999999856
20
-45.2607029999999995
11
149.9628139999999803
21
-44.9876039999999975
0
LINE
8
BLACK
6
CONTINUOUS
10
149.9628139999999803
20
-44.9876039999999975
11
149.8630709999999908
21
-44.7246099999999984
0
LINE
8
BLACK
6
CONTINUOUS
10
149.8630709999999908
20
-44.7246099999999984
11
149.7323539999999866
21
-44.4755569999999949
0
LINE
8
BLACK
6
CONTINUOUS
10
149.7323539999999866
20
-44.4755569999999949
11
149.5725719999999797
21
-44.2440739999999977
0
LINE
8
BLACK
6
CONTINUOUS
10
149.5725719999999797
20
-44.2440739999999977
11
149.386053000000004
21
-44.0335389999999975
0
LINE
8
BLACK
6
CONTINUOUS
10
149.386053000000004
20
-44.0335389999999975
11
149.175516999999985
21
-43.847020999999998
0
LINE
8
BLACK
6
CONTINUOUS
10
149.175516999999985
20
-43.847020999999998
11
148.9440339999999878
21
-43.6872389999999982
0
LINE
8
BLACK
6
CONTINUOUS
10
148.9440339999999878
20
-43.6872389999999982
11
148.6949789999999894
21
-43.5565250000000006
0
LINE
8
BLACK
6
CONTINUOUS
10
148.6949789999999894
20
-43.5565250000000006
11
148.4319849999999974
21
-43.4567830000000015
0
LINE
8
BLACK
6
CONTINUOUS
10
148.4319849999999974
20
-43.4567830000000015
11
148.1588849999999979
21
-43.3894680000000008
0
LINE
8
BLACK
6
CONTINUOUS
10
148.1588849999999979
20
-43.3894680000000008
11
147.8796639999999911
21
-43.3555610000000016
0
LINE
8
BLACK
6
CONTINUOUS
10
147.8796639999999911
20
-43.3555610000000016
11
147.739026999999993
21
-43.355559999999997
0
LINE
8
BLACK
6
CONTINUOUS
10
147.739026999999993
20
-43.355559999999997
11
133.1390279999999962
21
-43.355559999999997
0
LINE
8
BLACK
6
CONTINUOUS
10
133.1390279999999962
20
-43.355559999999997
11
133.1243959999999902
21
-43.3541189999999972
0
LINE
8
BLACK
6
CONTINUOUS
10
133.1243959999999902
20
-43.3541189999999972
11
133.0973599999999806
21
-43.3429199999999994
0
LINE
8
BLACK
6
CONTINUOUS
10
133.0973599999999806
20
-43.3429199999999994
11
133.0766679999999837
21
-43.3222279999999955
0
LINE
8
BLACK
6
CONTINUOUS
10
133.0766679999999837
20
-43.3222279999999955
11
133.0654690000000073
21
-43.2951920000000001
0
LINE
8
BLACK
6
CONTINUOUS
10
133.0654690000000073
20
-43.2951920000000001
11
133.0640280000000075
21
-43.2805600000000013
0
LINE
8
BLACK
6
CONTINUOUS
10
133.0640280000000075
20
-43.2805600000000013
11
133.0640280000000075
21
-40.1805599999999998
0
LINE
8
BLACK
6
CONTINUOUS
10
133.0640280000000075
20
-40.1805599999999998
11
133.0640390000000082
21
-40.1804379999999952
0
LINE
8
BLACK
6
CONTINUOUS
10
133.0640390000000082
20
-40.1804379999999952
11
133.0640379999999823
21
-40.0399249999999967
0
LINE
8
BLACK
6
CONTINUOUS
10
133.0640379999999823
20
-40.0399249999999967
11
133.0301299999999856
21
-39.7607029999999995
0
LINE
8
BLACK
6
CONTINUOUS
10
133.0301299999999856
20
-39.7607029999999995
11
132.9628139999999803
21
-39.4876039999999975
0
LINE
8
BLACK
6
CONTINUOUS
10
132.9628139999999803
20
-39.4876039999999975
11
132.8630709999999908
21
-39.2246099999999984
0
LINE
8
BLACK
6
CONTINUOUS
10
132.8630709999999908
20
-39.2246099999999984
11
132.7323539999999866
21
-38.9755569999999949
0
LINE
8
BLACK
6
CONTINUOUS
10
132.7323539999999866
20
-38.9755569999999949
11
132.5725720000000081
21
-38.7440739999999977
0
LINE
8
BLACK
6
CONTINUOUS
10
132.5725720000000081
20
-38.7440739999999977
11
132.386053000000004
21
-38.5335389999999975
0
LINE
8
BLACK
6
CONTINUOUS
10
132.386053000000004
20
-38.5335389999999975
11
132.175516999999985
21
-38.347020999999998
0
LINE
8
BLACK
6
CONTINUOUS
10
132.175516999999985
20
-38.347020999999998
11
131.9440339999999878
21
-38.1872389999999982
0
LINE
8
BLACK
6
CONTINUOUS
10
131.9440339999999878
20
-38.1872389999999982
11
131.6949789999999894
21
-38.0565250000000006
0
LINE
8
BLACK
6
CONTINUOUS
10
131.6949789999999894
20
-38.0565250000000006
11
131.4319849999999974
21
-37.9567830000000015
0
LINE
8
BLACK
6
CONTINUOUS
10
131.4319849999999974
20
-37.9567830000000015
11
131.1588849999999979
21
-37.8894680000000008
0
LINE
8
BLACK
6
CONTINUOUS
10
131.1588849999999979
20
-37.8894680000000008
11
130.8796639999999911
21
-37.8555610000000016
0
LINE
8
BLACK
6
CONTINUOUS
10
130.8796639999999911
20
-37.8555610000000016
11
130.739026999999993
21
-37.855559999999997
0
LINE
8
BLACK
6
CONTINUOUS
10
130.739026999999993
20
-37.855559999999997
11
115.1390279999999962
21
-37.855559999999997
0
LINE
8
BLACK
6
CONTINUOUS
10
115.1390279999999962
20
-37.855559999999997
11
115.1243959999999902
21
-37.8541189999999972
0
LINE
8
BLACK
6
CONTINUOUS
10
115.1243959999999902
20
-37.8541189999999972
11
115.0973599999999948
21
-37.8429199999999994
0
LINE
8
BLACK
6
CONTINUOUS
10
115.0973599999999948
20
-37.8429199999999994
11
115.076667999999998
21
-37.8222279999999955
0
LINE
8
BLACK
6
CONTINUOUS
10
115.076667999999998
20
-37.8222279999999955
11
115.0654689999999931
21
-37.7951920000000001
0
LINE
8
BLACK
6
CONTINUOUS
10
115.0654689999999931
20
-37.7951920000000001
11
115.0640279999999933
21
-37.7805600000000013
0
LINE
8
BLACK
6
CONTINUOUS
10
115.0640279999999933
20
-37.7805600000000013
11
115.0640279999999933
21
-37.6305599999999956
0
LINE
8
BLACK
6
CONTINUOUS
10
115.0640279999999933
20
-37.6305599999999956
11
115.064038999999994
21
-37.6304379999999981
0
LINE
8
BLACK
6
CONTINUOUS
10
115.064038999999994
20
-37.6304379999999981
11
115.0640379999999965
21
-37.4899249999999995
0
LINE
8
BLACK
6
CONTINUOUS
10
115.0640379999999965
20
-37.4899249999999995
11
115.0301299999999998
21
-37.2107029999999952
0
LINE
8
BLACK
6
CONTINUOUS
10
115.0301299999999998
20
-37.2107029999999952
11
114.9628139999999945
21
-36.9376040000000003
0
LINE
8
BLACK
6
CONTINUOUS
10
114.9628139999999945
20
-36.9376040000000003
11
114.8630709999999908
21
-36.6746100000000013
0
LINE
8
BLACK
6
CONTINUOUS
10
114.8630709999999908
20
-36.6746100000000013
11
114.7323540000000008
21
-36.4255569999999977
0
LINE
8
BLACK
6
CONTINUOUS
10
114.7323540000000008
20
-36.4255569999999977
11
114.5725719999999939
21
-36.1940740000000005
0
LINE
8
BLACK
6
CONTINUOUS
10
114.5725719999999939
20
-36.1940740000000005
11
114.3860529999999898
21
-35.9835390000000004
0
LINE
8
BLACK
6
CONTINUOUS
10
114.3860529999999898
20
-35.9835390000000004
11
114.1755169999999993
21
-35.7970210000000009
0
LINE
8
BLACK
6
CONTINUOUS
10
114.1755169999999993
20
-35.7970210000000009
11
113.9440339999999878
21
-35.637239000000001
0
LINE
8
BLACK
6
CONTINUOUS
10
113.9440339999999878
20
-35.637239000000001
11
113.6949789999999894
21
-35.5065249999999963
0
LINE
8
BLACK
6
CONTINUOUS
10
113.6949789999999894
20
-35.5065249999999963
11
113.4319849999999974
21
-35.4067829999999972
0
LINE
8
BLACK
6
CONTINUOUS
10
113.4319849999999974
20
-35.4067829999999972
11
113.1588849999999979
21
-35.3394679999999966
0
LINE
8
BLACK
6
CONTINUOUS
10
113.1588849999999979
20
-35.3394679999999966
11
112.8796639999999911
21
-35.3055609999999973
0
LINE
8
BLACK
6
CONTINUOUS
10
112.8796639999999911
20
-35.3055609999999973
11
112.739026999999993
21
-35.3055599999999998
0
LINE
8
BLACK
6
CONTINUOUS
10
112.739026999999993
20
-35.3055599999999998
11
97.1390279999999962
21
-35.3055599999999998
0
LINE
8
BLACK
6
CONTINUOUS
10
97.1390279999999962
20
-35.3055599999999998
11
97.1243959999999902
21
-35.304119
0
LINE
8
BLACK
6
CONTINUOUS
10
97.1243959999999902
20
-35.304119
11
97.0973599999999948
21
-35.2929199999999952
0
LINE
8
BLACK
6
CONTINUOUS
10
97.0973599999999948
20
-35.2929199999999952
11
97.076667999999998
21
-35.2722279999999984
0
LINE
8
BLACK
6
CONTINUOUS
10
97.076667999999998
20
-35.2722279999999984
11
97.0654689999999931
21
-35.2451919999999959
0
LINE
8
BLACK
6
CONTINUOUS
10
97.0654689999999931
20
-35.2451919999999959
11
97.0640279999999933
21
-35.230559999999997
0
LINE
8
BLACK
6
CONTINUOUS
10
97.0640279999999933
20
-35.230559999999997
11
97.0640279999999933
21
-29.1305599999999991
0
LINE
8
BLACK
6
CONTINUOUS
10
97.0640279999999933
20
-29.1305599999999991
11
97.064038999999994
21
-29.1304379999999981
0
LINE
8
BLACK
6
CONTINUOUS
10
97.064038999999994
20
-29.1304379999999981
11
97.0640379999999965
21
-28.9899249999999995
0
LINE
8
BLACK
6
CONTINUOUS
10
97.0640379999999965
20
-28.9899249999999995
11
97.0301299999999998
21
-28.7107029999999988
0
LINE
8
BLACK
6
CONTINUOUS
10
97.0301299999999998
20
-28.7107029999999988
11
96.9628139999999945
21
-28.4376040000000003
0
LINE
8
BLACK
6
CONTINUOUS
10
96.9628139999999945
20
-28.4376040000000003
11
96.8630709999999908
21
-28.1746099999999977
0
LINE
8
BLACK
6
CONTINUOUS
10
96.8630709999999908
20
-28.1746099999999977
11
96.7323540000000008
21
-27.9255569999999977
0
LINE
8
BLACK
6
CONTINUOUS
10
96.7323540000000008
20
-27.9255569999999977
11
96.5725719999999939
21
-27.694073999999997
0
LINE
8
BLACK
6
CONTINUOUS
10
96.5725719999999939
20
-27.694073999999997
11
96.3860529999999898
21
-27.4835390000000004
0
LINE
8
BLACK
6
CONTINUOUS
10
96.3860529999999898
20
-27.4835390000000004
11
96.1755169999999993
21
-27.2970209999999973
0
LINE
8
BLACK
6
CONTINUOUS
10
96.1755169999999993
20
-27.2970209999999973
11
95.944034000000002
21
-27.1372389999999974
0
LINE
8
BLACK
6
CONTINUOUS
10
95.944034000000002
20
-27.1372389999999974
11
95.6949789999999894
21
-27.0065249999999999
0
LINE
8
BLACK
6
CONTINUOUS
10
95.6949789999999894
20
-27.0065249999999999
11
95.4319849999999974
21
-26.9067829999999972
0
LINE
8
BLACK
6
CONTINUOUS
10
95.4319849999999974
20
-26.9067829999999972
11
95.1588849999999979
21
-26.8394680000000001
0
LINE
8
BLACK
6
CONTINUOUS
10
95.1588849999999979
20
-26.8394680000000001
11
94.8796639999999911
21
-26.8055609999999973
0
LINE
8
BLACK
6
CONTINUOUS
10
94.8796639999999911
20
-26.8055609999999973
11
94.739026999999993
21
-26.8055599999999998
0
LINE
8
BLACK
6
CONTINUOUS
10
94.739026999999993
20
-26.8055599999999998
11
74.7390309999999971
21
-26.8055599999999998
0
LINE
8
BLACK
6
CONTINUOUS
10
74.7390309999999971
20
-26.8055599999999998
11
74.7390279999999905
21
-26.8055599999999998
0
LINE
8
BLACK
6
CONTINUOUS
10
74.7390279999999905
20
-26.8055599999999998
11
74.7390070000000009
21
-26.8055579999999978
0
LINE
8
BLACK
6
CONTINUOUS
10
74.7390070000000009
20
-26.8055579999999978
11
74.5983949999999965
21
-26.8055629999999994
0
CIRCLE
8
BLACK
10
74.7390279999999905
20
-46.6305599999999956
40
1.0999999999999999
0
CIRCLE
8
BLACK
10
111.379027999999991
20
-55.6305599999999956
40
1.0999999999999999
0
CIRCLE
8
BLACK
10
143.4784530000000018
20
-101.6785160000000019
40
1.0999999999999999
0
CIRCLE
8
BLACK
10
111.339027999999999
20
-91.6305600000000027
40
1.0999999999999999
0
CIRCLE
8
BLACK
10
57.6185069999999939
20
-84.7519190000000009
40
1.0999999999999999
0
CIRCLE
8
WHITE
10
74.7390279999999905
20
-46.6305599999999956
40
1.0999989999999999
0
CIRCLE
8
WHITE
10
111.379027999999991
20
-55.6305599999999956
40
1.0999989999999999
0
CIRCLE
8
WHITE
10
143.4784530000000018
20
-101.6785160000000019
40
1.0999989999999999
0
CIRCLE
8
WHITE
10
111.339027999999999
20
-91.6305600000000027
40
1.0999989999999999
0
CIRCLE
8
WHITE
10
57.6185069999999939
20
-84.7519190000000009
40
1.0999989999999999
  0
ENDSEC
  0
EOF
